M48
; DRILL file KiCad 10.0.1 date 2026-05-03T15:46:58
; FORMAT={-:-/ absolute / metric / decimal}
; #@! TF.CreationDate,2026-05-03T15:46:58-06:00
; #@! TF.GenerationSoftware,Kicad,Pcbnew,10.0.1
; #@! TF.FileFunction,Plated,1,2,PTH
FMAT,2
METRIC
; #@! TA.AperFunction,Plated,PTH,ViaDrill
T1C0.300
; #@! TA.AperFunction,Plated,PTH,ComponentDrill
T2C0.600
; #@! TA.AperFunction,Plated,PTH,ComponentDrill
T3C0.950
; #@! TA.AperFunction,Plated,PTH,ComponentDrill
T4C1.000
%
G90
G05
T1
X108.1Y-130.25
X108.7Y-120.325
X110.375Y-125.25
X119.2Y-131.325
X124.1Y-113.55
X124.15Y-131.325
X125.125Y-126.5
X126.35Y-118.8
X126.4Y-112.2
X127.85Y-118.75
X128.25Y-141.15
X130.85Y-93.225
X130.85Y-104.825
X132.825Y-127.7
X133.025Y-112.952
X133.075Y-110.45
X133.125Y-118.975
X134.0Y-121.6
X134.2Y-103.175
X135.675Y-109.275
X136.275Y-115.425
X136.8Y-130.0
X137.85Y-122.225
X141.575Y-121.725
X141.575Y-128.35
X144.025Y-125.05
X144.625Y-99.95
X144.675Y-107.8
X146.225Y-125.325
X147.525Y-93.325
X147.55Y-110.425
X147.575Y-100.625
X148.625Y-92.425
X149.675Y-102.5
X150.775Y-129.25
X151.675Y-110.975
X152.0Y-93.4
X152.0Y-116.25
X152.2Y-102.45
X153.775Y-132.312
X154.85Y-126.275
X156.275Y-112.775
X156.275Y-116.748
X159.475Y-115.475
X160.6Y-130.562
X161.1Y-122.45
X162.125Y-125.375
X162.15Y-124.2
X166.425Y-113.475
X166.425Y-114.15
X166.45Y-117.4
X166.45Y-118.05
T3
X109.3Y-96.475
X111.8Y-96.475
X113.525Y-142.45
X114.3Y-96.475
X116.025Y-142.45
X116.8Y-96.475
X118.525Y-142.45
X119.3Y-96.475
X121.025Y-142.45
T4
X102.86Y-103.12
X102.86Y-105.66
X102.86Y-108.2
X102.86Y-110.74
X105.4Y-103.12
X105.4Y-105.66
X105.4Y-108.2
X105.4Y-110.74
X107.647Y-135.85
X107.647Y-138.39
X107.647Y-140.93
X107.647Y-143.47
X136.41Y-142.45
X138.95Y-142.45
X141.49Y-142.45
X144.03Y-142.45
X146.57Y-142.45
X149.11Y-142.45
X151.65Y-142.45
X154.19Y-142.45
X155.5Y-95.5
X158.0Y-95.5
X162.6Y-104.35
X162.65Y-134.425
X165.1Y-104.35
X165.15Y-134.425
T2
G00X101.715Y-121.43
M15
G01X101.115Y-121.43
M16
G05
G00X101.715Y-130.07
M15
G01X101.115Y-130.07
M16
G05
G00X106.145Y-121.43
M15
G01X105.045Y-121.43
M16
G05
G00X106.145Y-130.07
M15
G01X105.045Y-130.07
M16
G05
M30
