%TF.GenerationSoftware,KiCad,Pcbnew,10.0.1*%
%TF.CreationDate,2026-05-03T15:47:04-06:00*%
%TF.ProjectId,2Wheel_Robot,32576865-656c-45f5-926f-626f742e6b69,rev?*%
%TF.SameCoordinates,Original*%
%TF.FileFunction,Soldermask,Bot*%
%TF.FilePolarity,Negative*%
%FSLAX46Y46*%
G04 Gerber Fmt 4.6, Leading zero omitted, Abs format (unit mm)*
G04 Created by KiCad (PCBNEW 10.0.1) date 2026-05-03 15:47:04*
%MOMM*%
%LPD*%
G01*
G04 APERTURE LIST*
G04 Aperture macros list*
%AMRoundRect*
0 Rectangle with rounded corners*
0 $1 Rounding radius*
0 $2 $3 $4 $5 $6 $7 $8 $9 X,Y pos of 4 corners*
0 Add a 4 corners polygon primitive as box body*
4,1,4,$2,$3,$4,$5,$6,$7,$8,$9,$2,$3,0*
0 Add four circle primitives for the rounded corners*
1,1,$1+$1,$2,$3*
1,1,$1+$1,$4,$5*
1,1,$1+$1,$6,$7*
1,1,$1+$1,$8,$9*
0 Add four rect primitives between the rounded corners*
20,1,$1+$1,$2,$3,$4,$5,0*
20,1,$1+$1,$4,$5,$6,$7,0*
20,1,$1+$1,$6,$7,$8,$9,0*
20,1,$1+$1,$8,$9,$2,$3,0*%
G04 Aperture macros list end*
%ADD10O,1.700000X2.000000*%
%ADD11RoundRect,0.250000X-0.600000X-0.750000X0.600000X-0.750000X0.600000X0.750000X-0.600000X0.750000X0*%
%ADD12R,1.700000X1.700000*%
%ADD13C,1.700000*%
%ADD14RoundRect,0.250000X0.600000X0.725000X-0.600000X0.725000X-0.600000X-0.725000X0.600000X-0.725000X0*%
%ADD15O,1.700000X1.950000*%
%ADD16C,0.900000*%
%ADD17C,3.200000*%
%ADD18RoundRect,0.250000X-0.600000X-0.725000X0.600000X-0.725000X0.600000X0.725000X-0.600000X0.725000X0*%
%ADD19C,0.650000*%
%ADD20O,2.100000X1.000000*%
%ADD21O,1.600000X1.000000*%
%ADD22RoundRect,0.250000X0.600000X0.750000X-0.600000X0.750000X-0.600000X-0.750000X0.600000X-0.750000X0*%
G04 APERTURE END LIST*
D10*
%TO.C,J2*%
X165150000Y-134425000D03*
D11*
X162650000Y-134425000D03*
%TD*%
D12*
%TO.C,J7*%
X107647500Y-135850000D03*
D13*
X107647500Y-138390000D03*
X107647500Y-140930000D03*
X107647500Y-143470000D03*
%TD*%
D14*
%TO.C,J6*%
X121025000Y-142450000D03*
D15*
X118525000Y-142450000D03*
X116025000Y-142450000D03*
X113525000Y-142450000D03*
%TD*%
D12*
%TO.C,J4*%
X136409800Y-142450000D03*
D13*
X138949800Y-142450000D03*
X141489800Y-142450000D03*
X144029800Y-142450000D03*
X146569800Y-142450000D03*
X149109800Y-142450000D03*
X151649800Y-142450000D03*
X154189800Y-142450000D03*
%TD*%
D16*
%TO.C,SW2*%
X128025000Y-143450000D03*
X131025000Y-143450000D03*
%TD*%
D17*
%TO.C,H3*%
X102000000Y-142500000D03*
%TD*%
%TO.C,H1*%
X102000000Y-94500000D03*
%TD*%
%TO.C,H2*%
X165000000Y-94500000D03*
%TD*%
D18*
%TO.C,J8*%
X109300000Y-96475000D03*
D15*
X111800000Y-96475000D03*
X114300000Y-96475000D03*
X116800000Y-96475000D03*
X119300000Y-96475000D03*
%TD*%
D12*
%TO.C,J5*%
X105400000Y-103120000D03*
D13*
X102860000Y-103120000D03*
X105400000Y-105660000D03*
X102860000Y-105660000D03*
X105400000Y-108200000D03*
X102860000Y-108200000D03*
X105400000Y-110740000D03*
X102860000Y-110740000D03*
%TD*%
D17*
%TO.C,H4*%
X165000000Y-142500000D03*
%TD*%
D19*
%TO.C,J9*%
X105095000Y-122860000D03*
X105095000Y-128640000D03*
D20*
X105595000Y-121430000D03*
D21*
X101415000Y-121430000D03*
D20*
X105595000Y-130070000D03*
D21*
X101415000Y-130070000D03*
%TD*%
D22*
%TO.C,J1*%
X158000000Y-95500000D03*
D10*
X155500000Y-95500000D03*
%TD*%
D22*
%TO.C,J3*%
X165100000Y-104350000D03*
D10*
X162600000Y-104350000D03*
%TD*%
D16*
%TO.C,SW3*%
X127700000Y-100325000D03*
X127700000Y-97325000D03*
%TD*%
M02*
