%TF.GenerationSoftware,KiCad,Pcbnew,10.0.1*%
%TF.CreationDate,2026-05-03T15:47:04-06:00*%
%TF.ProjectId,2Wheel_Robot,32576865-656c-45f5-926f-626f742e6b69,rev?*%
%TF.SameCoordinates,Original*%
%TF.FileFunction,Paste,Top*%
%TF.FilePolarity,Positive*%
%FSLAX46Y46*%
G04 Gerber Fmt 4.6, Leading zero omitted, Abs format (unit mm)*
G04 Created by KiCad (PCBNEW 10.0.1) date 2026-05-03 15:47:04*
%MOMM*%
%LPD*%
G01*
G04 APERTURE LIST*
G04 Aperture macros list*
%AMRoundRect*
0 Rectangle with rounded corners*
0 $1 Rounding radius*
0 $2 $3 $4 $5 $6 $7 $8 $9 X,Y pos of 4 corners*
0 Add a 4 corners polygon primitive as box body*
4,1,4,$2,$3,$4,$5,$6,$7,$8,$9,$2,$3,0*
0 Add four circle primitives for the rounded corners*
1,1,$1+$1,$2,$3*
1,1,$1+$1,$4,$5*
1,1,$1+$1,$6,$7*
1,1,$1+$1,$8,$9*
0 Add four rect primitives between the rounded corners*
20,1,$1+$1,$2,$3,$4,$5,0*
20,1,$1+$1,$4,$5,$6,$7,0*
20,1,$1+$1,$6,$7,$8,$9,0*
20,1,$1+$1,$8,$9,$2,$3,0*%
G04 Aperture macros list end*
%ADD10RoundRect,0.250000X0.475000X-0.337500X0.475000X0.337500X-0.475000X0.337500X-0.475000X-0.337500X0*%
%ADD11RoundRect,0.250000X-0.475000X0.337500X-0.475000X-0.337500X0.475000X-0.337500X0.475000X0.337500X0*%
%ADD12RoundRect,0.075000X0.700000X0.075000X-0.700000X0.075000X-0.700000X-0.075000X0.700000X-0.075000X0*%
%ADD13RoundRect,0.075000X0.075000X0.700000X-0.075000X0.700000X-0.075000X-0.700000X0.075000X-0.700000X0*%
%ADD14RoundRect,0.250000X-0.337500X-0.475000X0.337500X-0.475000X0.337500X0.475000X-0.337500X0.475000X0*%
%ADD15RoundRect,0.250000X0.450000X-0.350000X0.450000X0.350000X-0.450000X0.350000X-0.450000X-0.350000X0*%
%ADD16R,0.900000X1.250000*%
%ADD17R,0.800000X0.900000*%
%ADD18RoundRect,0.250001X-0.872499X-0.944999X0.872499X-0.944999X0.872499X0.944999X-0.872499X0.944999X0*%
%ADD19RoundRect,0.250000X0.350000X0.450000X-0.350000X0.450000X-0.350000X-0.450000X0.350000X-0.450000X0*%
%ADD20RoundRect,0.250000X0.450000X-0.325000X0.450000X0.325000X-0.450000X0.325000X-0.450000X-0.325000X0*%
%ADD21RoundRect,0.250000X-0.450000X0.350000X-0.450000X-0.350000X0.450000X-0.350000X0.450000X0.350000X0*%
%ADD22RoundRect,0.100000X0.850000X0.100000X-0.850000X0.100000X-0.850000X-0.100000X0.850000X-0.100000X0*%
%ADD23RoundRect,0.250000X-0.350000X-0.450000X0.350000X-0.450000X0.350000X0.450000X-0.350000X0.450000X0*%
%ADD24RoundRect,0.150000X-0.512500X-0.150000X0.512500X-0.150000X0.512500X0.150000X-0.512500X0.150000X0*%
%ADD25RoundRect,0.375000X0.625000X0.375000X-0.625000X0.375000X-0.625000X-0.375000X0.625000X-0.375000X0*%
%ADD26RoundRect,0.500000X0.500000X1.400000X-0.500000X1.400000X-0.500000X-1.400000X0.500000X-1.400000X0*%
%ADD27R,1.500000X2.300000*%
%ADD28RoundRect,0.150000X-0.500000X0.150000X-0.500000X-0.150000X0.500000X-0.150000X0.500000X0.150000X0*%
%ADD29RoundRect,0.075000X-0.575000X0.075000X-0.575000X-0.075000X0.575000X-0.075000X0.575000X0.075000X0*%
%ADD30RoundRect,0.250000X0.325000X0.450000X-0.325000X0.450000X-0.325000X-0.450000X0.325000X-0.450000X0*%
%ADD31RoundRect,0.250000X1.450000X-0.312500X1.450000X0.312500X-1.450000X0.312500X-1.450000X-0.312500X0*%
%ADD32RoundRect,0.250000X-0.325000X-0.450000X0.325000X-0.450000X0.325000X0.450000X-0.325000X0.450000X0*%
%ADD33RoundRect,0.250000X-0.450000X-0.350000X0.450000X-0.350000X0.450000X0.350000X-0.450000X0.350000X0*%
%ADD34RoundRect,0.090000X-0.360000X0.660000X-0.360000X-0.660000X0.360000X-0.660000X0.360000X0.660000X0*%
%ADD35RoundRect,0.250000X0.337500X0.475000X-0.337500X0.475000X-0.337500X-0.475000X0.337500X-0.475000X0*%
%ADD36R,1.250000X0.900000*%
%ADD37R,0.900000X0.800000*%
G04 APERTURE END LIST*
D10*
%TO.C,C1*%
X124129800Y-116836100D03*
X124129800Y-114761100D03*
%TD*%
D11*
%TO.C,C4*%
X137900000Y-121087500D03*
X137900000Y-123162500D03*
%TD*%
D12*
%TO.C,U1*%
X135275000Y-127000000D03*
X135275000Y-126500000D03*
X135275000Y-126000000D03*
X135275000Y-125500000D03*
X135275000Y-125000000D03*
X135275000Y-124500000D03*
X135275000Y-124000000D03*
X135275000Y-123500000D03*
X135275000Y-123000000D03*
X135275000Y-122500000D03*
X135275000Y-122000000D03*
X135275000Y-121500000D03*
X135275000Y-121000000D03*
X135275000Y-120500000D03*
X135275000Y-120000000D03*
X135275000Y-119500000D03*
D13*
X133350000Y-117575000D03*
X132850000Y-117575000D03*
X132350000Y-117575000D03*
X131850000Y-117575000D03*
X131350000Y-117575000D03*
X130850000Y-117575000D03*
X130350000Y-117575000D03*
X129850000Y-117575000D03*
X129350000Y-117575000D03*
X128850000Y-117575000D03*
X128350000Y-117575000D03*
X127850000Y-117575000D03*
X127350000Y-117575000D03*
X126850000Y-117575000D03*
X126350000Y-117575000D03*
X125850000Y-117575000D03*
D12*
X123925000Y-119500000D03*
X123925000Y-120000000D03*
X123925000Y-120500000D03*
X123925000Y-121000000D03*
X123925000Y-121500000D03*
X123925000Y-122000000D03*
X123925000Y-122500000D03*
X123925000Y-123000000D03*
X123925000Y-123500000D03*
X123925000Y-124000000D03*
X123925000Y-124500000D03*
X123925000Y-125000000D03*
X123925000Y-125500000D03*
X123925000Y-126000000D03*
X123925000Y-126500000D03*
X123925000Y-127000000D03*
D13*
X125850000Y-128925000D03*
X126350000Y-128925000D03*
X126850000Y-128925000D03*
X127350000Y-128925000D03*
X127850000Y-128925000D03*
X128350000Y-128925000D03*
X128850000Y-128925000D03*
X129350000Y-128925000D03*
X129850000Y-128925000D03*
X130350000Y-128925000D03*
X130850000Y-128925000D03*
X131350000Y-128925000D03*
X131850000Y-128925000D03*
X132350000Y-128925000D03*
X132850000Y-128925000D03*
X133350000Y-128925000D03*
%TD*%
D14*
%TO.C,C5*%
X134212500Y-131050000D03*
X136287500Y-131050000D03*
%TD*%
D11*
%TO.C,C2*%
X120300000Y-128812500D03*
X120300000Y-130887500D03*
%TD*%
D14*
%TO.C,C3*%
X133225000Y-115400000D03*
X135300000Y-115400000D03*
%TD*%
D15*
%TO.C,R4*%
X129600000Y-135825000D03*
X129600000Y-133825000D03*
%TD*%
D16*
%TO.C,SW2*%
X127275000Y-141375000D03*
X130275000Y-141375000D03*
X131775000Y-141375000D03*
D17*
X125725000Y-142400000D03*
X133325000Y-142400000D03*
X125725000Y-144500000D03*
X133325000Y-144500000D03*
%TD*%
D18*
%TO.C,C16*%
X158467500Y-124725000D03*
X163582500Y-124725000D03*
%TD*%
D10*
%TO.C,C20*%
X140475000Y-123925000D03*
X140475000Y-121850000D03*
%TD*%
D19*
%TO.C,R10*%
X136875000Y-106575000D03*
X134875000Y-106575000D03*
%TD*%
D20*
%TO.C,D2*%
X134550000Y-104025000D03*
X134550000Y-101975000D03*
%TD*%
D21*
%TO.C,R2*%
X108650000Y-102200000D03*
X108650000Y-104200000D03*
%TD*%
D10*
%TO.C,C10*%
X148550000Y-104862500D03*
X148550000Y-102787500D03*
%TD*%
D22*
%TO.C,U4*%
X165120200Y-119348200D03*
X165120200Y-118698200D03*
X165120200Y-118048200D03*
X165120200Y-117398200D03*
X165120200Y-116748200D03*
X165120200Y-116098200D03*
X165120200Y-115448200D03*
X165120200Y-114798200D03*
X165120200Y-114148200D03*
X165120200Y-113498200D03*
X165120200Y-112848200D03*
X165120200Y-112198200D03*
X158120200Y-112198200D03*
X158120200Y-112848200D03*
X158120200Y-113498200D03*
X158120200Y-114148200D03*
X158120200Y-114798200D03*
X158120200Y-115448200D03*
X158120200Y-116098200D03*
X158120200Y-116748200D03*
X158120200Y-117398200D03*
X158120200Y-118048200D03*
X158120200Y-118698200D03*
X158120200Y-119348200D03*
%TD*%
D23*
%TO.C,R6*%
X117690000Y-126275000D03*
X119690000Y-126275000D03*
%TD*%
D11*
%TO.C,C13*%
X150800000Y-108337500D03*
X150800000Y-110412500D03*
%TD*%
D23*
%TO.C,R5*%
X117690000Y-124225000D03*
X119690000Y-124225000D03*
%TD*%
D11*
%TO.C,C9*%
X148600000Y-98612500D03*
X148600000Y-100687500D03*
%TD*%
D21*
%TO.C,R8*%
X108875000Y-127575000D03*
X108875000Y-129575000D03*
%TD*%
D14*
%TO.C,C14*%
X158478400Y-121462800D03*
X160553400Y-121462800D03*
%TD*%
D11*
%TO.C,C12*%
X148500000Y-108337500D03*
X148500000Y-110412500D03*
%TD*%
D24*
%TO.C,U5*%
X111277500Y-124300000D03*
X111277500Y-125250000D03*
X111277500Y-126200000D03*
X113552500Y-126200000D03*
X113552500Y-125250000D03*
X113552500Y-124300000D03*
%TD*%
D15*
%TO.C,R7*%
X108750000Y-123325000D03*
X108750000Y-121325000D03*
%TD*%
D10*
%TO.C,C22*%
X159425000Y-130462500D03*
X159425000Y-128387500D03*
%TD*%
%TO.C,C6*%
X150900000Y-95462500D03*
X150900000Y-93387500D03*
%TD*%
D23*
%TO.C,R9*%
X125250000Y-104775000D03*
X127250000Y-104775000D03*
%TD*%
D25*
%TO.C,U2*%
X145925000Y-100025000D03*
X145925000Y-97725000D03*
D26*
X139625000Y-97725000D03*
D25*
X145925000Y-95425000D03*
%TD*%
D27*
%TO.C,SW1*%
X149650000Y-128650000D03*
X149650000Y-121950000D03*
%TD*%
D28*
%TO.C,J9*%
X106235000Y-122550000D03*
X106235000Y-123350000D03*
D29*
X106235000Y-124500000D03*
X106235000Y-125500000D03*
X106235000Y-126000000D03*
X106235000Y-127000000D03*
D28*
X106235000Y-128150000D03*
X106235000Y-128950000D03*
X106235000Y-128950000D03*
X106235000Y-128150000D03*
D29*
X106235000Y-127500000D03*
X106235000Y-126500000D03*
X106235000Y-125000000D03*
X106235000Y-124000000D03*
D28*
X106235000Y-123350000D03*
X106235000Y-122550000D03*
%TD*%
D23*
%TO.C,R1*%
X125250000Y-92775000D03*
X127250000Y-92775000D03*
%TD*%
D25*
%TO.C,U3*%
X145925000Y-107937500D03*
X145925000Y-105637500D03*
D26*
X139625000Y-105637500D03*
D25*
X145925000Y-103337500D03*
%TD*%
D30*
%TO.C,D1*%
X131675000Y-92820000D03*
X129625000Y-92820000D03*
%TD*%
D10*
%TO.C,C17*%
X126390400Y-115464500D03*
X126390400Y-113389500D03*
%TD*%
D31*
%TO.C,F1*%
X103400000Y-119412500D03*
X103400000Y-115137500D03*
%TD*%
D15*
%TO.C,R3*%
X136750000Y-104050000D03*
X136750000Y-102050000D03*
%TD*%
D32*
%TO.C,D4*%
X134875000Y-108750000D03*
X136925000Y-108750000D03*
%TD*%
D10*
%TO.C,C11*%
X151075000Y-104862500D03*
X151075000Y-102787500D03*
%TD*%
D33*
%TO.C,Y1*%
X142975000Y-125937500D03*
X145175000Y-125937500D03*
X145175000Y-124237500D03*
X142975000Y-124237500D03*
%TD*%
D34*
%TO.C,D5*%
X157125000Y-128500000D03*
X153825000Y-128500000D03*
X153825000Y-133400000D03*
X157125000Y-133400000D03*
%TD*%
D10*
%TO.C,C19*%
X153762000Y-126165900D03*
X153762000Y-124090900D03*
%TD*%
%TO.C,C7*%
X148625000Y-95462500D03*
X148625000Y-93387500D03*
%TD*%
D11*
%TO.C,C21*%
X140475000Y-126150000D03*
X140475000Y-128225000D03*
%TD*%
%TO.C,C18*%
X122941600Y-128787100D03*
X122941600Y-130862100D03*
%TD*%
D35*
%TO.C,C15*%
X155062500Y-116650000D03*
X152987500Y-116650000D03*
%TD*%
D36*
%TO.C,SW3*%
X125625000Y-101075000D03*
X125625000Y-98075000D03*
X125625000Y-96575000D03*
D37*
X126650000Y-102625000D03*
X126650000Y-95025000D03*
X128750000Y-102625000D03*
X128750000Y-95025000D03*
%TD*%
D11*
%TO.C,C8*%
X150900000Y-98612500D03*
X150900000Y-100687500D03*
%TD*%
D30*
%TO.C,D3*%
X131675000Y-104775000D03*
X129625000Y-104775000D03*
%TD*%
M02*
