%TF.GenerationSoftware,KiCad,Pcbnew,10.0.1*%
%TF.CreationDate,2026-05-03T15:47:04-06:00*%
%TF.ProjectId,2Wheel_Robot,32576865-656c-45f5-926f-626f742e6b69,rev?*%
%TF.SameCoordinates,Original*%
%TF.FileFunction,Copper,L2,Bot*%
%TF.FilePolarity,Positive*%
%FSLAX46Y46*%
G04 Gerber Fmt 4.6, Leading zero omitted, Abs format (unit mm)*
G04 Created by KiCad (PCBNEW 10.0.1) date 2026-05-03 15:47:04*
%MOMM*%
%LPD*%
G01*
G04 APERTURE LIST*
G04 Aperture macros list*
%AMRoundRect*
0 Rectangle with rounded corners*
0 $1 Rounding radius*
0 $2 $3 $4 $5 $6 $7 $8 $9 X,Y pos of 4 corners*
0 Add a 4 corners polygon primitive as box body*
4,1,4,$2,$3,$4,$5,$6,$7,$8,$9,$2,$3,0*
0 Add four circle primitives for the rounded corners*
1,1,$1+$1,$2,$3*
1,1,$1+$1,$4,$5*
1,1,$1+$1,$6,$7*
1,1,$1+$1,$8,$9*
0 Add four rect primitives between the rounded corners*
20,1,$1+$1,$2,$3,$4,$5,0*
20,1,$1+$1,$4,$5,$6,$7,0*
20,1,$1+$1,$6,$7,$8,$9,0*
20,1,$1+$1,$8,$9,$2,$3,0*%
G04 Aperture macros list end*
%TA.AperFunction,ComponentPad*%
%ADD10O,1.700000X2.000000*%
%TD*%
%TA.AperFunction,ComponentPad*%
%ADD11RoundRect,0.250000X-0.600000X-0.750000X0.600000X-0.750000X0.600000X0.750000X-0.600000X0.750000X0*%
%TD*%
%TA.AperFunction,ComponentPad*%
%ADD12R,1.700000X1.700000*%
%TD*%
%TA.AperFunction,ComponentPad*%
%ADD13C,1.700000*%
%TD*%
%TA.AperFunction,ComponentPad*%
%ADD14RoundRect,0.250000X0.600000X0.725000X-0.600000X0.725000X-0.600000X-0.725000X0.600000X-0.725000X0*%
%TD*%
%TA.AperFunction,ComponentPad*%
%ADD15O,1.700000X1.950000*%
%TD*%
%TA.AperFunction,ComponentPad*%
%ADD16RoundRect,0.250000X-0.600000X-0.725000X0.600000X-0.725000X0.600000X0.725000X-0.600000X0.725000X0*%
%TD*%
%TA.AperFunction,ComponentPad*%
%ADD17O,2.100000X1.000000*%
%TD*%
%TA.AperFunction,ComponentPad*%
%ADD18O,1.600000X1.000000*%
%TD*%
%TA.AperFunction,ComponentPad*%
%ADD19RoundRect,0.250000X0.600000X0.750000X-0.600000X0.750000X-0.600000X-0.750000X0.600000X-0.750000X0*%
%TD*%
%TA.AperFunction,ViaPad*%
%ADD20C,0.600000*%
%TD*%
%TA.AperFunction,ViaPad*%
%ADD21C,0.700000*%
%TD*%
%TA.AperFunction,Conductor*%
%ADD22C,0.381000*%
%TD*%
%TA.AperFunction,Conductor*%
%ADD23C,0.254000*%
%TD*%
G04 APERTURE END LIST*
D10*
%TO.P,J2,2,Pin_2_2*%
%TO.N,/MD_A01*%
X165150000Y-134425000D03*
D11*
%TO.P,J2,1,Pin_1_1*%
%TO.N,/MD_A02*%
X162650000Y-134425000D03*
%TD*%
D12*
%TO.P,J7,1,Pin_1_1*%
%TO.N,/SWDIO*%
X107647500Y-135850000D03*
D13*
%TO.P,J7,2,Pin_2_2*%
%TO.N,GND*%
X107647500Y-138390000D03*
%TO.P,J7,3,Pin_3_3*%
%TO.N,/SWCLK*%
X107647500Y-140930000D03*
%TO.P,J7,4,Pin_4_4*%
%TO.N,+3.3V*%
X107647500Y-143470000D03*
%TD*%
D14*
%TO.P,J6,1,Pin_1_1*%
%TO.N,+3.3V*%
X121025000Y-142450000D03*
D15*
%TO.P,J6,2,Pin_2_2*%
%TO.N,/ENC_A*%
X118525000Y-142450000D03*
%TO.P,J6,3,Pin_3_3*%
%TO.N,/ENC_B*%
X116025000Y-142450000D03*
%TO.P,J6,4,Pin_4_4*%
%TO.N,GND*%
X113525000Y-142450000D03*
%TD*%
D12*
%TO.P,J4,1,Pin_1_1*%
%TO.N,+3.3V*%
X136409800Y-142450000D03*
D13*
%TO.P,J4,2,Pin_2_2*%
%TO.N,GND*%
X138949800Y-142450000D03*
%TO.P,J4,3,Pin_3_3*%
%TO.N,/IMU_SCL*%
X141489800Y-142450000D03*
%TO.P,J4,4,Pin_4_4*%
%TO.N,/IMU_SDA*%
X144029800Y-142450000D03*
%TO.P,J4,5,Pin_5_5*%
%TO.N,unconnected-(J4-Pin_5-Pad5)*%
X146569800Y-142450000D03*
%TO.P,J4,6,Pin_6_6*%
%TO.N,unconnected-(J4-Pin_6-Pad6)*%
X149109800Y-142450000D03*
%TO.P,J4,7,Pin_7_7*%
%TO.N,unconnected-(J4-Pin_7-Pad7)*%
X151649800Y-142450000D03*
%TO.P,J4,8,Pin_8_8*%
%TO.N,/IMU_INT*%
X154189800Y-142450000D03*
%TD*%
D16*
%TO.P,J8,1,Pin_1_1*%
%TO.N,+3.3V*%
X109300000Y-96475000D03*
D15*
%TO.P,J8,2,Pin_2_2*%
%TO.N,GND*%
X111800000Y-96475000D03*
%TO.P,J8,3,Pin_3_3*%
%TO.N,/MT_PWM*%
X114300000Y-96475000D03*
%TO.P,J8,4,Pin_4_4*%
%TO.N,/MT_SCL*%
X116800000Y-96475000D03*
%TO.P,J8,5,Pin_5_5*%
%TO.N,/MT_SDA*%
X119300000Y-96475000D03*
%TD*%
D12*
%TO.P,J5,1,Pin_1_1*%
%TO.N,GND*%
X105400000Y-103120000D03*
D13*
%TO.P,J5,2,Pin_2_2*%
%TO.N,/ESP_TX*%
X102860000Y-103120000D03*
%TO.P,J5,3,Pin_3_3*%
%TO.N,unconnected-(J5-Pin_3-Pad3)*%
X105400000Y-105660000D03*
%TO.P,J5,4,Pin_4_4*%
%TO.N,+3.3V*%
X102860000Y-105660000D03*
%TO.P,J5,5,Pin_5_5*%
%TO.N,Net-(J5-Pin_5)*%
X105400000Y-108200000D03*
%TO.P,J5,6,Pin_6_6*%
%TO.N,+3.3V*%
X102860000Y-108200000D03*
%TO.P,J5,7,Pin_7_7*%
%TO.N,/ESP_RX*%
X105400000Y-110740000D03*
%TO.P,J5,8,Pin_8_8*%
%TO.N,+3.3V*%
X102860000Y-110740000D03*
%TD*%
D17*
%TO.P,J9,SH,SHIELD_SH*%
%TO.N,GND*%
X105595000Y-121430000D03*
D18*
X101415000Y-121430000D03*
D17*
X105595000Y-130070000D03*
D18*
X101415000Y-130070000D03*
%TD*%
D19*
%TO.P,J1,1,Pin_1_1*%
%TO.N,VM*%
X158000000Y-95500000D03*
D10*
%TO.P,J1,2,Pin_2_2*%
%TO.N,GND*%
X155500000Y-95500000D03*
%TD*%
D19*
%TO.P,J3,1,Pin_1_1*%
%TO.N,/MD_B01*%
X165100000Y-104350000D03*
D10*
%TO.P,J3,2,Pin_2_2*%
%TO.N,/MD_B02*%
X162600000Y-104350000D03*
%TD*%
D20*
%TO.N,GND*%
X162125000Y-125375000D03*
X162150000Y-124200000D03*
D21*
X128250000Y-141150000D03*
%TO.N,+3.3V*%
X156275000Y-116748200D03*
X156275000Y-112775000D03*
%TO.N,GND*%
X125125000Y-126500000D03*
X124100000Y-113550000D03*
X144625000Y-99950000D03*
X147575000Y-100625000D03*
X134000000Y-121600000D03*
X130850000Y-104825000D03*
X110375000Y-125250000D03*
X166425000Y-113475000D03*
X135675000Y-109275000D03*
X153775000Y-132312500D03*
X119200000Y-131325000D03*
X152000000Y-116250000D03*
X126400000Y-112200000D03*
X152000000Y-93400000D03*
X147550000Y-110425000D03*
X137850000Y-122225000D03*
X134200000Y-103175000D03*
X108100000Y-130250000D03*
X141575000Y-121725000D03*
X132825000Y-127700000D03*
X144025000Y-125050000D03*
X130850000Y-93225000D03*
X124150000Y-131325000D03*
X149675000Y-102500000D03*
X126350000Y-118800000D03*
X127850000Y-118750000D03*
X147525000Y-93325000D03*
X166425000Y-114150000D03*
X146225000Y-125325000D03*
X151675000Y-110975000D03*
X108700000Y-120325000D03*
X144675000Y-107800000D03*
X148625000Y-92425000D03*
X136800000Y-130000000D03*
X152200000Y-102450000D03*
X166450000Y-117400000D03*
X136275000Y-115425000D03*
X133125000Y-118975000D03*
X166450000Y-118050000D03*
X159475000Y-115475000D03*
X160600000Y-130562500D03*
X154850000Y-126275000D03*
X161100000Y-122450000D03*
X141575000Y-128350000D03*
X150775000Y-129250000D03*
%TO.N,/MD_PWMB*%
X133075000Y-110450000D03*
X133025000Y-112952000D03*
%TD*%
%TO.N,+3.3V*%
D22*
X156275000Y-112775000D02*
X156275000Y-116748200D01*
%TO.N,/MD_PWMB*%
D23*
X133075000Y-110450000D02*
X133075000Y-112902000D01*
X133075000Y-112902000D02*
X133025000Y-112952000D01*
%TD*%
%TA.AperFunction,Conductor*%
%TO.N,GND*%
G36*
X165003243Y-91500669D02*
G01*
X165307061Y-91516591D01*
X165319937Y-91517945D01*
X165617212Y-91565029D01*
X165629896Y-91567724D01*
X165920626Y-91645625D01*
X165932967Y-91649636D01*
X166213935Y-91757489D01*
X166225790Y-91762767D01*
X166493976Y-91899415D01*
X166505192Y-91905891D01*
X166757619Y-92069818D01*
X166768100Y-92077433D01*
X166964849Y-92236757D01*
X167002011Y-92266850D01*
X167011656Y-92275535D01*
X167224464Y-92488343D01*
X167233149Y-92497988D01*
X167422564Y-92731896D01*
X167430183Y-92742384D01*
X167594105Y-92994801D01*
X167600591Y-93006035D01*
X167737231Y-93274206D01*
X167742510Y-93286064D01*
X167850363Y-93567032D01*
X167854374Y-93579375D01*
X167932273Y-93870097D01*
X167934971Y-93882793D01*
X167982052Y-94180046D01*
X167983409Y-94192955D01*
X167999330Y-94496756D01*
X167999500Y-94503245D01*
X167999500Y-142496754D01*
X167999330Y-142503243D01*
X167983409Y-142807044D01*
X167982052Y-142819953D01*
X167934971Y-143117206D01*
X167932273Y-143129902D01*
X167854374Y-143420624D01*
X167850363Y-143432967D01*
X167742510Y-143713935D01*
X167737231Y-143725793D01*
X167600591Y-143993964D01*
X167594101Y-144005204D01*
X167430188Y-144257609D01*
X167422559Y-144268110D01*
X167233149Y-144502011D01*
X167224464Y-144511656D01*
X167011656Y-144724464D01*
X167002011Y-144733149D01*
X166768110Y-144922559D01*
X166757609Y-144930188D01*
X166505204Y-145094101D01*
X166493964Y-145100591D01*
X166225793Y-145237231D01*
X166213935Y-145242510D01*
X165932967Y-145350363D01*
X165920624Y-145354374D01*
X165629902Y-145432273D01*
X165617206Y-145434971D01*
X165319953Y-145482052D01*
X165307044Y-145483409D01*
X165003244Y-145499330D01*
X164996755Y-145499500D01*
X102003245Y-145499500D01*
X101996756Y-145499330D01*
X101692955Y-145483409D01*
X101680046Y-145482052D01*
X101382793Y-145434971D01*
X101370097Y-145432273D01*
X101079375Y-145354374D01*
X101067032Y-145350363D01*
X100786064Y-145242510D01*
X100774206Y-145237231D01*
X100643585Y-145170676D01*
X100506029Y-145100587D01*
X100494801Y-145094105D01*
X100242384Y-144930183D01*
X100231896Y-144922564D01*
X99997988Y-144733149D01*
X99988343Y-144724464D01*
X99775535Y-144511656D01*
X99766850Y-144502011D01*
X99723713Y-144448741D01*
X99577433Y-144268100D01*
X99569818Y-144257619D01*
X99405891Y-144005192D01*
X99399415Y-143993976D01*
X99262767Y-143725790D01*
X99257489Y-143713935D01*
X99229573Y-143641212D01*
X99149635Y-143432966D01*
X99145625Y-143420624D01*
X99135009Y-143381004D01*
X99067724Y-143129896D01*
X99065028Y-143117206D01*
X99061685Y-143096100D01*
X99017945Y-142819937D01*
X99016591Y-142807061D01*
X99000670Y-142503243D01*
X99000500Y-142496754D01*
X99000500Y-142378711D01*
X100149500Y-142378711D01*
X100149500Y-142621288D01*
X100180191Y-142854419D01*
X100181162Y-142861789D01*
X100198815Y-142927669D01*
X100243947Y-143096104D01*
X100331122Y-143306563D01*
X100336776Y-143320212D01*
X100458064Y-143530289D01*
X100458066Y-143530292D01*
X100458067Y-143530293D01*
X100605733Y-143722736D01*
X100605739Y-143722743D01*
X100777256Y-143894260D01*
X100777263Y-143894266D01*
X100799900Y-143911636D01*
X100969711Y-144041936D01*
X101179788Y-144163224D01*
X101403900Y-144256054D01*
X101638211Y-144318838D01*
X101818586Y-144342584D01*
X101878711Y-144350500D01*
X101878712Y-144350500D01*
X102121289Y-144350500D01*
X102169388Y-144344167D01*
X102361789Y-144318838D01*
X102596100Y-144256054D01*
X102820212Y-144163224D01*
X103030289Y-144041936D01*
X103222738Y-143894265D01*
X103394265Y-143722738D01*
X103541936Y-143530289D01*
X103663224Y-143320212D01*
X103756054Y-143096100D01*
X103818838Y-142861789D01*
X103850500Y-142621288D01*
X103850500Y-142378712D01*
X103847710Y-142357523D01*
X103835085Y-142261621D01*
X103818838Y-142138211D01*
X103756054Y-141903900D01*
X103747546Y-141883361D01*
X103732486Y-141847002D01*
X103663224Y-141679788D01*
X103541936Y-141469711D01*
X103413564Y-141302413D01*
X103394266Y-141277263D01*
X103394260Y-141277256D01*
X103222743Y-141105739D01*
X103222736Y-141105733D01*
X103030296Y-140958069D01*
X103030294Y-140958067D01*
X103030289Y-140958064D01*
X102930358Y-140900368D01*
X102820214Y-140836777D01*
X102820205Y-140836773D01*
X102596104Y-140743947D01*
X102361785Y-140681161D01*
X102121289Y-140649500D01*
X102121288Y-140649500D01*
X101878712Y-140649500D01*
X101878711Y-140649500D01*
X101638214Y-140681161D01*
X101403895Y-140743947D01*
X101179794Y-140836773D01*
X101179785Y-140836777D01*
X100969706Y-140958067D01*
X100777263Y-141105733D01*
X100777256Y-141105739D01*
X100605739Y-141277256D01*
X100605733Y-141277263D01*
X100458067Y-141469706D01*
X100336777Y-141679785D01*
X100336773Y-141679794D01*
X100243947Y-141903895D01*
X100181161Y-142138214D01*
X100149500Y-142378711D01*
X99000500Y-142378711D01*
X99000500Y-138283753D01*
X106297500Y-138283753D01*
X106297500Y-138496246D01*
X106330742Y-138706127D01*
X106330742Y-138706130D01*
X106396404Y-138908217D01*
X106492875Y-139097550D01*
X106532228Y-139151716D01*
X107164537Y-138519408D01*
X107181575Y-138582993D01*
X107247401Y-138697007D01*
X107340493Y-138790099D01*
X107454507Y-138855925D01*
X107518090Y-138872962D01*
X106885782Y-139505269D01*
X106885782Y-139505270D01*
X106939949Y-139544624D01*
X107129280Y-139641094D01*
X107158205Y-139650492D01*
X107215881Y-139689929D01*
X107243080Y-139754287D01*
X107231167Y-139823134D01*
X107183924Y-139874610D01*
X107176185Y-139878908D01*
X107044504Y-139946004D01*
X106898005Y-140052441D01*
X106898000Y-140052445D01*
X106769945Y-140180500D01*
X106769941Y-140180505D01*
X106663506Y-140327002D01*
X106581288Y-140488360D01*
X106581287Y-140488363D01*
X106525329Y-140660589D01*
X106497000Y-140839448D01*
X106497000Y-141020551D01*
X106525329Y-141199410D01*
X106581287Y-141371636D01*
X106581288Y-141371639D01*
X106629371Y-141466004D01*
X106661984Y-141530011D01*
X106663506Y-141532997D01*
X106769941Y-141679494D01*
X106769945Y-141679499D01*
X106898000Y-141807554D01*
X106898005Y-141807558D01*
X107002339Y-141883360D01*
X107044506Y-141913996D01*
X107136177Y-141960705D01*
X107205860Y-141996211D01*
X107205863Y-141996212D01*
X107244828Y-142008872D01*
X107378091Y-142052171D01*
X107451139Y-142063740D01*
X107538178Y-142077527D01*
X107601313Y-142107456D01*
X107638244Y-142166768D01*
X107637246Y-142236631D01*
X107598636Y-142294863D01*
X107538178Y-142322473D01*
X107378089Y-142347829D01*
X107205863Y-142403787D01*
X107205860Y-142403788D01*
X107044502Y-142486006D01*
X106898005Y-142592441D01*
X106898000Y-142592445D01*
X106769945Y-142720500D01*
X106769941Y-142720505D01*
X106663506Y-142867002D01*
X106581288Y-143028360D01*
X106581287Y-143028363D01*
X106525329Y-143200589D01*
X106497000Y-143379448D01*
X106497000Y-143560551D01*
X106525329Y-143739410D01*
X106581287Y-143911636D01*
X106581288Y-143911639D01*
X106623236Y-143993964D01*
X106662373Y-144070775D01*
X106663506Y-144072997D01*
X106769941Y-144219494D01*
X106769945Y-144219499D01*
X106898000Y-144347554D01*
X106898005Y-144347558D01*
X107025787Y-144440396D01*
X107044506Y-144453996D01*
X107138740Y-144502011D01*
X107205860Y-144536211D01*
X107205863Y-144536212D01*
X107291976Y-144564191D01*
X107378091Y-144592171D01*
X107460929Y-144605291D01*
X107556949Y-144620500D01*
X107556954Y-144620500D01*
X107738051Y-144620500D01*
X107824759Y-144606765D01*
X107916909Y-144592171D01*
X108089139Y-144536211D01*
X108250494Y-144453996D01*
X108397001Y-144347553D01*
X108525053Y-144219501D01*
X108631496Y-144072994D01*
X108713711Y-143911639D01*
X108769671Y-143739409D01*
X108785224Y-143641211D01*
X108798000Y-143560551D01*
X108798000Y-143379448D01*
X108772444Y-143218102D01*
X108769671Y-143200591D01*
X108719908Y-143047434D01*
X108713712Y-143028363D01*
X108713711Y-143028360D01*
X108668329Y-142939295D01*
X108631496Y-142867006D01*
X108615079Y-142844410D01*
X108536189Y-142735825D01*
X108536187Y-142735823D01*
X108525054Y-142720500D01*
X108396999Y-142592445D01*
X108396994Y-142592441D01*
X108250497Y-142486006D01*
X108250496Y-142486005D01*
X108250494Y-142486004D01*
X108161667Y-142440744D01*
X108089139Y-142403788D01*
X108089136Y-142403787D01*
X107946746Y-142357523D01*
X107946742Y-142357522D01*
X107916909Y-142347829D01*
X107755307Y-142322233D01*
X107753740Y-142321945D01*
X107723908Y-142306870D01*
X107693686Y-142292544D01*
X107692827Y-142291165D01*
X107691380Y-142290434D01*
X107674431Y-142261621D01*
X107656755Y-142233232D01*
X107656778Y-142231609D01*
X107655955Y-142230210D01*
X107657148Y-142200000D01*
X112177970Y-142200000D01*
X113120854Y-142200000D01*
X113082370Y-142266657D01*
X113050000Y-142387465D01*
X113050000Y-142512535D01*
X113082370Y-142633343D01*
X113120854Y-142700000D01*
X112177970Y-142700000D01*
X112208242Y-142891127D01*
X112208242Y-142891130D01*
X112273904Y-143093217D01*
X112370379Y-143282557D01*
X112495272Y-143454459D01*
X112495276Y-143454464D01*
X112645535Y-143604723D01*
X112645540Y-143604727D01*
X112817442Y-143729620D01*
X113006782Y-143826095D01*
X113208871Y-143891757D01*
X113275000Y-143902231D01*
X113275000Y-142854145D01*
X113341657Y-142892630D01*
X113462465Y-142925000D01*
X113587535Y-142925000D01*
X113708343Y-142892630D01*
X113775000Y-142854145D01*
X113775000Y-143902230D01*
X113841126Y-143891757D01*
X113841129Y-143891757D01*
X114043217Y-143826095D01*
X114232557Y-143729620D01*
X114404459Y-143604727D01*
X114404464Y-143604723D01*
X114554723Y-143454464D01*
X114554727Y-143454459D01*
X114679620Y-143282558D01*
X114776466Y-143092488D01*
X114824440Y-143041692D01*
X114892261Y-143024897D01*
X114958396Y-143047434D01*
X114997435Y-143092488D01*
X115041002Y-143177992D01*
X115041003Y-143177993D01*
X115147441Y-143324494D01*
X115147445Y-143324499D01*
X115275500Y-143452554D01*
X115275505Y-143452558D01*
X115366946Y-143518993D01*
X115422006Y-143558996D01*
X115511750Y-143604723D01*
X115583360Y-143641211D01*
X115583363Y-143641212D01*
X115669476Y-143669191D01*
X115755591Y-143697171D01*
X115838429Y-143710291D01*
X115934449Y-143725500D01*
X115934454Y-143725500D01*
X116115551Y-143725500D01*
X116202259Y-143711765D01*
X116294409Y-143697171D01*
X116466639Y-143641211D01*
X116627994Y-143558996D01*
X116774501Y-143452553D01*
X116902553Y-143324501D01*
X117008996Y-143177994D01*
X117091211Y-143016639D01*
X117147171Y-142844409D01*
X117152527Y-142810594D01*
X117182456Y-142747459D01*
X117241768Y-142710528D01*
X117311630Y-142711526D01*
X117369863Y-142750136D01*
X117397473Y-142810594D01*
X117402829Y-142844410D01*
X117458787Y-143016636D01*
X117458788Y-143016639D01*
X117501409Y-143100285D01*
X117541003Y-143177993D01*
X117541006Y-143177997D01*
X117647441Y-143324494D01*
X117647445Y-143324499D01*
X117775500Y-143452554D01*
X117775505Y-143452558D01*
X117866946Y-143518993D01*
X117922006Y-143558996D01*
X118011750Y-143604723D01*
X118083360Y-143641211D01*
X118083363Y-143641212D01*
X118169476Y-143669191D01*
X118255591Y-143697171D01*
X118338429Y-143710291D01*
X118434449Y-143725500D01*
X118434454Y-143725500D01*
X118615551Y-143725500D01*
X118702259Y-143711765D01*
X118794409Y-143697171D01*
X118966639Y-143641211D01*
X119127994Y-143558996D01*
X119274501Y-143452553D01*
X119402553Y-143324501D01*
X119508996Y-143177994D01*
X119591211Y-143016639D01*
X119620986Y-142925000D01*
X119632569Y-142889351D01*
X119672006Y-142831676D01*
X119736364Y-142804477D01*
X119805211Y-142816391D01*
X119856687Y-142863635D01*
X119874500Y-142927669D01*
X119874500Y-143218102D01*
X119880126Y-143264954D01*
X119885122Y-143306561D01*
X119885122Y-143306563D01*
X119885123Y-143306564D01*
X119894138Y-143329425D01*
X119940639Y-143447343D01*
X120032077Y-143567922D01*
X120152656Y-143659360D01*
X120152657Y-143659360D01*
X120152658Y-143659361D01*
X120293436Y-143714877D01*
X120381898Y-143725500D01*
X120381903Y-143725500D01*
X121668097Y-143725500D01*
X121668102Y-143725500D01*
X121756564Y-143714877D01*
X121897342Y-143659361D01*
X122017922Y-143567922D01*
X122055025Y-143518995D01*
X127324499Y-143518995D01*
X127351418Y-143654322D01*
X127351421Y-143654332D01*
X127404221Y-143781804D01*
X127404228Y-143781817D01*
X127480885Y-143896541D01*
X127480888Y-143896545D01*
X127578454Y-143994111D01*
X127578458Y-143994114D01*
X127693182Y-144070771D01*
X127693195Y-144070778D01*
X127806264Y-144117612D01*
X127820672Y-144123580D01*
X127820676Y-144123580D01*
X127820677Y-144123581D01*
X127956004Y-144150500D01*
X127956007Y-144150500D01*
X128093995Y-144150500D01*
X128185041Y-144132389D01*
X128229328Y-144123580D01*
X128356811Y-144070775D01*
X128471542Y-143994114D01*
X128569114Y-143896542D01*
X128645775Y-143781811D01*
X128698580Y-143654328D01*
X128714922Y-143572171D01*
X128725500Y-143518995D01*
X130324499Y-143518995D01*
X130351418Y-143654322D01*
X130351421Y-143654332D01*
X130404221Y-143781804D01*
X130404228Y-143781817D01*
X130480885Y-143896541D01*
X130480888Y-143896545D01*
X130578454Y-143994111D01*
X130578458Y-143994114D01*
X130693182Y-144070771D01*
X130693195Y-144070778D01*
X130806264Y-144117612D01*
X130820672Y-144123580D01*
X130820676Y-144123580D01*
X130820677Y-144123581D01*
X130956004Y-144150500D01*
X130956007Y-144150500D01*
X131093995Y-144150500D01*
X131185041Y-144132389D01*
X131229328Y-144123580D01*
X131356811Y-144070775D01*
X131471542Y-143994114D01*
X131569114Y-143896542D01*
X131645775Y-143781811D01*
X131698580Y-143654328D01*
X131714922Y-143572171D01*
X131725500Y-143518995D01*
X131725500Y-143381004D01*
X131698581Y-143245677D01*
X131698580Y-143245676D01*
X131698580Y-143245672D01*
X131685080Y-143213080D01*
X131645778Y-143118195D01*
X131645771Y-143118182D01*
X131569114Y-143003458D01*
X131569111Y-143003454D01*
X131471545Y-142905888D01*
X131471541Y-142905885D01*
X131356817Y-142829228D01*
X131356804Y-142829221D01*
X131229332Y-142776421D01*
X131229322Y-142776418D01*
X131093995Y-142749500D01*
X131093993Y-142749500D01*
X130956007Y-142749500D01*
X130956005Y-142749500D01*
X130820677Y-142776418D01*
X130820667Y-142776421D01*
X130693195Y-142829221D01*
X130693182Y-142829228D01*
X130578458Y-142905885D01*
X130578454Y-142905888D01*
X130480888Y-143003454D01*
X130480885Y-143003458D01*
X130404228Y-143118182D01*
X130404221Y-143118195D01*
X130351421Y-143245667D01*
X130351418Y-143245677D01*
X130324500Y-143381004D01*
X130324500Y-143381007D01*
X130324500Y-143518993D01*
X130324500Y-143518995D01*
X130324499Y-143518995D01*
X128725500Y-143518995D01*
X128725500Y-143381004D01*
X128698581Y-143245677D01*
X128698580Y-143245676D01*
X128698580Y-143245672D01*
X128685080Y-143213080D01*
X128645778Y-143118195D01*
X128645771Y-143118182D01*
X128569114Y-143003458D01*
X128569111Y-143003454D01*
X128471545Y-142905888D01*
X128471541Y-142905885D01*
X128356817Y-142829228D01*
X128356804Y-142829221D01*
X128229332Y-142776421D01*
X128229322Y-142776418D01*
X128093995Y-142749500D01*
X128093993Y-142749500D01*
X127956007Y-142749500D01*
X127956005Y-142749500D01*
X127820677Y-142776418D01*
X127820667Y-142776421D01*
X127693195Y-142829221D01*
X127693182Y-142829228D01*
X127578458Y-142905885D01*
X127578454Y-142905888D01*
X127480888Y-143003454D01*
X127480885Y-143003458D01*
X127404228Y-143118182D01*
X127404221Y-143118195D01*
X127351421Y-143245667D01*
X127351418Y-143245677D01*
X127324500Y-143381004D01*
X127324500Y-143381007D01*
X127324500Y-143518993D01*
X127324500Y-143518995D01*
X127324499Y-143518995D01*
X122055025Y-143518995D01*
X122109361Y-143447342D01*
X122164877Y-143306564D01*
X122175500Y-143218102D01*
X122175500Y-141681898D01*
X122164877Y-141593436D01*
X122149771Y-141555131D01*
X135259300Y-141555131D01*
X135259300Y-143344856D01*
X135259302Y-143344882D01*
X135262213Y-143369987D01*
X135262215Y-143369991D01*
X135307593Y-143472764D01*
X135307594Y-143472765D01*
X135387035Y-143552206D01*
X135489809Y-143597585D01*
X135514935Y-143600500D01*
X137304664Y-143600499D01*
X137304679Y-143600497D01*
X137304682Y-143600497D01*
X137329787Y-143597586D01*
X137329788Y-143597585D01*
X137329791Y-143597585D01*
X137432565Y-143552206D01*
X137512006Y-143472765D01*
X137557385Y-143369991D01*
X137560300Y-143344865D01*
X137560299Y-143213076D01*
X137579983Y-143146040D01*
X137632787Y-143100285D01*
X137701945Y-143090341D01*
X137765501Y-143119365D01*
X137792295Y-143153600D01*
X137792629Y-143153396D01*
X137794407Y-143156297D01*
X137794777Y-143156770D01*
X137795173Y-143157547D01*
X137834528Y-143211716D01*
X138466837Y-142579408D01*
X138483875Y-142642993D01*
X138549701Y-142757007D01*
X138642793Y-142850099D01*
X138756807Y-142915925D01*
X138820390Y-142932962D01*
X138188082Y-143565269D01*
X138188082Y-143565270D01*
X138242249Y-143604624D01*
X138431582Y-143701095D01*
X138633670Y-143766757D01*
X138843554Y-143800000D01*
X139056046Y-143800000D01*
X139265927Y-143766757D01*
X139265930Y-143766757D01*
X139468017Y-143701095D01*
X139657354Y-143604622D01*
X139711516Y-143565270D01*
X139711517Y-143565270D01*
X139079208Y-142932962D01*
X139142793Y-142915925D01*
X139256807Y-142850099D01*
X139349899Y-142757007D01*
X139415725Y-142642993D01*
X139432762Y-142579408D01*
X140065070Y-143211717D01*
X140065070Y-143211716D01*
X140104422Y-143157554D01*
X140200895Y-142968217D01*
X140210292Y-142939295D01*
X140249728Y-142881618D01*
X140314086Y-142854419D01*
X140382933Y-142866331D01*
X140434410Y-142913574D01*
X140438708Y-142921314D01*
X140505804Y-143052995D01*
X140612241Y-143199494D01*
X140612245Y-143199499D01*
X140740300Y-143327554D01*
X140740305Y-143327558D01*
X140863268Y-143416895D01*
X140886806Y-143433996D01*
X140962894Y-143472765D01*
X141048160Y-143516211D01*
X141048163Y-143516212D01*
X141134276Y-143544191D01*
X141220391Y-143572171D01*
X141303229Y-143585291D01*
X141399249Y-143600500D01*
X141399254Y-143600500D01*
X141580351Y-143600500D01*
X141667059Y-143586765D01*
X141759209Y-143572171D01*
X141931439Y-143516211D01*
X142092794Y-143433996D01*
X142239301Y-143327553D01*
X142367353Y-143199501D01*
X142473796Y-143052994D01*
X142556011Y-142891639D01*
X142611971Y-142719409D01*
X142632081Y-142592441D01*
X142637327Y-142559321D01*
X142667256Y-142496186D01*
X142726568Y-142459255D01*
X142796430Y-142460253D01*
X142854663Y-142498863D01*
X142882273Y-142559321D01*
X142907629Y-142719410D01*
X142963587Y-142891636D01*
X142963588Y-142891639D01*
X143019464Y-143001300D01*
X143040045Y-143041692D01*
X143045806Y-143052997D01*
X143152241Y-143199494D01*
X143152245Y-143199499D01*
X143280300Y-143327554D01*
X143280305Y-143327558D01*
X143403268Y-143416895D01*
X143426806Y-143433996D01*
X143502894Y-143472765D01*
X143588160Y-143516211D01*
X143588163Y-143516212D01*
X143674276Y-143544191D01*
X143760391Y-143572171D01*
X143843229Y-143585291D01*
X143939249Y-143600500D01*
X143939254Y-143600500D01*
X144120351Y-143600500D01*
X144207059Y-143586765D01*
X144299209Y-143572171D01*
X144471439Y-143516211D01*
X144632794Y-143433996D01*
X144779301Y-143327553D01*
X144907353Y-143199501D01*
X145013796Y-143052994D01*
X145096011Y-142891639D01*
X145151971Y-142719409D01*
X145172081Y-142592441D01*
X145177327Y-142559321D01*
X145207256Y-142496186D01*
X145266568Y-142459255D01*
X145336430Y-142460253D01*
X145394663Y-142498863D01*
X145422273Y-142559321D01*
X145447629Y-142719410D01*
X145503587Y-142891636D01*
X145503588Y-142891639D01*
X145559464Y-143001300D01*
X145580045Y-143041692D01*
X145585806Y-143052997D01*
X145692241Y-143199494D01*
X145692245Y-143199499D01*
X145820300Y-143327554D01*
X145820305Y-143327558D01*
X145943268Y-143416895D01*
X145966806Y-143433996D01*
X146042894Y-143472765D01*
X146128160Y-143516211D01*
X146128163Y-143516212D01*
X146214276Y-143544191D01*
X146300391Y-143572171D01*
X146383229Y-143585291D01*
X146479249Y-143600500D01*
X146479254Y-143600500D01*
X146660351Y-143600500D01*
X146747059Y-143586765D01*
X146839209Y-143572171D01*
X147011439Y-143516211D01*
X147172794Y-143433996D01*
X147319301Y-143327553D01*
X147447353Y-143199501D01*
X147553796Y-143052994D01*
X147636011Y-142891639D01*
X147691971Y-142719409D01*
X147712081Y-142592441D01*
X147717327Y-142559321D01*
X147747256Y-142496186D01*
X147806568Y-142459255D01*
X147876430Y-142460253D01*
X147934663Y-142498863D01*
X147962273Y-142559321D01*
X147987629Y-142719410D01*
X148043587Y-142891636D01*
X148043588Y-142891639D01*
X148099464Y-143001300D01*
X148120045Y-143041692D01*
X148125806Y-143052997D01*
X148232241Y-143199494D01*
X148232245Y-143199499D01*
X148360300Y-143327554D01*
X148360305Y-143327558D01*
X148483268Y-143416895D01*
X148506806Y-143433996D01*
X148582894Y-143472765D01*
X148668160Y-143516211D01*
X148668163Y-143516212D01*
X148754276Y-143544191D01*
X148840391Y-143572171D01*
X148923229Y-143585291D01*
X149019249Y-143600500D01*
X149019254Y-143600500D01*
X149200351Y-143600500D01*
X149287059Y-143586765D01*
X149379209Y-143572171D01*
X149551439Y-143516211D01*
X149712794Y-143433996D01*
X149859301Y-143327553D01*
X149987353Y-143199501D01*
X150093796Y-143052994D01*
X150176011Y-142891639D01*
X150231971Y-142719409D01*
X150252081Y-142592441D01*
X150257327Y-142559321D01*
X150287256Y-142496186D01*
X150346568Y-142459255D01*
X150416430Y-142460253D01*
X150474663Y-142498863D01*
X150502273Y-142559321D01*
X150527629Y-142719410D01*
X150583587Y-142891636D01*
X150583588Y-142891639D01*
X150639464Y-143001300D01*
X150660045Y-143041692D01*
X150665806Y-143052997D01*
X150772241Y-143199494D01*
X150772245Y-143199499D01*
X150900300Y-143327554D01*
X150900305Y-143327558D01*
X151023268Y-143416895D01*
X151046806Y-143433996D01*
X151122894Y-143472765D01*
X151208160Y-143516211D01*
X151208163Y-143516212D01*
X151294276Y-143544191D01*
X151380391Y-143572171D01*
X151463229Y-143585291D01*
X151559249Y-143600500D01*
X151559254Y-143600500D01*
X151740351Y-143600500D01*
X151827059Y-143586765D01*
X151919209Y-143572171D01*
X152091439Y-143516211D01*
X152252794Y-143433996D01*
X152399301Y-143327553D01*
X152527353Y-143199501D01*
X152633796Y-143052994D01*
X152716011Y-142891639D01*
X152771971Y-142719409D01*
X152792081Y-142592441D01*
X152797327Y-142559321D01*
X152827256Y-142496186D01*
X152886568Y-142459255D01*
X152956430Y-142460253D01*
X153014663Y-142498863D01*
X153042273Y-142559321D01*
X153067629Y-142719410D01*
X153123587Y-142891636D01*
X153123588Y-142891639D01*
X153179464Y-143001300D01*
X153200045Y-143041692D01*
X153205806Y-143052997D01*
X153312241Y-143199494D01*
X153312245Y-143199499D01*
X153440300Y-143327554D01*
X153440305Y-143327558D01*
X153563268Y-143416895D01*
X153586806Y-143433996D01*
X153662894Y-143472765D01*
X153748160Y-143516211D01*
X153748163Y-143516212D01*
X153834276Y-143544191D01*
X153920391Y-143572171D01*
X154003229Y-143585291D01*
X154099249Y-143600500D01*
X154099254Y-143600500D01*
X154280351Y-143600500D01*
X154367059Y-143586765D01*
X154459209Y-143572171D01*
X154631439Y-143516211D01*
X154792794Y-143433996D01*
X154939301Y-143327553D01*
X155067353Y-143199501D01*
X155173796Y-143052994D01*
X155256011Y-142891639D01*
X155311971Y-142719409D01*
X155332081Y-142592441D01*
X155340300Y-142540551D01*
X155340300Y-142378711D01*
X163149500Y-142378711D01*
X163149500Y-142621288D01*
X163180191Y-142854419D01*
X163181162Y-142861789D01*
X163198815Y-142927669D01*
X163243947Y-143096104D01*
X163331122Y-143306563D01*
X163336776Y-143320212D01*
X163458064Y-143530289D01*
X163458066Y-143530292D01*
X163458067Y-143530293D01*
X163605733Y-143722736D01*
X163605739Y-143722743D01*
X163777256Y-143894260D01*
X163777263Y-143894266D01*
X163799900Y-143911636D01*
X163969711Y-144041936D01*
X164179788Y-144163224D01*
X164403900Y-144256054D01*
X164638211Y-144318838D01*
X164818586Y-144342584D01*
X164878711Y-144350500D01*
X164878712Y-144350500D01*
X165121289Y-144350500D01*
X165169388Y-144344167D01*
X165361789Y-144318838D01*
X165596100Y-144256054D01*
X165820212Y-144163224D01*
X166030289Y-144041936D01*
X166222738Y-143894265D01*
X166394265Y-143722738D01*
X166541936Y-143530289D01*
X166663224Y-143320212D01*
X166756054Y-143096100D01*
X166818838Y-142861789D01*
X166850500Y-142621288D01*
X166850500Y-142378712D01*
X166847710Y-142357523D01*
X166835085Y-142261621D01*
X166818838Y-142138211D01*
X166756054Y-141903900D01*
X166747546Y-141883361D01*
X166732486Y-141847002D01*
X166663224Y-141679788D01*
X166541936Y-141469711D01*
X166413564Y-141302413D01*
X166394266Y-141277263D01*
X166394260Y-141277256D01*
X166222743Y-141105739D01*
X166222736Y-141105733D01*
X166030293Y-140958067D01*
X166030292Y-140958066D01*
X166030289Y-140958064D01*
X165858661Y-140858974D01*
X165820214Y-140836777D01*
X165820205Y-140836773D01*
X165596104Y-140743947D01*
X165361785Y-140681161D01*
X165121289Y-140649500D01*
X165121288Y-140649500D01*
X164878712Y-140649500D01*
X164878711Y-140649500D01*
X164638214Y-140681161D01*
X164403895Y-140743947D01*
X164179794Y-140836773D01*
X164179785Y-140836777D01*
X163969706Y-140958067D01*
X163777263Y-141105733D01*
X163777256Y-141105739D01*
X163605739Y-141277256D01*
X163605733Y-141277263D01*
X163458067Y-141469706D01*
X163336777Y-141679785D01*
X163336773Y-141679794D01*
X163243947Y-141903895D01*
X163181161Y-142138214D01*
X163149500Y-142378711D01*
X155340300Y-142378711D01*
X155340300Y-142359448D01*
X155313219Y-142188473D01*
X155311971Y-142180591D01*
X155271356Y-142055589D01*
X155256012Y-142008363D01*
X155256011Y-142008360D01*
X155207929Y-141913996D01*
X155173796Y-141847006D01*
X155160196Y-141828287D01*
X155067358Y-141700505D01*
X155067354Y-141700500D01*
X154939299Y-141572445D01*
X154939294Y-141572441D01*
X154792797Y-141466006D01*
X154792796Y-141466005D01*
X154792794Y-141466004D01*
X154716706Y-141427235D01*
X154631439Y-141383788D01*
X154631436Y-141383787D01*
X154459210Y-141327829D01*
X154280351Y-141299500D01*
X154280346Y-141299500D01*
X154099254Y-141299500D01*
X154099249Y-141299500D01*
X153920389Y-141327829D01*
X153748163Y-141383787D01*
X153748160Y-141383788D01*
X153586802Y-141466006D01*
X153440305Y-141572441D01*
X153440300Y-141572445D01*
X153312245Y-141700500D01*
X153312241Y-141700505D01*
X153205806Y-141847002D01*
X153123588Y-142008360D01*
X153123587Y-142008363D01*
X153067629Y-142180589D01*
X153042273Y-142340678D01*
X153012344Y-142403813D01*
X152953032Y-142440744D01*
X152883169Y-142439746D01*
X152824937Y-142401136D01*
X152797327Y-142340678D01*
X152773219Y-142188473D01*
X152771971Y-142180591D01*
X152731356Y-142055589D01*
X152716012Y-142008363D01*
X152716011Y-142008360D01*
X152667929Y-141913996D01*
X152633796Y-141847006D01*
X152620196Y-141828287D01*
X152527358Y-141700505D01*
X152527354Y-141700500D01*
X152399299Y-141572445D01*
X152399294Y-141572441D01*
X152252797Y-141466006D01*
X152252796Y-141466005D01*
X152252794Y-141466004D01*
X152176706Y-141427235D01*
X152091439Y-141383788D01*
X152091436Y-141383787D01*
X151919210Y-141327829D01*
X151740351Y-141299500D01*
X151740346Y-141299500D01*
X151559254Y-141299500D01*
X151559249Y-141299500D01*
X151380389Y-141327829D01*
X151208163Y-141383787D01*
X151208160Y-141383788D01*
X151046802Y-141466006D01*
X150900305Y-141572441D01*
X150900300Y-141572445D01*
X150772245Y-141700500D01*
X150772241Y-141700505D01*
X150665806Y-141847002D01*
X150583588Y-142008360D01*
X150583587Y-142008363D01*
X150527629Y-142180589D01*
X150502273Y-142340678D01*
X150472344Y-142403813D01*
X150413032Y-142440744D01*
X150343169Y-142439746D01*
X150284937Y-142401136D01*
X150257327Y-142340678D01*
X150233219Y-142188473D01*
X150231971Y-142180591D01*
X150191356Y-142055589D01*
X150176012Y-142008363D01*
X150176011Y-142008360D01*
X150127929Y-141913996D01*
X150093796Y-141847006D01*
X150080196Y-141828287D01*
X149987358Y-141700505D01*
X149987354Y-141700500D01*
X149859299Y-141572445D01*
X149859294Y-141572441D01*
X149712797Y-141466006D01*
X149712796Y-141466005D01*
X149712794Y-141466004D01*
X149636706Y-141427235D01*
X149551439Y-141383788D01*
X149551436Y-141383787D01*
X149379210Y-141327829D01*
X149200351Y-141299500D01*
X149200346Y-141299500D01*
X149019254Y-141299500D01*
X149019249Y-141299500D01*
X148840389Y-141327829D01*
X148668163Y-141383787D01*
X148668160Y-141383788D01*
X148506802Y-141466006D01*
X148360305Y-141572441D01*
X148360300Y-141572445D01*
X148232245Y-141700500D01*
X148232241Y-141700505D01*
X148125806Y-141847002D01*
X148043588Y-142008360D01*
X148043587Y-142008363D01*
X147987629Y-142180589D01*
X147962273Y-142340678D01*
X147932344Y-142403813D01*
X147873032Y-142440744D01*
X147803169Y-142439746D01*
X147744937Y-142401136D01*
X147717327Y-142340678D01*
X147693219Y-142188473D01*
X147691971Y-142180591D01*
X147651356Y-142055589D01*
X147636012Y-142008363D01*
X147636011Y-142008360D01*
X147587929Y-141913996D01*
X147553796Y-141847006D01*
X147540196Y-141828287D01*
X147447358Y-141700505D01*
X147447354Y-141700500D01*
X147319299Y-141572445D01*
X147319294Y-141572441D01*
X147172797Y-141466006D01*
X147172796Y-141466005D01*
X147172794Y-141466004D01*
X147096706Y-141427235D01*
X147011439Y-141383788D01*
X147011436Y-141383787D01*
X146839210Y-141327829D01*
X146660351Y-141299500D01*
X146660346Y-141299500D01*
X146479254Y-141299500D01*
X146479249Y-141299500D01*
X146300389Y-141327829D01*
X146128163Y-141383787D01*
X146128160Y-141383788D01*
X145966802Y-141466006D01*
X145820305Y-141572441D01*
X145820300Y-141572445D01*
X145692245Y-141700500D01*
X145692241Y-141700505D01*
X145585806Y-141847002D01*
X145503588Y-142008360D01*
X145503587Y-142008363D01*
X145447629Y-142180589D01*
X145422273Y-142340678D01*
X145392344Y-142403813D01*
X145333032Y-142440744D01*
X145263169Y-142439746D01*
X145204937Y-142401136D01*
X145177327Y-142340678D01*
X145153219Y-142188473D01*
X145151971Y-142180591D01*
X145111356Y-142055589D01*
X145096012Y-142008363D01*
X145096011Y-142008360D01*
X145047929Y-141913996D01*
X145013796Y-141847006D01*
X145000196Y-141828287D01*
X144907358Y-141700505D01*
X144907354Y-141700500D01*
X144779299Y-141572445D01*
X144779294Y-141572441D01*
X144632797Y-141466006D01*
X144632796Y-141466005D01*
X144632794Y-141466004D01*
X144556706Y-141427235D01*
X144471439Y-141383788D01*
X144471436Y-141383787D01*
X144299210Y-141327829D01*
X144120351Y-141299500D01*
X144120346Y-141299500D01*
X143939254Y-141299500D01*
X143939249Y-141299500D01*
X143760389Y-141327829D01*
X143588163Y-141383787D01*
X143588160Y-141383788D01*
X143426802Y-141466006D01*
X143280305Y-141572441D01*
X143280300Y-141572445D01*
X143152245Y-141700500D01*
X143152241Y-141700505D01*
X143045806Y-141847002D01*
X142963588Y-142008360D01*
X142963587Y-142008363D01*
X142907629Y-142180589D01*
X142882273Y-142340678D01*
X142852344Y-142403813D01*
X142793032Y-142440744D01*
X142723169Y-142439746D01*
X142664937Y-142401136D01*
X142637327Y-142340678D01*
X142613219Y-142188473D01*
X142611971Y-142180591D01*
X142571356Y-142055589D01*
X142556012Y-142008363D01*
X142556011Y-142008360D01*
X142507929Y-141913996D01*
X142473796Y-141847006D01*
X142460196Y-141828287D01*
X142367358Y-141700505D01*
X142367354Y-141700500D01*
X142239299Y-141572445D01*
X142239294Y-141572441D01*
X142092797Y-141466006D01*
X142092796Y-141466005D01*
X142092794Y-141466004D01*
X142016706Y-141427235D01*
X141931439Y-141383788D01*
X141931436Y-141383787D01*
X141759210Y-141327829D01*
X141580351Y-141299500D01*
X141580346Y-141299500D01*
X141399254Y-141299500D01*
X141399249Y-141299500D01*
X141220389Y-141327829D01*
X141048163Y-141383787D01*
X141048160Y-141383788D01*
X140886802Y-141466006D01*
X140740305Y-141572441D01*
X140740300Y-141572445D01*
X140612245Y-141700500D01*
X140612241Y-141700505D01*
X140505804Y-141847004D01*
X140438708Y-141978685D01*
X140390733Y-142029480D01*
X140322912Y-142046275D01*
X140256777Y-142023737D01*
X140213327Y-141969021D01*
X140210292Y-141960705D01*
X140200894Y-141931780D01*
X140104424Y-141742449D01*
X140065070Y-141688282D01*
X140065069Y-141688282D01*
X139432762Y-142320590D01*
X139415725Y-142257007D01*
X139349899Y-142142993D01*
X139256807Y-142049901D01*
X139142793Y-141984075D01*
X139079209Y-141967037D01*
X139711516Y-141334728D01*
X139657350Y-141295375D01*
X139468017Y-141198904D01*
X139265929Y-141133242D01*
X139056046Y-141100000D01*
X138843554Y-141100000D01*
X138633672Y-141133242D01*
X138633669Y-141133242D01*
X138431582Y-141198904D01*
X138242239Y-141295380D01*
X138188082Y-141334727D01*
X138188082Y-141334728D01*
X138820391Y-141967037D01*
X138756807Y-141984075D01*
X138642793Y-142049901D01*
X138549701Y-142142993D01*
X138483875Y-142257007D01*
X138466837Y-142320591D01*
X137834528Y-141688282D01*
X137834527Y-141688282D01*
X137795180Y-141742440D01*
X137795177Y-141742445D01*
X137794781Y-141743223D01*
X137794552Y-141743464D01*
X137792638Y-141746590D01*
X137791980Y-141746187D01*
X137746804Y-141794017D01*
X137678983Y-141810809D01*
X137612849Y-141788268D01*
X137569400Y-141733551D01*
X137560299Y-141686923D01*
X137560299Y-141555143D01*
X137560299Y-141555136D01*
X137557732Y-141532997D01*
X137557386Y-141530012D01*
X137557385Y-141530011D01*
X137557385Y-141530009D01*
X137512006Y-141427235D01*
X137432565Y-141347794D01*
X137417187Y-141341004D01*
X137329792Y-141302415D01*
X137304665Y-141299500D01*
X135514943Y-141299500D01*
X135514917Y-141299502D01*
X135489812Y-141302413D01*
X135489808Y-141302415D01*
X135387035Y-141347793D01*
X135307594Y-141427234D01*
X135262215Y-141530006D01*
X135262215Y-141530008D01*
X135259300Y-141555131D01*
X122149771Y-141555131D01*
X122109361Y-141452658D01*
X122109360Y-141452657D01*
X122109360Y-141452656D01*
X122017922Y-141332077D01*
X121897343Y-141240639D01*
X121792793Y-141199410D01*
X121756564Y-141185123D01*
X121756563Y-141185122D01*
X121756561Y-141185122D01*
X121710926Y-141179642D01*
X121668102Y-141174500D01*
X120381898Y-141174500D01*
X120342853Y-141179188D01*
X120293438Y-141185122D01*
X120152656Y-141240639D01*
X120032077Y-141332077D01*
X119940639Y-141452656D01*
X119885122Y-141593438D01*
X119882240Y-141617442D01*
X119874500Y-141681898D01*
X119874500Y-141681903D01*
X119874500Y-141972330D01*
X119854815Y-142039369D01*
X119802011Y-142085124D01*
X119732853Y-142095068D01*
X119669297Y-142066043D01*
X119632569Y-142010648D01*
X119591212Y-141883363D01*
X119591211Y-141883360D01*
X119552585Y-141807554D01*
X119508996Y-141722006D01*
X119478321Y-141679785D01*
X119402558Y-141575505D01*
X119402554Y-141575500D01*
X119274499Y-141447445D01*
X119274494Y-141447441D01*
X119127997Y-141341006D01*
X119127996Y-141341005D01*
X119127994Y-141341004D01*
X119076300Y-141314664D01*
X118966639Y-141258788D01*
X118966636Y-141258787D01*
X118794410Y-141202829D01*
X118615551Y-141174500D01*
X118615546Y-141174500D01*
X118434454Y-141174500D01*
X118434449Y-141174500D01*
X118255589Y-141202829D01*
X118083363Y-141258787D01*
X118083360Y-141258788D01*
X117922002Y-141341006D01*
X117775505Y-141447441D01*
X117775500Y-141447445D01*
X117647445Y-141575500D01*
X117647441Y-141575505D01*
X117541006Y-141722002D01*
X117458788Y-141883360D01*
X117458787Y-141883363D01*
X117402829Y-142055589D01*
X117397473Y-142089406D01*
X117367543Y-142152540D01*
X117308232Y-142189471D01*
X117238369Y-142188473D01*
X117180137Y-142149863D01*
X117152527Y-142089406D01*
X117148826Y-142066043D01*
X117147171Y-142055591D01*
X117101164Y-141913993D01*
X117091212Y-141883363D01*
X117091211Y-141883360D01*
X117052585Y-141807554D01*
X117008996Y-141722006D01*
X116978321Y-141679785D01*
X116902558Y-141575505D01*
X116902554Y-141575500D01*
X116774499Y-141447445D01*
X116774494Y-141447441D01*
X116627997Y-141341006D01*
X116627996Y-141341005D01*
X116627994Y-141341004D01*
X116576300Y-141314664D01*
X116466639Y-141258788D01*
X116466636Y-141258787D01*
X116294410Y-141202829D01*
X116115551Y-141174500D01*
X116115546Y-141174500D01*
X115934454Y-141174500D01*
X115934449Y-141174500D01*
X115755589Y-141202829D01*
X115583363Y-141258787D01*
X115583360Y-141258788D01*
X115422002Y-141341006D01*
X115275505Y-141447441D01*
X115275500Y-141447445D01*
X115147445Y-141575500D01*
X115147441Y-141575505D01*
X115041004Y-141722004D01*
X114997435Y-141807512D01*
X114949460Y-141858307D01*
X114881639Y-141875102D01*
X114815504Y-141852564D01*
X114776466Y-141807511D01*
X114679620Y-141617442D01*
X114554727Y-141445540D01*
X114554723Y-141445535D01*
X114404464Y-141295276D01*
X114404459Y-141295272D01*
X114232557Y-141170379D01*
X114043215Y-141073903D01*
X113841124Y-141008241D01*
X113775000Y-140997768D01*
X113775000Y-142045854D01*
X113708343Y-142007370D01*
X113587535Y-141975000D01*
X113462465Y-141975000D01*
X113341657Y-142007370D01*
X113275000Y-142045854D01*
X113275000Y-140997768D01*
X113274999Y-140997768D01*
X113208875Y-141008241D01*
X113006784Y-141073903D01*
X112817442Y-141170379D01*
X112645540Y-141295272D01*
X112645535Y-141295276D01*
X112495276Y-141445535D01*
X112495272Y-141445540D01*
X112370379Y-141617442D01*
X112273904Y-141806782D01*
X112208242Y-142008869D01*
X112208242Y-142008872D01*
X112177970Y-142200000D01*
X107657148Y-142200000D01*
X107657275Y-142196795D01*
X107657753Y-142163370D01*
X107658649Y-142162017D01*
X107658714Y-142160395D01*
X107677895Y-142132989D01*
X107696363Y-142105137D01*
X107697874Y-142104446D01*
X107698779Y-142103154D01*
X107717531Y-142095469D01*
X107756821Y-142077527D01*
X107829324Y-142066043D01*
X107916909Y-142052171D01*
X108089139Y-141996211D01*
X108250494Y-141913996D01*
X108397001Y-141807553D01*
X108525053Y-141679501D01*
X108631496Y-141532994D01*
X108713711Y-141371639D01*
X108769671Y-141199409D01*
X108789549Y-141073903D01*
X108798000Y-141020551D01*
X108798000Y-140839448D01*
X108772929Y-140681162D01*
X108769671Y-140660591D01*
X108713711Y-140488361D01*
X108713711Y-140488360D01*
X108685240Y-140432484D01*
X108631496Y-140327006D01*
X108617896Y-140308287D01*
X108525058Y-140180505D01*
X108525054Y-140180500D01*
X108396999Y-140052445D01*
X108396994Y-140052441D01*
X108250495Y-139946004D01*
X108118814Y-139878908D01*
X108068019Y-139830934D01*
X108051224Y-139763113D01*
X108073762Y-139696978D01*
X108128477Y-139653527D01*
X108136795Y-139650492D01*
X108165717Y-139641095D01*
X108355054Y-139544622D01*
X108409216Y-139505270D01*
X108409217Y-139505270D01*
X107776908Y-138872962D01*
X107840493Y-138855925D01*
X107954507Y-138790099D01*
X108047599Y-138697007D01*
X108113425Y-138582993D01*
X108130462Y-138519408D01*
X108762770Y-139151717D01*
X108762770Y-139151716D01*
X108802122Y-139097554D01*
X108898595Y-138908217D01*
X108964257Y-138706130D01*
X108964257Y-138706127D01*
X108997500Y-138496246D01*
X108997500Y-138283753D01*
X108964257Y-138073872D01*
X108964257Y-138073869D01*
X108898595Y-137871782D01*
X108802124Y-137682449D01*
X108762770Y-137628282D01*
X108762769Y-137628282D01*
X108130462Y-138260590D01*
X108113425Y-138197007D01*
X108047599Y-138082993D01*
X107954507Y-137989901D01*
X107840493Y-137924075D01*
X107776909Y-137907037D01*
X108409216Y-137274728D01*
X108355050Y-137235375D01*
X108354286Y-137234986D01*
X108354046Y-137234759D01*
X108350896Y-137232829D01*
X108351301Y-137232167D01*
X108303488Y-137187013D01*
X108286691Y-137119192D01*
X108309226Y-137053057D01*
X108363940Y-137009604D01*
X108410576Y-137000499D01*
X108542364Y-137000499D01*
X108542379Y-137000497D01*
X108542382Y-137000497D01*
X108567487Y-136997586D01*
X108567488Y-136997585D01*
X108567491Y-136997585D01*
X108670265Y-136952206D01*
X108749706Y-136872765D01*
X108795085Y-136769991D01*
X108798000Y-136744865D01*
X108797999Y-134955136D01*
X108797997Y-134955117D01*
X108795086Y-134930012D01*
X108795085Y-134930010D01*
X108795085Y-134930009D01*
X108749706Y-134827235D01*
X108670265Y-134747794D01*
X108670263Y-134747793D01*
X108567492Y-134702415D01*
X108542365Y-134699500D01*
X106752643Y-134699500D01*
X106752617Y-134699502D01*
X106727512Y-134702413D01*
X106727508Y-134702415D01*
X106624735Y-134747793D01*
X106545294Y-134827234D01*
X106499915Y-134930006D01*
X106499915Y-134930008D01*
X106497000Y-134955131D01*
X106497000Y-136744856D01*
X106497002Y-136744882D01*
X106499913Y-136769987D01*
X106499915Y-136769991D01*
X106545293Y-136872764D01*
X106545294Y-136872765D01*
X106624735Y-136952206D01*
X106727509Y-136997585D01*
X106752635Y-137000500D01*
X106884423Y-137000499D01*
X106951460Y-137020183D01*
X106997215Y-137072987D01*
X107007159Y-137142145D01*
X106978135Y-137205701D01*
X106943887Y-137232507D01*
X106944090Y-137232838D01*
X106941215Y-137234599D01*
X106940739Y-137234972D01*
X106939951Y-137235373D01*
X106939940Y-137235380D01*
X106885782Y-137274727D01*
X106885782Y-137274728D01*
X107518091Y-137907037D01*
X107454507Y-137924075D01*
X107340493Y-137989901D01*
X107247401Y-138082993D01*
X107181575Y-138197007D01*
X107164537Y-138260591D01*
X106532228Y-137628282D01*
X106532227Y-137628282D01*
X106492880Y-137682439D01*
X106396404Y-137871782D01*
X106330742Y-138073869D01*
X106330742Y-138073872D01*
X106297500Y-138283753D01*
X99000500Y-138283753D01*
X99000500Y-133631898D01*
X161499500Y-133631898D01*
X161499500Y-135218102D01*
X161505126Y-135264954D01*
X161510122Y-135306561D01*
X161510122Y-135306563D01*
X161510123Y-135306564D01*
X161527722Y-135351192D01*
X161565639Y-135447343D01*
X161657077Y-135567922D01*
X161777656Y-135659360D01*
X161777657Y-135659360D01*
X161777658Y-135659361D01*
X161918436Y-135714877D01*
X162006898Y-135725500D01*
X162006903Y-135725500D01*
X163293097Y-135725500D01*
X163293102Y-135725500D01*
X163381564Y-135714877D01*
X163522342Y-135659361D01*
X163642922Y-135567922D01*
X163734361Y-135447342D01*
X163789877Y-135306564D01*
X163800500Y-135218102D01*
X163800500Y-134927669D01*
X163820185Y-134860630D01*
X163872989Y-134814875D01*
X163942147Y-134804931D01*
X164005703Y-134833956D01*
X164042431Y-134889351D01*
X164083787Y-135016636D01*
X164083788Y-135016639D01*
X164166006Y-135177997D01*
X164272441Y-135324494D01*
X164272445Y-135324499D01*
X164400500Y-135452554D01*
X164400505Y-135452558D01*
X164528287Y-135545396D01*
X164547006Y-135558996D01*
X164652484Y-135612740D01*
X164708360Y-135641211D01*
X164708363Y-135641212D01*
X164794476Y-135669191D01*
X164880591Y-135697171D01*
X164963429Y-135710291D01*
X165059449Y-135725500D01*
X165059454Y-135725500D01*
X165240551Y-135725500D01*
X165327259Y-135711765D01*
X165419409Y-135697171D01*
X165591639Y-135641211D01*
X165752994Y-135558996D01*
X165899501Y-135452553D01*
X166027553Y-135324501D01*
X166133996Y-135177994D01*
X166216211Y-135016639D01*
X166272171Y-134844409D01*
X166295122Y-134699502D01*
X166300500Y-134665551D01*
X166300500Y-134184448D01*
X166276608Y-134033608D01*
X166272171Y-134005591D01*
X166216211Y-133833361D01*
X166216211Y-133833360D01*
X166187740Y-133777484D01*
X166133996Y-133672006D01*
X166104856Y-133631898D01*
X166027558Y-133525505D01*
X166027554Y-133525500D01*
X165899499Y-133397445D01*
X165899494Y-133397441D01*
X165752997Y-133291006D01*
X165752996Y-133291005D01*
X165752994Y-133291004D01*
X165701300Y-133264664D01*
X165591639Y-133208788D01*
X165591636Y-133208787D01*
X165419410Y-133152829D01*
X165240551Y-133124500D01*
X165240546Y-133124500D01*
X165059454Y-133124500D01*
X165059449Y-133124500D01*
X164880589Y-133152829D01*
X164708363Y-133208787D01*
X164708360Y-133208788D01*
X164547002Y-133291006D01*
X164400505Y-133397441D01*
X164400500Y-133397445D01*
X164272445Y-133525500D01*
X164272441Y-133525505D01*
X164166006Y-133672002D01*
X164083788Y-133833360D01*
X164083787Y-133833363D01*
X164042431Y-133960648D01*
X164002994Y-134018323D01*
X163938635Y-134045522D01*
X163869789Y-134033608D01*
X163818313Y-133986364D01*
X163800500Y-133922330D01*
X163800500Y-133631903D01*
X163800500Y-133631898D01*
X163789877Y-133543436D01*
X163734361Y-133402658D01*
X163734360Y-133402657D01*
X163734360Y-133402656D01*
X163642922Y-133282077D01*
X163522343Y-133190639D01*
X163381561Y-133135122D01*
X163335926Y-133129642D01*
X163293102Y-133124500D01*
X162006898Y-133124500D01*
X161967853Y-133129188D01*
X161918438Y-133135122D01*
X161777656Y-133190639D01*
X161657077Y-133282077D01*
X161565639Y-133402656D01*
X161510122Y-133543438D01*
X161504188Y-133592853D01*
X161499500Y-133631898D01*
X99000500Y-133631898D01*
X99000500Y-129820000D01*
X100145138Y-129820000D01*
X100948012Y-129820000D01*
X100930795Y-129829940D01*
X100874940Y-129885795D01*
X100835444Y-129954204D01*
X100815000Y-130030504D01*
X100815000Y-130109496D01*
X100835444Y-130185796D01*
X100874940Y-130254205D01*
X100930795Y-130310060D01*
X100948012Y-130320000D01*
X100145138Y-130320000D01*
X100153430Y-130361690D01*
X100153430Y-130361692D01*
X100228807Y-130543671D01*
X100228814Y-130543684D01*
X100338248Y-130707462D01*
X100338251Y-130707466D01*
X100477533Y-130846748D01*
X100477537Y-130846751D01*
X100641315Y-130956185D01*
X100641328Y-130956192D01*
X100823306Y-131031569D01*
X100823318Y-131031572D01*
X101016504Y-131069999D01*
X101016508Y-131070000D01*
X101165000Y-131070000D01*
X101165000Y-130370000D01*
X101665000Y-130370000D01*
X101665000Y-131070000D01*
X101813492Y-131070000D01*
X101813495Y-131069999D01*
X102006681Y-131031572D01*
X102006693Y-131031569D01*
X102188671Y-130956192D01*
X102188684Y-130956185D01*
X102352462Y-130846751D01*
X102352466Y-130846748D01*
X102491748Y-130707466D01*
X102491751Y-130707462D01*
X102601185Y-130543684D01*
X102601192Y-130543671D01*
X102676569Y-130361692D01*
X102676569Y-130361690D01*
X102684862Y-130320000D01*
X101881988Y-130320000D01*
X101899205Y-130310060D01*
X101955060Y-130254205D01*
X101994556Y-130185796D01*
X102015000Y-130109496D01*
X102015000Y-130030504D01*
X101994556Y-129954204D01*
X101955060Y-129885795D01*
X101899205Y-129829940D01*
X101881988Y-129820000D01*
X102684862Y-129820000D01*
X104075138Y-129820000D01*
X104878012Y-129820000D01*
X104860795Y-129829940D01*
X104804940Y-129885795D01*
X104765444Y-129954204D01*
X104745000Y-130030504D01*
X104745000Y-130109496D01*
X104765444Y-130185796D01*
X104804940Y-130254205D01*
X104860795Y-130310060D01*
X104878012Y-130320000D01*
X104075138Y-130320000D01*
X104083430Y-130361690D01*
X104083430Y-130361692D01*
X104158807Y-130543671D01*
X104158814Y-130543684D01*
X104268248Y-130707462D01*
X104268251Y-130707466D01*
X104407533Y-130846748D01*
X104407537Y-130846751D01*
X104571315Y-130956185D01*
X104571328Y-130956192D01*
X104753306Y-131031569D01*
X104753318Y-131031572D01*
X104946504Y-131069999D01*
X104946508Y-131070000D01*
X105345000Y-131070000D01*
X105345000Y-130370000D01*
X105845000Y-130370000D01*
X105845000Y-131070000D01*
X106243492Y-131070000D01*
X106243495Y-131069999D01*
X106436681Y-131031572D01*
X106436693Y-131031569D01*
X106618671Y-130956192D01*
X106618684Y-130956185D01*
X106782462Y-130846751D01*
X106782466Y-130846748D01*
X106921748Y-130707466D01*
X106921751Y-130707462D01*
X107031185Y-130543684D01*
X107031192Y-130543671D01*
X107106569Y-130361692D01*
X107106569Y-130361690D01*
X107114862Y-130320000D01*
X106311988Y-130320000D01*
X106329205Y-130310060D01*
X106385060Y-130254205D01*
X106424556Y-130185796D01*
X106445000Y-130109496D01*
X106445000Y-130030504D01*
X106424556Y-129954204D01*
X106385060Y-129885795D01*
X106329205Y-129829940D01*
X106311988Y-129820000D01*
X107114862Y-129820000D01*
X107106569Y-129778309D01*
X107106569Y-129778307D01*
X107031192Y-129596328D01*
X107031185Y-129596315D01*
X106921751Y-129432537D01*
X106921748Y-129432533D01*
X106782466Y-129293251D01*
X106782462Y-129293248D01*
X106618684Y-129183814D01*
X106618671Y-129183807D01*
X106436693Y-129108430D01*
X106436681Y-129108427D01*
X106243495Y-129070000D01*
X105845000Y-129070000D01*
X105845000Y-129770000D01*
X105345000Y-129770000D01*
X105345000Y-129231784D01*
X105364685Y-129164745D01*
X105407000Y-129124397D01*
X105448365Y-129100515D01*
X105555515Y-128993365D01*
X105556372Y-128991879D01*
X105576721Y-128956637D01*
X105631279Y-128862138D01*
X105631281Y-128862135D01*
X105670500Y-128715766D01*
X105670500Y-128564234D01*
X105631281Y-128417865D01*
X105555515Y-128286635D01*
X105448365Y-128179485D01*
X105382750Y-128141602D01*
X105317136Y-128103719D01*
X105243950Y-128084109D01*
X105170766Y-128064500D01*
X105019234Y-128064500D01*
X104872863Y-128103719D01*
X104741635Y-128179485D01*
X104741632Y-128179487D01*
X104634487Y-128286632D01*
X104634485Y-128286635D01*
X104558719Y-128417863D01*
X104519500Y-128564234D01*
X104519500Y-128715765D01*
X104558719Y-128862136D01*
X104598153Y-128930437D01*
X104634485Y-128993365D01*
X104634486Y-128993366D01*
X104638549Y-129000403D01*
X104636346Y-129001674D01*
X104656959Y-129054983D01*
X104642923Y-129123428D01*
X104594112Y-129173420D01*
X104580845Y-129179866D01*
X104571324Y-129183809D01*
X104571315Y-129183814D01*
X104407537Y-129293248D01*
X104407533Y-129293251D01*
X104268251Y-129432533D01*
X104268248Y-129432537D01*
X104158814Y-129596315D01*
X104158807Y-129596328D01*
X104083430Y-129778307D01*
X104083430Y-129778309D01*
X104075138Y-129820000D01*
X102684862Y-129820000D01*
X102676569Y-129778309D01*
X102676569Y-129778307D01*
X102601192Y-129596328D01*
X102601185Y-129596315D01*
X102491751Y-129432537D01*
X102491748Y-129432533D01*
X102352466Y-129293251D01*
X102352462Y-129293248D01*
X102188684Y-129183814D01*
X102188671Y-129183807D01*
X102006693Y-129108430D01*
X102006681Y-129108427D01*
X101813495Y-129070000D01*
X101665000Y-129070000D01*
X101665000Y-129770000D01*
X101165000Y-129770000D01*
X101165000Y-129070000D01*
X101016504Y-129070000D01*
X100823318Y-129108427D01*
X100823306Y-129108430D01*
X100641328Y-129183807D01*
X100641315Y-129183814D01*
X100477537Y-129293248D01*
X100477533Y-129293251D01*
X100338251Y-129432533D01*
X100338248Y-129432537D01*
X100228814Y-129596315D01*
X100228807Y-129596328D01*
X100153430Y-129778307D01*
X100153430Y-129778309D01*
X100145138Y-129820000D01*
X99000500Y-129820000D01*
X99000500Y-121180000D01*
X100145138Y-121180000D01*
X100948012Y-121180000D01*
X100930795Y-121189940D01*
X100874940Y-121245795D01*
X100835444Y-121314204D01*
X100815000Y-121390504D01*
X100815000Y-121469496D01*
X100835444Y-121545796D01*
X100874940Y-121614205D01*
X100930795Y-121670060D01*
X100948012Y-121680000D01*
X100145138Y-121680000D01*
X100153430Y-121721690D01*
X100153430Y-121721692D01*
X100228807Y-121903671D01*
X100228814Y-121903684D01*
X100338248Y-122067462D01*
X100338251Y-122067466D01*
X100477533Y-122206748D01*
X100477537Y-122206751D01*
X100641315Y-122316185D01*
X100641328Y-122316192D01*
X100823306Y-122391569D01*
X100823318Y-122391572D01*
X101016504Y-122429999D01*
X101016508Y-122430000D01*
X101165000Y-122430000D01*
X101165000Y-121730000D01*
X101665000Y-121730000D01*
X101665000Y-122430000D01*
X101813492Y-122430000D01*
X101813495Y-122429999D01*
X102006681Y-122391572D01*
X102006693Y-122391569D01*
X102188671Y-122316192D01*
X102188684Y-122316185D01*
X102352462Y-122206751D01*
X102352466Y-122206748D01*
X102491748Y-122067466D01*
X102491751Y-122067462D01*
X102601185Y-121903684D01*
X102601192Y-121903671D01*
X102676569Y-121721692D01*
X102676569Y-121721690D01*
X102684862Y-121680000D01*
X101881988Y-121680000D01*
X101899205Y-121670060D01*
X101955060Y-121614205D01*
X101994556Y-121545796D01*
X102015000Y-121469496D01*
X102015000Y-121390504D01*
X101994556Y-121314204D01*
X101955060Y-121245795D01*
X101899205Y-121189940D01*
X101881988Y-121180000D01*
X102684862Y-121180000D01*
X104075138Y-121180000D01*
X104878012Y-121180000D01*
X104860795Y-121189940D01*
X104804940Y-121245795D01*
X104765444Y-121314204D01*
X104745000Y-121390504D01*
X104745000Y-121469496D01*
X104765444Y-121545796D01*
X104804940Y-121614205D01*
X104860795Y-121670060D01*
X104878012Y-121680000D01*
X104075138Y-121680000D01*
X104083430Y-121721690D01*
X104083430Y-121721692D01*
X104158807Y-121903671D01*
X104158814Y-121903684D01*
X104268248Y-122067462D01*
X104268251Y-122067466D01*
X104407533Y-122206748D01*
X104407537Y-122206751D01*
X104571315Y-122316185D01*
X104571328Y-122316192D01*
X104580838Y-122320131D01*
X104635243Y-122363970D01*
X104657310Y-122430264D01*
X104640033Y-122497963D01*
X104636350Y-122503405D01*
X104558719Y-122637863D01*
X104519500Y-122784234D01*
X104519500Y-122935765D01*
X104558719Y-123082136D01*
X104596602Y-123147750D01*
X104634485Y-123213365D01*
X104741635Y-123320515D01*
X104872865Y-123396281D01*
X105019234Y-123435500D01*
X105019236Y-123435500D01*
X105170764Y-123435500D01*
X105170766Y-123435500D01*
X105317135Y-123396281D01*
X105448365Y-123320515D01*
X105555515Y-123213365D01*
X105631281Y-123082135D01*
X105670500Y-122935766D01*
X105670500Y-122784234D01*
X105631281Y-122637865D01*
X105555515Y-122506635D01*
X105448365Y-122399485D01*
X105434654Y-122391569D01*
X105406998Y-122375601D01*
X105358784Y-122325033D01*
X105345000Y-122268215D01*
X105345000Y-121730000D01*
X105845000Y-121730000D01*
X105845000Y-122430000D01*
X106243492Y-122430000D01*
X106243495Y-122429999D01*
X106436681Y-122391572D01*
X106436693Y-122391569D01*
X106618671Y-122316192D01*
X106618684Y-122316185D01*
X106782462Y-122206751D01*
X106782466Y-122206748D01*
X106921748Y-122067466D01*
X106921751Y-122067462D01*
X107031185Y-121903684D01*
X107031192Y-121903671D01*
X107106569Y-121721692D01*
X107106569Y-121721690D01*
X107114862Y-121680000D01*
X106311988Y-121680000D01*
X106329205Y-121670060D01*
X106385060Y-121614205D01*
X106424556Y-121545796D01*
X106445000Y-121469496D01*
X106445000Y-121390504D01*
X106424556Y-121314204D01*
X106385060Y-121245795D01*
X106329205Y-121189940D01*
X106311988Y-121180000D01*
X107114862Y-121180000D01*
X107106569Y-121138309D01*
X107106569Y-121138307D01*
X107031192Y-120956328D01*
X107031185Y-120956315D01*
X106921751Y-120792537D01*
X106921748Y-120792533D01*
X106782466Y-120653251D01*
X106782462Y-120653248D01*
X106618684Y-120543814D01*
X106618671Y-120543807D01*
X106436693Y-120468430D01*
X106436681Y-120468427D01*
X106243495Y-120430000D01*
X105845000Y-120430000D01*
X105845000Y-121130000D01*
X105345000Y-121130000D01*
X105345000Y-120430000D01*
X104946504Y-120430000D01*
X104753318Y-120468427D01*
X104753306Y-120468430D01*
X104571328Y-120543807D01*
X104571315Y-120543814D01*
X104407537Y-120653248D01*
X104407533Y-120653251D01*
X104268251Y-120792533D01*
X104268248Y-120792537D01*
X104158814Y-120956315D01*
X104158807Y-120956328D01*
X104083430Y-121138307D01*
X104083430Y-121138309D01*
X104075138Y-121180000D01*
X102684862Y-121180000D01*
X102676569Y-121138309D01*
X102676569Y-121138307D01*
X102601192Y-120956328D01*
X102601185Y-120956315D01*
X102491751Y-120792537D01*
X102491748Y-120792533D01*
X102352466Y-120653251D01*
X102352462Y-120653248D01*
X102188684Y-120543814D01*
X102188671Y-120543807D01*
X102006693Y-120468430D01*
X102006681Y-120468427D01*
X101813495Y-120430000D01*
X101665000Y-120430000D01*
X101665000Y-121130000D01*
X101165000Y-121130000D01*
X101165000Y-120430000D01*
X101016504Y-120430000D01*
X100823318Y-120468427D01*
X100823306Y-120468430D01*
X100641328Y-120543807D01*
X100641315Y-120543814D01*
X100477537Y-120653248D01*
X100477533Y-120653251D01*
X100338251Y-120792533D01*
X100338248Y-120792537D01*
X100228814Y-120956315D01*
X100228807Y-120956328D01*
X100153430Y-121138307D01*
X100153430Y-121138309D01*
X100145138Y-121180000D01*
X99000500Y-121180000D01*
X99000500Y-113016071D01*
X132374499Y-113016071D01*
X132399497Y-113141738D01*
X132399499Y-113141744D01*
X132448533Y-113260124D01*
X132448538Y-113260133D01*
X132519723Y-113366668D01*
X132519726Y-113366672D01*
X132610327Y-113457273D01*
X132610331Y-113457276D01*
X132716866Y-113528461D01*
X132716872Y-113528464D01*
X132716873Y-113528465D01*
X132835256Y-113577501D01*
X132835260Y-113577501D01*
X132835261Y-113577502D01*
X132960928Y-113602500D01*
X132960931Y-113602500D01*
X133089071Y-113602500D01*
X133173615Y-113585682D01*
X133214744Y-113577501D01*
X133333127Y-113528465D01*
X133439669Y-113457276D01*
X133530276Y-113366669D01*
X133601465Y-113260127D01*
X133650501Y-113141744D01*
X133675500Y-113016069D01*
X133675500Y-112887931D01*
X133675500Y-112887928D01*
X133665781Y-112839071D01*
X155624499Y-112839071D01*
X155649497Y-112964738D01*
X155649499Y-112964744D01*
X155698533Y-113083124D01*
X155698538Y-113083133D01*
X155763102Y-113179759D01*
X155783980Y-113246437D01*
X155784000Y-113248650D01*
X155784000Y-116274549D01*
X155764315Y-116341588D01*
X155763102Y-116343439D01*
X155698541Y-116440061D01*
X155698533Y-116440075D01*
X155649499Y-116558455D01*
X155649497Y-116558461D01*
X155624500Y-116684128D01*
X155624500Y-116684131D01*
X155624500Y-116812269D01*
X155624500Y-116812271D01*
X155624499Y-116812271D01*
X155649497Y-116937938D01*
X155649499Y-116937944D01*
X155698533Y-117056324D01*
X155698538Y-117056333D01*
X155769723Y-117162868D01*
X155769726Y-117162872D01*
X155860327Y-117253473D01*
X155860331Y-117253476D01*
X155966866Y-117324661D01*
X155966872Y-117324664D01*
X155966873Y-117324665D01*
X156085256Y-117373701D01*
X156085260Y-117373701D01*
X156085261Y-117373702D01*
X156210928Y-117398700D01*
X156210931Y-117398700D01*
X156339071Y-117398700D01*
X156423615Y-117381882D01*
X156464744Y-117373701D01*
X156583127Y-117324665D01*
X156689669Y-117253476D01*
X156780276Y-117162869D01*
X156851465Y-117056327D01*
X156900501Y-116937944D01*
X156925500Y-116812269D01*
X156925500Y-116684131D01*
X156925500Y-116684128D01*
X156900502Y-116558461D01*
X156900501Y-116558460D01*
X156900501Y-116558456D01*
X156851465Y-116440073D01*
X156851464Y-116440071D01*
X156851458Y-116440061D01*
X156786898Y-116343439D01*
X156766020Y-116276762D01*
X156766000Y-116274549D01*
X156766000Y-113248650D01*
X156785685Y-113181611D01*
X156786898Y-113179759D01*
X156851461Y-113083133D01*
X156851461Y-113083132D01*
X156851465Y-113083127D01*
X156900501Y-112964744D01*
X156908682Y-112923615D01*
X156925500Y-112839071D01*
X156925500Y-112710928D01*
X156900502Y-112585261D01*
X156900501Y-112585260D01*
X156900501Y-112585256D01*
X156851465Y-112466873D01*
X156851464Y-112466872D01*
X156851461Y-112466866D01*
X156780276Y-112360331D01*
X156780273Y-112360327D01*
X156689672Y-112269726D01*
X156689668Y-112269723D01*
X156583133Y-112198538D01*
X156583124Y-112198533D01*
X156464744Y-112149499D01*
X156464738Y-112149497D01*
X156339071Y-112124500D01*
X156339069Y-112124500D01*
X156210931Y-112124500D01*
X156210929Y-112124500D01*
X156085261Y-112149497D01*
X156085255Y-112149499D01*
X155966875Y-112198533D01*
X155966866Y-112198538D01*
X155860331Y-112269723D01*
X155860327Y-112269726D01*
X155769726Y-112360327D01*
X155769723Y-112360331D01*
X155698538Y-112466866D01*
X155698533Y-112466875D01*
X155649499Y-112585255D01*
X155649497Y-112585261D01*
X155624500Y-112710928D01*
X155624500Y-112710931D01*
X155624500Y-112839069D01*
X155624500Y-112839071D01*
X155624499Y-112839071D01*
X133665781Y-112839071D01*
X133650502Y-112762261D01*
X133650501Y-112762260D01*
X133650501Y-112762256D01*
X133629241Y-112710931D01*
X133601466Y-112643876D01*
X133601466Y-112643875D01*
X133601465Y-112643873D01*
X133601463Y-112643870D01*
X133601461Y-112643866D01*
X133526892Y-112532266D01*
X133527990Y-112531531D01*
X133503333Y-112473464D01*
X133502500Y-112459117D01*
X133502500Y-110993807D01*
X133522185Y-110926768D01*
X133538820Y-110906125D01*
X133580273Y-110864672D01*
X133580276Y-110864669D01*
X133651465Y-110758127D01*
X133700501Y-110639744D01*
X133725500Y-110514069D01*
X133725500Y-110385931D01*
X133725500Y-110385928D01*
X133700502Y-110260261D01*
X133700501Y-110260260D01*
X133700501Y-110260256D01*
X133651465Y-110141873D01*
X133651464Y-110141872D01*
X133651461Y-110141866D01*
X133580276Y-110035331D01*
X133580273Y-110035327D01*
X133489672Y-109944726D01*
X133489668Y-109944723D01*
X133383133Y-109873538D01*
X133383124Y-109873533D01*
X133264744Y-109824499D01*
X133264738Y-109824497D01*
X133139071Y-109799500D01*
X133139069Y-109799500D01*
X133010931Y-109799500D01*
X133010929Y-109799500D01*
X132885261Y-109824497D01*
X132885255Y-109824499D01*
X132766875Y-109873533D01*
X132766866Y-109873538D01*
X132660331Y-109944723D01*
X132660327Y-109944726D01*
X132569726Y-110035327D01*
X132569723Y-110035331D01*
X132498538Y-110141866D01*
X132498533Y-110141875D01*
X132449499Y-110260255D01*
X132449497Y-110260261D01*
X132424500Y-110385928D01*
X132424500Y-110385931D01*
X132424500Y-110514069D01*
X132424500Y-110514071D01*
X132424499Y-110514071D01*
X132449497Y-110639738D01*
X132449499Y-110639744D01*
X132498533Y-110758124D01*
X132498538Y-110758133D01*
X132569723Y-110864668D01*
X132569726Y-110864672D01*
X132611180Y-110906125D01*
X132644666Y-110967448D01*
X132647500Y-110993807D01*
X132647500Y-112358192D01*
X132627815Y-112425231D01*
X132611181Y-112445873D01*
X132519726Y-112537327D01*
X132519723Y-112537331D01*
X132448538Y-112643866D01*
X132448533Y-112643875D01*
X132399499Y-112762255D01*
X132399497Y-112762261D01*
X132374500Y-112887928D01*
X132374500Y-112887931D01*
X132374500Y-113016069D01*
X132374500Y-113016071D01*
X132374499Y-113016071D01*
X99000500Y-113016071D01*
X99000500Y-103029448D01*
X101709500Y-103029448D01*
X101709500Y-103210551D01*
X101737829Y-103389410D01*
X101793787Y-103561636D01*
X101793788Y-103561639D01*
X101876006Y-103722997D01*
X101982441Y-103869494D01*
X101982445Y-103869499D01*
X102110500Y-103997554D01*
X102110505Y-103997558D01*
X102138427Y-104017844D01*
X102257006Y-104103996D01*
X102362484Y-104157740D01*
X102418360Y-104186211D01*
X102418363Y-104186212D01*
X102497997Y-104212086D01*
X102590591Y-104242171D01*
X102663639Y-104253740D01*
X102750678Y-104267527D01*
X102813813Y-104297456D01*
X102850744Y-104356768D01*
X102849746Y-104426631D01*
X102811136Y-104484863D01*
X102750678Y-104512473D01*
X102590589Y-104537829D01*
X102418363Y-104593787D01*
X102418360Y-104593788D01*
X102257002Y-104676006D01*
X102110505Y-104782441D01*
X102110500Y-104782445D01*
X101982445Y-104910500D01*
X101982441Y-104910505D01*
X101876006Y-105057002D01*
X101793788Y-105218360D01*
X101793787Y-105218363D01*
X101737829Y-105390589D01*
X101709500Y-105569448D01*
X101709500Y-105750551D01*
X101737829Y-105929410D01*
X101793787Y-106101636D01*
X101793788Y-106101639D01*
X101876006Y-106262997D01*
X101982441Y-106409494D01*
X101982445Y-106409499D01*
X102110500Y-106537554D01*
X102110505Y-106537558D01*
X102238287Y-106630396D01*
X102257006Y-106643996D01*
X102362484Y-106697740D01*
X102418360Y-106726211D01*
X102418363Y-106726212D01*
X102504476Y-106754191D01*
X102590591Y-106782171D01*
X102663639Y-106793740D01*
X102750678Y-106807527D01*
X102813813Y-106837456D01*
X102850744Y-106896768D01*
X102849746Y-106966631D01*
X102811136Y-107024863D01*
X102750678Y-107052473D01*
X102590589Y-107077829D01*
X102418363Y-107133787D01*
X102418360Y-107133788D01*
X102257002Y-107216006D01*
X102110505Y-107322441D01*
X102110500Y-107322445D01*
X101982445Y-107450500D01*
X101982441Y-107450505D01*
X101876006Y-107597002D01*
X101793788Y-107758360D01*
X101793787Y-107758363D01*
X101737829Y-107930589D01*
X101709500Y-108109448D01*
X101709500Y-108290551D01*
X101737829Y-108469410D01*
X101793787Y-108641636D01*
X101793788Y-108641639D01*
X101876006Y-108802997D01*
X101982441Y-108949494D01*
X101982445Y-108949499D01*
X102110500Y-109077554D01*
X102110505Y-109077558D01*
X102238287Y-109170396D01*
X102257006Y-109183996D01*
X102362484Y-109237740D01*
X102418360Y-109266211D01*
X102418363Y-109266212D01*
X102504476Y-109294191D01*
X102590591Y-109322171D01*
X102663639Y-109333740D01*
X102750678Y-109347527D01*
X102813813Y-109377456D01*
X102850744Y-109436768D01*
X102849746Y-109506631D01*
X102811136Y-109564863D01*
X102750678Y-109592473D01*
X102590589Y-109617829D01*
X102418363Y-109673787D01*
X102418360Y-109673788D01*
X102257002Y-109756006D01*
X102110505Y-109862441D01*
X102110500Y-109862445D01*
X101982445Y-109990500D01*
X101982441Y-109990505D01*
X101876006Y-110137002D01*
X101793788Y-110298360D01*
X101793787Y-110298363D01*
X101737829Y-110470589D01*
X101709500Y-110649448D01*
X101709500Y-110830551D01*
X101737829Y-111009410D01*
X101793787Y-111181636D01*
X101793788Y-111181639D01*
X101876006Y-111342997D01*
X101982441Y-111489494D01*
X101982445Y-111489499D01*
X102110500Y-111617554D01*
X102110505Y-111617558D01*
X102238287Y-111710396D01*
X102257006Y-111723996D01*
X102362484Y-111777740D01*
X102418360Y-111806211D01*
X102418363Y-111806212D01*
X102504476Y-111834191D01*
X102590591Y-111862171D01*
X102673429Y-111875291D01*
X102769449Y-111890500D01*
X102769454Y-111890500D01*
X102950551Y-111890500D01*
X103037259Y-111876765D01*
X103129409Y-111862171D01*
X103301639Y-111806211D01*
X103462994Y-111723996D01*
X103609501Y-111617553D01*
X103737553Y-111489501D01*
X103843996Y-111342994D01*
X103926211Y-111181639D01*
X103982171Y-111009409D01*
X103998530Y-110906125D01*
X104007527Y-110849321D01*
X104037456Y-110786186D01*
X104096768Y-110749255D01*
X104166630Y-110750253D01*
X104224863Y-110788863D01*
X104252473Y-110849321D01*
X104277829Y-111009410D01*
X104333787Y-111181636D01*
X104333788Y-111181639D01*
X104416006Y-111342997D01*
X104522441Y-111489494D01*
X104522445Y-111489499D01*
X104650500Y-111617554D01*
X104650505Y-111617558D01*
X104778287Y-111710396D01*
X104797006Y-111723996D01*
X104902484Y-111777740D01*
X104958360Y-111806211D01*
X104958363Y-111806212D01*
X105044476Y-111834191D01*
X105130591Y-111862171D01*
X105213429Y-111875291D01*
X105309449Y-111890500D01*
X105309454Y-111890500D01*
X105490551Y-111890500D01*
X105577259Y-111876765D01*
X105669409Y-111862171D01*
X105841639Y-111806211D01*
X106002994Y-111723996D01*
X106149501Y-111617553D01*
X106277553Y-111489501D01*
X106383996Y-111342994D01*
X106466211Y-111181639D01*
X106522171Y-111009409D01*
X106545095Y-110864672D01*
X106550500Y-110830551D01*
X106550500Y-110649448D01*
X106534019Y-110545397D01*
X106522171Y-110470591D01*
X106466211Y-110298361D01*
X106466211Y-110298360D01*
X106437740Y-110242484D01*
X106383996Y-110137006D01*
X106370396Y-110118287D01*
X106277558Y-109990505D01*
X106277554Y-109990500D01*
X106149499Y-109862445D01*
X106149494Y-109862441D01*
X106002997Y-109756006D01*
X106002996Y-109756005D01*
X106002994Y-109756004D01*
X105951300Y-109729664D01*
X105841639Y-109673788D01*
X105841636Y-109673787D01*
X105669410Y-109617829D01*
X105509321Y-109592473D01*
X105446186Y-109562544D01*
X105409255Y-109503232D01*
X105410253Y-109433370D01*
X105448863Y-109375137D01*
X105509321Y-109347527D01*
X105579425Y-109336422D01*
X105669409Y-109322171D01*
X105841639Y-109266211D01*
X106002994Y-109183996D01*
X106149501Y-109077553D01*
X106277553Y-108949501D01*
X106383996Y-108802994D01*
X106466211Y-108641639D01*
X106522171Y-108469409D01*
X106536765Y-108377259D01*
X106550500Y-108290551D01*
X106550500Y-108109448D01*
X106534019Y-108005397D01*
X106522171Y-107930591D01*
X106466211Y-107758361D01*
X106466211Y-107758360D01*
X106437740Y-107702484D01*
X106383996Y-107597006D01*
X106370396Y-107578287D01*
X106277558Y-107450505D01*
X106277554Y-107450500D01*
X106149499Y-107322445D01*
X106149494Y-107322441D01*
X106002997Y-107216006D01*
X106002996Y-107216005D01*
X106002994Y-107216004D01*
X105951300Y-107189664D01*
X105841639Y-107133788D01*
X105841636Y-107133787D01*
X105669410Y-107077829D01*
X105509321Y-107052473D01*
X105446186Y-107022544D01*
X105409255Y-106963232D01*
X105410253Y-106893370D01*
X105448863Y-106835137D01*
X105509321Y-106807527D01*
X105579425Y-106796422D01*
X105669409Y-106782171D01*
X105841639Y-106726211D01*
X106002994Y-106643996D01*
X106149501Y-106537553D01*
X106277553Y-106409501D01*
X106383996Y-106262994D01*
X106466211Y-106101639D01*
X106522171Y-105929409D01*
X106536765Y-105837259D01*
X106550500Y-105750551D01*
X106550500Y-105569448D01*
X106534019Y-105465397D01*
X106522171Y-105390591D01*
X106466211Y-105218361D01*
X106466211Y-105218360D01*
X106427861Y-105143096D01*
X106383996Y-105057006D01*
X106370396Y-105038287D01*
X106277558Y-104910505D01*
X106277554Y-104910500D01*
X106149495Y-104782441D01*
X106028202Y-104694318D01*
X105985536Y-104638989D01*
X105979557Y-104569375D01*
X106012162Y-104507580D01*
X106073001Y-104473223D01*
X106101087Y-104470000D01*
X106297828Y-104470000D01*
X106297844Y-104469999D01*
X106357372Y-104463598D01*
X106357379Y-104463596D01*
X106492086Y-104413354D01*
X106492093Y-104413350D01*
X106607187Y-104327190D01*
X106607190Y-104327187D01*
X106693350Y-104212093D01*
X106693354Y-104212086D01*
X106731635Y-104109448D01*
X161449500Y-104109448D01*
X161449500Y-104590551D01*
X161477829Y-104769410D01*
X161533787Y-104941636D01*
X161533788Y-104941639D01*
X161616006Y-105102997D01*
X161722441Y-105249494D01*
X161722445Y-105249499D01*
X161850500Y-105377554D01*
X161850505Y-105377558D01*
X161868444Y-105390591D01*
X161997006Y-105483996D01*
X162102484Y-105537740D01*
X162158360Y-105566211D01*
X162158363Y-105566212D01*
X162244476Y-105594191D01*
X162330591Y-105622171D01*
X162413429Y-105635291D01*
X162509449Y-105650500D01*
X162509454Y-105650500D01*
X162690551Y-105650500D01*
X162777259Y-105636765D01*
X162869409Y-105622171D01*
X163041639Y-105566211D01*
X163202994Y-105483996D01*
X163349501Y-105377553D01*
X163477553Y-105249501D01*
X163583996Y-105102994D01*
X163666211Y-104941639D01*
X163707569Y-104814351D01*
X163747006Y-104756676D01*
X163811364Y-104729477D01*
X163880211Y-104741391D01*
X163931687Y-104788635D01*
X163949500Y-104852669D01*
X163949500Y-105143102D01*
X163955126Y-105189954D01*
X163960122Y-105231561D01*
X163960122Y-105231563D01*
X163960123Y-105231564D01*
X163977722Y-105276192D01*
X164015639Y-105372343D01*
X164107077Y-105492922D01*
X164227656Y-105584360D01*
X164227657Y-105584360D01*
X164227658Y-105584361D01*
X164368436Y-105639877D01*
X164456898Y-105650500D01*
X164456903Y-105650500D01*
X165743097Y-105650500D01*
X165743102Y-105650500D01*
X165831564Y-105639877D01*
X165972342Y-105584361D01*
X166092922Y-105492922D01*
X166184361Y-105372342D01*
X166239877Y-105231564D01*
X166250500Y-105143102D01*
X166250500Y-103556898D01*
X166239877Y-103468436D01*
X166184361Y-103327658D01*
X166184360Y-103327657D01*
X166184360Y-103327656D01*
X166092922Y-103207077D01*
X165972343Y-103115639D01*
X165831561Y-103060122D01*
X165782024Y-103054174D01*
X165743102Y-103049500D01*
X164456898Y-103049500D01*
X164417976Y-103054174D01*
X164368438Y-103060122D01*
X164227656Y-103115639D01*
X164107077Y-103207077D01*
X164015639Y-103327656D01*
X163960122Y-103468438D01*
X163954188Y-103517853D01*
X163949500Y-103556898D01*
X163949500Y-103556903D01*
X163949500Y-103847330D01*
X163929815Y-103914369D01*
X163877011Y-103960124D01*
X163807853Y-103970068D01*
X163744297Y-103941043D01*
X163707569Y-103885648D01*
X163666212Y-103758363D01*
X163666211Y-103758360D01*
X163636249Y-103699557D01*
X163583996Y-103597006D01*
X163528120Y-103520099D01*
X163477558Y-103450505D01*
X163477554Y-103450500D01*
X163349499Y-103322445D01*
X163349494Y-103322441D01*
X163202997Y-103216006D01*
X163202996Y-103216005D01*
X163202994Y-103216004D01*
X163143767Y-103185826D01*
X163041639Y-103133788D01*
X163041636Y-103133787D01*
X162869410Y-103077829D01*
X162690551Y-103049500D01*
X162690546Y-103049500D01*
X162509454Y-103049500D01*
X162509449Y-103049500D01*
X162330589Y-103077829D01*
X162158363Y-103133787D01*
X162158360Y-103133788D01*
X161997002Y-103216006D01*
X161850505Y-103322441D01*
X161850500Y-103322445D01*
X161722445Y-103450500D01*
X161722441Y-103450505D01*
X161616006Y-103597002D01*
X161533788Y-103758360D01*
X161533787Y-103758363D01*
X161477829Y-103930589D01*
X161449500Y-104109448D01*
X106731635Y-104109448D01*
X106743596Y-104077379D01*
X106743598Y-104077372D01*
X106749999Y-104017844D01*
X106750000Y-104017827D01*
X106750000Y-103370000D01*
X105833012Y-103370000D01*
X105865925Y-103312993D01*
X105900000Y-103185826D01*
X105900000Y-103054174D01*
X105865925Y-102927007D01*
X105833012Y-102870000D01*
X106750000Y-102870000D01*
X106750000Y-102222172D01*
X106749999Y-102222155D01*
X106743598Y-102162627D01*
X106743596Y-102162620D01*
X106693354Y-102027913D01*
X106693350Y-102027906D01*
X106607190Y-101912812D01*
X106607187Y-101912809D01*
X106492093Y-101826649D01*
X106492086Y-101826645D01*
X106357379Y-101776403D01*
X106357372Y-101776401D01*
X106297844Y-101770000D01*
X105650000Y-101770000D01*
X105650000Y-102686988D01*
X105592993Y-102654075D01*
X105465826Y-102620000D01*
X105334174Y-102620000D01*
X105207007Y-102654075D01*
X105150000Y-102686988D01*
X105150000Y-101770000D01*
X104502155Y-101770000D01*
X104442627Y-101776401D01*
X104442620Y-101776403D01*
X104307913Y-101826645D01*
X104307906Y-101826649D01*
X104192812Y-101912809D01*
X104192809Y-101912812D01*
X104106649Y-102027906D01*
X104106645Y-102027913D01*
X104056403Y-102162620D01*
X104056401Y-102162627D01*
X104050000Y-102222155D01*
X104050000Y-102418912D01*
X104030315Y-102485951D01*
X103977511Y-102531706D01*
X103908353Y-102541650D01*
X103844797Y-102512625D01*
X103825682Y-102491797D01*
X103737558Y-102370505D01*
X103737554Y-102370500D01*
X103609499Y-102242445D01*
X103609494Y-102242441D01*
X103462997Y-102136006D01*
X103462996Y-102136005D01*
X103462994Y-102136004D01*
X103411300Y-102109664D01*
X103301639Y-102053788D01*
X103301636Y-102053787D01*
X103129410Y-101997829D01*
X102950551Y-101969500D01*
X102950546Y-101969500D01*
X102769454Y-101969500D01*
X102769449Y-101969500D01*
X102590589Y-101997829D01*
X102418363Y-102053787D01*
X102418360Y-102053788D01*
X102257002Y-102136006D01*
X102110505Y-102242441D01*
X102110500Y-102242445D01*
X101982445Y-102370500D01*
X101982441Y-102370505D01*
X101876006Y-102517002D01*
X101793788Y-102678360D01*
X101793787Y-102678363D01*
X101737829Y-102850589D01*
X101709500Y-103029448D01*
X99000500Y-103029448D01*
X99000500Y-100393995D01*
X126999499Y-100393995D01*
X127026418Y-100529322D01*
X127026421Y-100529332D01*
X127079221Y-100656804D01*
X127079228Y-100656817D01*
X127155885Y-100771541D01*
X127155888Y-100771545D01*
X127253454Y-100869111D01*
X127253458Y-100869114D01*
X127368182Y-100945771D01*
X127368195Y-100945778D01*
X127495667Y-100998578D01*
X127495672Y-100998580D01*
X127495676Y-100998580D01*
X127495677Y-100998581D01*
X127631004Y-101025500D01*
X127631007Y-101025500D01*
X127768995Y-101025500D01*
X127860041Y-101007389D01*
X127904328Y-100998580D01*
X128031811Y-100945775D01*
X128146542Y-100869114D01*
X128244114Y-100771542D01*
X128320775Y-100656811D01*
X128373580Y-100529328D01*
X128400500Y-100393993D01*
X128400500Y-100256007D01*
X128400500Y-100256004D01*
X128373581Y-100120677D01*
X128373580Y-100120676D01*
X128373580Y-100120672D01*
X128373578Y-100120667D01*
X128320778Y-99993195D01*
X128320771Y-99993182D01*
X128244114Y-99878458D01*
X128244111Y-99878454D01*
X128146545Y-99780888D01*
X128146541Y-99780885D01*
X128031817Y-99704228D01*
X128031804Y-99704221D01*
X127904332Y-99651421D01*
X127904322Y-99651418D01*
X127768995Y-99624500D01*
X127768993Y-99624500D01*
X127631007Y-99624500D01*
X127631005Y-99624500D01*
X127495677Y-99651418D01*
X127495667Y-99651421D01*
X127368195Y-99704221D01*
X127368182Y-99704228D01*
X127253458Y-99780885D01*
X127253454Y-99780888D01*
X127155888Y-99878454D01*
X127155885Y-99878458D01*
X127079228Y-99993182D01*
X127079221Y-99993195D01*
X127026421Y-100120667D01*
X127026418Y-100120677D01*
X126999500Y-100256004D01*
X126999500Y-100256007D01*
X126999500Y-100393993D01*
X126999500Y-100393995D01*
X126999499Y-100393995D01*
X99000500Y-100393995D01*
X99000500Y-94503245D01*
X99000670Y-94496756D01*
X99006856Y-94378711D01*
X100149500Y-94378711D01*
X100149500Y-94621288D01*
X100181161Y-94861785D01*
X100243947Y-95096104D01*
X100336773Y-95320205D01*
X100336777Y-95320214D01*
X100336813Y-95320276D01*
X100458064Y-95530289D01*
X100458066Y-95530292D01*
X100458067Y-95530293D01*
X100605733Y-95722736D01*
X100605739Y-95722743D01*
X100777256Y-95894260D01*
X100777262Y-95894265D01*
X100969711Y-96041936D01*
X101179788Y-96163224D01*
X101403900Y-96256054D01*
X101638211Y-96318838D01*
X101818586Y-96342584D01*
X101878711Y-96350500D01*
X101878712Y-96350500D01*
X102121289Y-96350500D01*
X102169388Y-96344167D01*
X102361789Y-96318838D01*
X102596100Y-96256054D01*
X102820212Y-96163224D01*
X103030289Y-96041936D01*
X103222738Y-95894265D01*
X103394265Y-95722738D01*
X103406419Y-95706898D01*
X108149500Y-95706898D01*
X108149500Y-97243102D01*
X108154005Y-97280617D01*
X108160122Y-97331561D01*
X108160122Y-97331563D01*
X108160123Y-97331564D01*
X108177722Y-97376192D01*
X108215639Y-97472343D01*
X108307077Y-97592922D01*
X108427656Y-97684360D01*
X108427657Y-97684360D01*
X108427658Y-97684361D01*
X108568436Y-97739877D01*
X108656898Y-97750500D01*
X108656903Y-97750500D01*
X109943097Y-97750500D01*
X109943102Y-97750500D01*
X110031564Y-97739877D01*
X110172342Y-97684361D01*
X110292922Y-97592922D01*
X110384361Y-97472342D01*
X110435433Y-97342832D01*
X110478338Y-97287690D01*
X110544246Y-97264497D01*
X110612230Y-97280617D01*
X110651105Y-97315439D01*
X110770272Y-97479459D01*
X110770276Y-97479464D01*
X110920535Y-97629723D01*
X110920540Y-97629727D01*
X111092442Y-97754620D01*
X111281782Y-97851095D01*
X111483871Y-97916757D01*
X111550000Y-97927231D01*
X111550000Y-96879145D01*
X111616657Y-96917630D01*
X111737465Y-96950000D01*
X111862535Y-96950000D01*
X111983343Y-96917630D01*
X112050000Y-96879145D01*
X112050000Y-97927230D01*
X112116126Y-97916757D01*
X112116129Y-97916757D01*
X112318217Y-97851095D01*
X112507557Y-97754620D01*
X112679459Y-97629727D01*
X112679464Y-97629723D01*
X112829723Y-97479464D01*
X112829727Y-97479459D01*
X112954620Y-97307558D01*
X113051466Y-97117488D01*
X113099440Y-97066692D01*
X113167261Y-97049897D01*
X113233396Y-97072434D01*
X113272435Y-97117488D01*
X113316002Y-97202992D01*
X113316003Y-97202993D01*
X113422441Y-97349494D01*
X113422445Y-97349499D01*
X113550500Y-97477554D01*
X113550505Y-97477558D01*
X113621767Y-97529332D01*
X113697006Y-97583996D01*
X113786750Y-97629723D01*
X113858360Y-97666211D01*
X113858363Y-97666212D01*
X113944476Y-97694191D01*
X114030591Y-97722171D01*
X114113429Y-97735291D01*
X114209449Y-97750500D01*
X114209454Y-97750500D01*
X114390551Y-97750500D01*
X114477259Y-97736765D01*
X114569409Y-97722171D01*
X114741639Y-97666211D01*
X114902994Y-97583996D01*
X115049501Y-97477553D01*
X115177553Y-97349501D01*
X115283996Y-97202994D01*
X115366211Y-97041639D01*
X115422171Y-96869409D01*
X115427527Y-96835594D01*
X115457456Y-96772459D01*
X115516768Y-96735528D01*
X115586630Y-96736526D01*
X115644863Y-96775136D01*
X115672473Y-96835594D01*
X115677829Y-96869410D01*
X115733787Y-97041636D01*
X115733788Y-97041639D01*
X115774061Y-97120677D01*
X115816003Y-97202993D01*
X115816006Y-97202997D01*
X115922441Y-97349494D01*
X115922445Y-97349499D01*
X116050500Y-97477554D01*
X116050505Y-97477558D01*
X116121767Y-97529332D01*
X116197006Y-97583996D01*
X116286750Y-97629723D01*
X116358360Y-97666211D01*
X116358363Y-97666212D01*
X116444476Y-97694191D01*
X116530591Y-97722171D01*
X116613429Y-97735291D01*
X116709449Y-97750500D01*
X116709454Y-97750500D01*
X116890551Y-97750500D01*
X116977259Y-97736765D01*
X117069409Y-97722171D01*
X117241639Y-97666211D01*
X117402994Y-97583996D01*
X117549501Y-97477553D01*
X117677553Y-97349501D01*
X117783996Y-97202994D01*
X117866211Y-97041639D01*
X117922171Y-96869409D01*
X117927527Y-96835594D01*
X117957456Y-96772459D01*
X118016768Y-96735528D01*
X118086630Y-96736526D01*
X118144863Y-96775136D01*
X118172473Y-96835594D01*
X118177829Y-96869410D01*
X118233787Y-97041636D01*
X118233788Y-97041639D01*
X118274061Y-97120677D01*
X118316003Y-97202993D01*
X118316006Y-97202997D01*
X118422441Y-97349494D01*
X118422445Y-97349499D01*
X118550500Y-97477554D01*
X118550505Y-97477558D01*
X118621767Y-97529332D01*
X118697006Y-97583996D01*
X118786750Y-97629723D01*
X118858360Y-97666211D01*
X118858363Y-97666212D01*
X118944476Y-97694191D01*
X119030591Y-97722171D01*
X119113429Y-97735291D01*
X119209449Y-97750500D01*
X119209454Y-97750500D01*
X119390551Y-97750500D01*
X119477259Y-97736765D01*
X119569409Y-97722171D01*
X119741639Y-97666211D01*
X119902994Y-97583996D01*
X120049501Y-97477553D01*
X120133059Y-97393995D01*
X126999499Y-97393995D01*
X127026418Y-97529322D01*
X127026421Y-97529332D01*
X127079221Y-97656804D01*
X127079228Y-97656817D01*
X127155885Y-97771541D01*
X127155888Y-97771545D01*
X127253454Y-97869111D01*
X127253458Y-97869114D01*
X127368182Y-97945771D01*
X127368195Y-97945778D01*
X127495667Y-97998578D01*
X127495672Y-97998580D01*
X127495676Y-97998580D01*
X127495677Y-97998581D01*
X127631004Y-98025500D01*
X127631007Y-98025500D01*
X127768995Y-98025500D01*
X127860041Y-98007389D01*
X127904328Y-97998580D01*
X128031811Y-97945775D01*
X128146542Y-97869114D01*
X128244114Y-97771542D01*
X128320775Y-97656811D01*
X128373580Y-97529328D01*
X128400500Y-97393993D01*
X128400500Y-97256007D01*
X128400500Y-97256004D01*
X128373581Y-97120677D01*
X128373580Y-97120676D01*
X128373580Y-97120672D01*
X128340844Y-97041639D01*
X128320778Y-96993195D01*
X128320771Y-96993182D01*
X128244114Y-96878458D01*
X128244111Y-96878454D01*
X128146545Y-96780888D01*
X128146541Y-96780885D01*
X128031817Y-96704228D01*
X128031804Y-96704221D01*
X127904332Y-96651421D01*
X127904322Y-96651418D01*
X127768995Y-96624500D01*
X127768993Y-96624500D01*
X127631007Y-96624500D01*
X127631005Y-96624500D01*
X127495677Y-96651418D01*
X127495667Y-96651421D01*
X127368195Y-96704221D01*
X127368182Y-96704228D01*
X127253458Y-96780885D01*
X127253454Y-96780888D01*
X127155888Y-96878454D01*
X127155885Y-96878458D01*
X127079228Y-96993182D01*
X127079221Y-96993195D01*
X127026421Y-97120667D01*
X127026418Y-97120677D01*
X126999500Y-97256004D01*
X126999500Y-97256007D01*
X126999500Y-97393993D01*
X126999500Y-97393995D01*
X126999499Y-97393995D01*
X120133059Y-97393995D01*
X120177553Y-97349501D01*
X120283996Y-97202994D01*
X120366211Y-97041639D01*
X120422171Y-96869409D01*
X120443376Y-96735528D01*
X120450500Y-96690551D01*
X120450500Y-96259448D01*
X120434019Y-96155397D01*
X120422171Y-96080591D01*
X120366211Y-95908361D01*
X120366211Y-95908360D01*
X120288035Y-95754933D01*
X120288034Y-95754931D01*
X120283995Y-95747004D01*
X120177558Y-95600505D01*
X120177554Y-95600500D01*
X120049499Y-95472445D01*
X120049494Y-95472441D01*
X119902997Y-95366006D01*
X119902996Y-95366005D01*
X119902994Y-95366004D01*
X119853603Y-95340837D01*
X119741639Y-95283788D01*
X119741636Y-95283787D01*
X119618420Y-95243753D01*
X154150000Y-95243753D01*
X154150000Y-95250000D01*
X155066988Y-95250000D01*
X155034075Y-95307007D01*
X155000000Y-95434174D01*
X155000000Y-95565826D01*
X155034075Y-95692993D01*
X155066988Y-95750000D01*
X154150000Y-95750000D01*
X154150000Y-95756246D01*
X154183242Y-95966127D01*
X154183242Y-95966130D01*
X154248904Y-96168217D01*
X154345379Y-96357557D01*
X154470272Y-96529459D01*
X154470276Y-96529464D01*
X154620535Y-96679723D01*
X154620540Y-96679727D01*
X154792442Y-96804620D01*
X154981782Y-96901095D01*
X155183871Y-96966757D01*
X155250000Y-96977231D01*
X155250000Y-95933012D01*
X155307007Y-95965925D01*
X155434174Y-96000000D01*
X155565826Y-96000000D01*
X155692993Y-95965925D01*
X155750000Y-95933012D01*
X155750000Y-96977230D01*
X155816126Y-96966757D01*
X155816129Y-96966757D01*
X156018217Y-96901095D01*
X156207557Y-96804620D01*
X156379459Y-96679727D01*
X156379464Y-96679723D01*
X156529721Y-96529466D01*
X156648893Y-96365439D01*
X156704223Y-96322773D01*
X156773836Y-96316794D01*
X156835632Y-96349399D01*
X156864566Y-96392833D01*
X156915638Y-96522341D01*
X157007077Y-96642922D01*
X157127656Y-96734360D01*
X157127657Y-96734360D01*
X157127658Y-96734361D01*
X157268436Y-96789877D01*
X157356898Y-96800500D01*
X157356903Y-96800500D01*
X158643097Y-96800500D01*
X158643102Y-96800500D01*
X158731564Y-96789877D01*
X158872342Y-96734361D01*
X158992922Y-96642922D01*
X159084361Y-96522342D01*
X159139877Y-96381564D01*
X159150500Y-96293102D01*
X159150500Y-94706898D01*
X159139877Y-94618436D01*
X159084361Y-94477658D01*
X159009327Y-94378711D01*
X163149500Y-94378711D01*
X163149500Y-94621288D01*
X163181161Y-94861785D01*
X163243947Y-95096104D01*
X163336773Y-95320205D01*
X163336777Y-95320214D01*
X163336813Y-95320276D01*
X163458064Y-95530289D01*
X163458066Y-95530292D01*
X163458067Y-95530293D01*
X163605733Y-95722736D01*
X163605739Y-95722743D01*
X163777256Y-95894260D01*
X163777262Y-95894265D01*
X163969711Y-96041936D01*
X164179788Y-96163224D01*
X164403900Y-96256054D01*
X164638211Y-96318838D01*
X164818586Y-96342584D01*
X164878711Y-96350500D01*
X164878712Y-96350500D01*
X165121289Y-96350500D01*
X165169388Y-96344167D01*
X165361789Y-96318838D01*
X165596100Y-96256054D01*
X165820212Y-96163224D01*
X166030289Y-96041936D01*
X166222738Y-95894265D01*
X166394265Y-95722738D01*
X166541936Y-95530289D01*
X166663224Y-95320212D01*
X166756054Y-95096100D01*
X166818838Y-94861789D01*
X166850500Y-94621288D01*
X166850500Y-94378712D01*
X166818838Y-94138211D01*
X166756054Y-93903900D01*
X166663224Y-93679788D01*
X166541936Y-93469711D01*
X166394265Y-93277262D01*
X166394260Y-93277256D01*
X166222743Y-93105739D01*
X166222736Y-93105733D01*
X166030293Y-92958067D01*
X166030292Y-92958066D01*
X166030289Y-92958064D01*
X165820212Y-92836776D01*
X165820205Y-92836773D01*
X165596104Y-92743947D01*
X165361785Y-92681161D01*
X165121289Y-92649500D01*
X165121288Y-92649500D01*
X164878712Y-92649500D01*
X164878711Y-92649500D01*
X164638214Y-92681161D01*
X164403895Y-92743947D01*
X164179794Y-92836773D01*
X164179785Y-92836777D01*
X163969706Y-92958067D01*
X163777263Y-93105733D01*
X163777256Y-93105739D01*
X163605739Y-93277256D01*
X163605733Y-93277263D01*
X163458067Y-93469706D01*
X163336777Y-93679785D01*
X163336773Y-93679794D01*
X163243947Y-93903895D01*
X163181161Y-94138214D01*
X163149500Y-94378711D01*
X159009327Y-94378711D01*
X158992922Y-94357078D01*
X158992920Y-94357077D01*
X158992920Y-94357076D01*
X158872343Y-94265639D01*
X158731561Y-94210122D01*
X158685926Y-94204642D01*
X158643102Y-94199500D01*
X157356898Y-94199500D01*
X157317853Y-94204188D01*
X157268438Y-94210122D01*
X157127656Y-94265639D01*
X157007077Y-94357077D01*
X156915638Y-94477658D01*
X156864566Y-94607166D01*
X156821660Y-94662309D01*
X156755752Y-94685502D01*
X156687768Y-94669381D01*
X156648894Y-94634560D01*
X156529727Y-94470540D01*
X156529723Y-94470535D01*
X156379464Y-94320276D01*
X156379459Y-94320272D01*
X156207557Y-94195379D01*
X156018215Y-94098903D01*
X155816124Y-94033241D01*
X155750000Y-94022768D01*
X155750000Y-95066988D01*
X155692993Y-95034075D01*
X155565826Y-95000000D01*
X155434174Y-95000000D01*
X155307007Y-95034075D01*
X155250000Y-95066988D01*
X155250000Y-94022768D01*
X155249999Y-94022768D01*
X155183875Y-94033241D01*
X154981784Y-94098903D01*
X154792442Y-94195379D01*
X154620540Y-94320272D01*
X154620535Y-94320276D01*
X154470276Y-94470535D01*
X154470272Y-94470540D01*
X154345379Y-94642442D01*
X154248904Y-94831782D01*
X154183242Y-95033869D01*
X154183242Y-95033872D01*
X154150000Y-95243753D01*
X119618420Y-95243753D01*
X119569410Y-95227829D01*
X119390551Y-95199500D01*
X119390546Y-95199500D01*
X119209454Y-95199500D01*
X119209449Y-95199500D01*
X119030589Y-95227829D01*
X118858363Y-95283787D01*
X118858360Y-95283788D01*
X118697002Y-95366006D01*
X118550505Y-95472441D01*
X118550500Y-95472445D01*
X118422445Y-95600500D01*
X118422441Y-95600505D01*
X118316006Y-95747002D01*
X118233788Y-95908360D01*
X118233787Y-95908363D01*
X118177829Y-96080589D01*
X118172473Y-96114406D01*
X118142543Y-96177540D01*
X118083232Y-96214471D01*
X118013369Y-96213473D01*
X117955137Y-96174863D01*
X117927527Y-96114406D01*
X117924438Y-96094905D01*
X117922171Y-96080591D01*
X117866211Y-95908361D01*
X117866211Y-95908360D01*
X117814568Y-95807007D01*
X117783996Y-95747006D01*
X117754856Y-95706898D01*
X117677558Y-95600505D01*
X117677554Y-95600500D01*
X117549499Y-95472445D01*
X117549494Y-95472441D01*
X117402997Y-95366006D01*
X117402996Y-95366005D01*
X117402994Y-95366004D01*
X117351300Y-95339664D01*
X117241639Y-95283788D01*
X117241636Y-95283787D01*
X117069410Y-95227829D01*
X116890551Y-95199500D01*
X116890546Y-95199500D01*
X116709454Y-95199500D01*
X116709449Y-95199500D01*
X116530589Y-95227829D01*
X116358363Y-95283787D01*
X116358360Y-95283788D01*
X116197002Y-95366006D01*
X116050505Y-95472441D01*
X116050500Y-95472445D01*
X115922445Y-95600500D01*
X115922441Y-95600505D01*
X115816006Y-95747002D01*
X115733788Y-95908360D01*
X115733787Y-95908363D01*
X115677829Y-96080589D01*
X115672473Y-96114406D01*
X115642543Y-96177540D01*
X115583232Y-96214471D01*
X115513369Y-96213473D01*
X115455137Y-96174863D01*
X115427527Y-96114406D01*
X115424438Y-96094905D01*
X115422171Y-96080591D01*
X115366211Y-95908361D01*
X115366211Y-95908360D01*
X115314568Y-95807007D01*
X115283996Y-95747006D01*
X115254856Y-95706898D01*
X115177558Y-95600505D01*
X115177554Y-95600500D01*
X115049499Y-95472445D01*
X115049494Y-95472441D01*
X114902997Y-95366006D01*
X114902996Y-95366005D01*
X114902994Y-95366004D01*
X114851300Y-95339664D01*
X114741639Y-95283788D01*
X114741636Y-95283787D01*
X114569410Y-95227829D01*
X114390551Y-95199500D01*
X114390546Y-95199500D01*
X114209454Y-95199500D01*
X114209449Y-95199500D01*
X114030589Y-95227829D01*
X113858363Y-95283787D01*
X113858360Y-95283788D01*
X113697002Y-95366006D01*
X113550505Y-95472441D01*
X113550500Y-95472445D01*
X113422445Y-95600500D01*
X113422441Y-95600505D01*
X113316004Y-95747004D01*
X113272435Y-95832512D01*
X113224460Y-95883307D01*
X113156639Y-95900102D01*
X113090504Y-95877564D01*
X113051466Y-95832511D01*
X112954620Y-95642442D01*
X112829727Y-95470540D01*
X112829723Y-95470535D01*
X112679464Y-95320276D01*
X112679459Y-95320272D01*
X112507557Y-95195379D01*
X112318215Y-95098903D01*
X112116124Y-95033241D01*
X112050000Y-95022768D01*
X112050000Y-96070854D01*
X111983343Y-96032370D01*
X111862535Y-96000000D01*
X111737465Y-96000000D01*
X111616657Y-96032370D01*
X111550000Y-96070854D01*
X111550000Y-95022768D01*
X111549999Y-95022768D01*
X111483875Y-95033241D01*
X111281784Y-95098903D01*
X111092442Y-95195379D01*
X110920540Y-95320272D01*
X110920535Y-95320276D01*
X110770276Y-95470535D01*
X110770272Y-95470540D01*
X110651105Y-95634560D01*
X110595775Y-95677226D01*
X110526162Y-95683205D01*
X110464367Y-95650599D01*
X110435433Y-95607165D01*
X110384362Y-95477660D01*
X110384361Y-95477658D01*
X110292922Y-95357077D01*
X110172343Y-95265639D01*
X110031561Y-95210122D01*
X109985926Y-95204642D01*
X109943102Y-95199500D01*
X108656898Y-95199500D01*
X108617853Y-95204188D01*
X108568438Y-95210122D01*
X108427656Y-95265639D01*
X108307077Y-95357077D01*
X108215639Y-95477656D01*
X108160122Y-95618438D01*
X108154188Y-95667853D01*
X108149500Y-95706898D01*
X103406419Y-95706898D01*
X103449619Y-95650599D01*
X103467186Y-95627706D01*
X103494485Y-95592127D01*
X103541936Y-95530289D01*
X103663224Y-95320212D01*
X103756054Y-95096100D01*
X103818838Y-94861789D01*
X103850500Y-94621288D01*
X103850500Y-94378712D01*
X103818838Y-94138211D01*
X103756054Y-93903900D01*
X103663224Y-93679788D01*
X103541936Y-93469711D01*
X103394265Y-93277262D01*
X103394260Y-93277256D01*
X103222743Y-93105739D01*
X103222736Y-93105733D01*
X103030293Y-92958067D01*
X103030292Y-92958066D01*
X103030289Y-92958064D01*
X102820212Y-92836776D01*
X102820205Y-92836773D01*
X102596104Y-92743947D01*
X102361785Y-92681161D01*
X102121289Y-92649500D01*
X102121288Y-92649500D01*
X101878712Y-92649500D01*
X101878711Y-92649500D01*
X101638214Y-92681161D01*
X101403895Y-92743947D01*
X101179794Y-92836773D01*
X101179785Y-92836777D01*
X100969706Y-92958067D01*
X100777263Y-93105733D01*
X100777256Y-93105739D01*
X100605739Y-93277256D01*
X100605733Y-93277263D01*
X100458067Y-93469706D01*
X100336777Y-93679785D01*
X100336773Y-93679794D01*
X100243947Y-93903895D01*
X100181161Y-94138214D01*
X100149500Y-94378711D01*
X99006856Y-94378711D01*
X99007409Y-94368164D01*
X99007990Y-94357076D01*
X99016591Y-94192936D01*
X99017945Y-94180064D01*
X99065030Y-93882783D01*
X99067723Y-93870107D01*
X99145627Y-93579367D01*
X99149636Y-93567032D01*
X99186996Y-93469706D01*
X99257493Y-93286054D01*
X99262763Y-93274215D01*
X99399419Y-93006014D01*
X99405885Y-92994815D01*
X99569824Y-92742371D01*
X99577426Y-92731908D01*
X99766858Y-92497978D01*
X99775525Y-92488353D01*
X99988353Y-92275525D01*
X99997978Y-92266858D01*
X100231908Y-92077426D01*
X100242371Y-92069824D01*
X100494815Y-91905885D01*
X100506014Y-91899419D01*
X100774215Y-91762763D01*
X100786054Y-91757493D01*
X101067039Y-91649633D01*
X101079367Y-91645627D01*
X101370107Y-91567723D01*
X101382783Y-91565030D01*
X101680064Y-91517945D01*
X101692936Y-91516591D01*
X101996756Y-91500669D01*
X102003245Y-91500500D01*
X102065892Y-91500500D01*
X164934108Y-91500500D01*
X164996755Y-91500500D01*
X165003243Y-91500669D01*
G37*
%TD.AperFunction*%
%TD*%
M02*
