%TF.GenerationSoftware,KiCad,Pcbnew,10.0.1*%
%TF.CreationDate,2026-05-03T15:47:04-06:00*%
%TF.ProjectId,2Wheel_Robot,32576865-656c-45f5-926f-626f742e6b69,rev?*%
%TF.SameCoordinates,Original*%
%TF.FileFunction,Legend,Bot*%
%TF.FilePolarity,Positive*%
%FSLAX46Y46*%
G04 Gerber Fmt 4.6, Leading zero omitted, Abs format (unit mm)*
G04 Created by KiCad (PCBNEW 10.0.1) date 2026-05-03 15:47:04*
%MOMM*%
%LPD*%
G01*
G04 APERTURE LIST*
%ADD10C,0.100000*%
%ADD11C,0.000000*%
G04 APERTURE END LIST*
D10*
X123496115Y-125342587D02*
X123496115Y-124342587D01*
X123496115Y-124342587D02*
X123162782Y-125056872D01*
X123162782Y-125056872D02*
X122829449Y-124342587D01*
X122829449Y-124342587D02*
X122829449Y-125342587D01*
X122353258Y-125342587D02*
X122353258Y-124675920D01*
X122353258Y-124342587D02*
X122400877Y-124390206D01*
X122400877Y-124390206D02*
X122353258Y-124437825D01*
X122353258Y-124437825D02*
X122305639Y-124390206D01*
X122305639Y-124390206D02*
X122353258Y-124342587D01*
X122353258Y-124342587D02*
X122353258Y-124437825D01*
X121448497Y-125294968D02*
X121543735Y-125342587D01*
X121543735Y-125342587D02*
X121734211Y-125342587D01*
X121734211Y-125342587D02*
X121829449Y-125294968D01*
X121829449Y-125294968D02*
X121877068Y-125247348D01*
X121877068Y-125247348D02*
X121924687Y-125152110D01*
X121924687Y-125152110D02*
X121924687Y-124866396D01*
X121924687Y-124866396D02*
X121877068Y-124771158D01*
X121877068Y-124771158D02*
X121829449Y-124723539D01*
X121829449Y-124723539D02*
X121734211Y-124675920D01*
X121734211Y-124675920D02*
X121543735Y-124675920D01*
X121543735Y-124675920D02*
X121448497Y-124723539D01*
X121019925Y-125342587D02*
X121019925Y-124342587D01*
X120591354Y-125342587D02*
X120591354Y-124818777D01*
X120591354Y-124818777D02*
X120638973Y-124723539D01*
X120638973Y-124723539D02*
X120734211Y-124675920D01*
X120734211Y-124675920D02*
X120877068Y-124675920D01*
X120877068Y-124675920D02*
X120972306Y-124723539D01*
X120972306Y-124723539D02*
X121019925Y-124771158D01*
X119686592Y-125342587D02*
X119686592Y-124818777D01*
X119686592Y-124818777D02*
X119734211Y-124723539D01*
X119734211Y-124723539D02*
X119829449Y-124675920D01*
X119829449Y-124675920D02*
X120019925Y-124675920D01*
X120019925Y-124675920D02*
X120115163Y-124723539D01*
X119686592Y-125294968D02*
X119781830Y-125342587D01*
X119781830Y-125342587D02*
X120019925Y-125342587D01*
X120019925Y-125342587D02*
X120115163Y-125294968D01*
X120115163Y-125294968D02*
X120162782Y-125199729D01*
X120162782Y-125199729D02*
X120162782Y-125104491D01*
X120162782Y-125104491D02*
X120115163Y-125009253D01*
X120115163Y-125009253D02*
X120019925Y-124961634D01*
X120019925Y-124961634D02*
X119781830Y-124961634D01*
X119781830Y-124961634D02*
X119686592Y-124914015D01*
X118829449Y-125294968D02*
X118924687Y-125342587D01*
X118924687Y-125342587D02*
X119115163Y-125342587D01*
X119115163Y-125342587D02*
X119210401Y-125294968D01*
X119210401Y-125294968D02*
X119258020Y-125199729D01*
X119258020Y-125199729D02*
X119258020Y-124818777D01*
X119258020Y-124818777D02*
X119210401Y-124723539D01*
X119210401Y-124723539D02*
X119115163Y-124675920D01*
X119115163Y-124675920D02*
X118924687Y-124675920D01*
X118924687Y-124675920D02*
X118829449Y-124723539D01*
X118829449Y-124723539D02*
X118781830Y-124818777D01*
X118781830Y-124818777D02*
X118781830Y-124914015D01*
X118781830Y-124914015D02*
X119258020Y-125009253D01*
X118210401Y-125342587D02*
X118305639Y-125294968D01*
X118305639Y-125294968D02*
X118353258Y-125199729D01*
X118353258Y-125199729D02*
X118353258Y-124342587D01*
X117067543Y-125342587D02*
X117067543Y-124342587D01*
X116496115Y-125342587D02*
X116924686Y-124771158D01*
X116496115Y-124342587D02*
X117067543Y-124914015D01*
X115638972Y-124675920D02*
X115638972Y-125342587D01*
X116067543Y-124675920D02*
X116067543Y-125199729D01*
X116067543Y-125199729D02*
X116019924Y-125294968D01*
X116019924Y-125294968D02*
X115924686Y-125342587D01*
X115924686Y-125342587D02*
X115781829Y-125342587D01*
X115781829Y-125342587D02*
X115686591Y-125294968D01*
X115686591Y-125294968D02*
X115638972Y-125247348D01*
X115162781Y-125342587D02*
X115162781Y-124675920D01*
X115162781Y-124866396D02*
X115115162Y-124771158D01*
X115115162Y-124771158D02*
X115067543Y-124723539D01*
X115067543Y-124723539D02*
X114972305Y-124675920D01*
X114972305Y-124675920D02*
X114877067Y-124675920D01*
X114686590Y-124675920D02*
X114305638Y-124675920D01*
X114543733Y-124342587D02*
X114543733Y-125199729D01*
X114543733Y-125199729D02*
X114496114Y-125294968D01*
X114496114Y-125294968D02*
X114400876Y-125342587D01*
X114400876Y-125342587D02*
X114305638Y-125342587D01*
X113543733Y-125342587D02*
X113543733Y-124818777D01*
X113543733Y-124818777D02*
X113591352Y-124723539D01*
X113591352Y-124723539D02*
X113686590Y-124675920D01*
X113686590Y-124675920D02*
X113877066Y-124675920D01*
X113877066Y-124675920D02*
X113972304Y-124723539D01*
X113543733Y-125294968D02*
X113638971Y-125342587D01*
X113638971Y-125342587D02*
X113877066Y-125342587D01*
X113877066Y-125342587D02*
X113972304Y-125294968D01*
X113972304Y-125294968D02*
X114019923Y-125199729D01*
X114019923Y-125199729D02*
X114019923Y-125104491D01*
X114019923Y-125104491D02*
X113972304Y-125009253D01*
X113972304Y-125009253D02*
X113877066Y-124961634D01*
X113877066Y-124961634D02*
X113638971Y-124961634D01*
X113638971Y-124961634D02*
X113543733Y-124914015D01*
X123162782Y-126428721D02*
X123019925Y-126476340D01*
X123019925Y-126476340D02*
X122972306Y-126523959D01*
X122972306Y-126523959D02*
X122924687Y-126619197D01*
X122924687Y-126619197D02*
X122924687Y-126762054D01*
X122924687Y-126762054D02*
X122972306Y-126857292D01*
X122972306Y-126857292D02*
X123019925Y-126904912D01*
X123019925Y-126904912D02*
X123115163Y-126952531D01*
X123115163Y-126952531D02*
X123496115Y-126952531D01*
X123496115Y-126952531D02*
X123496115Y-125952531D01*
X123496115Y-125952531D02*
X123162782Y-125952531D01*
X123162782Y-125952531D02*
X123067544Y-126000150D01*
X123067544Y-126000150D02*
X123019925Y-126047769D01*
X123019925Y-126047769D02*
X122972306Y-126143007D01*
X122972306Y-126143007D02*
X122972306Y-126238245D01*
X122972306Y-126238245D02*
X123019925Y-126333483D01*
X123019925Y-126333483D02*
X123067544Y-126381102D01*
X123067544Y-126381102D02*
X123162782Y-126428721D01*
X123162782Y-126428721D02*
X123496115Y-126428721D01*
X122067544Y-126952531D02*
X122067544Y-126428721D01*
X122067544Y-126428721D02*
X122115163Y-126333483D01*
X122115163Y-126333483D02*
X122210401Y-126285864D01*
X122210401Y-126285864D02*
X122400877Y-126285864D01*
X122400877Y-126285864D02*
X122496115Y-126333483D01*
X122067544Y-126904912D02*
X122162782Y-126952531D01*
X122162782Y-126952531D02*
X122400877Y-126952531D01*
X122400877Y-126952531D02*
X122496115Y-126904912D01*
X122496115Y-126904912D02*
X122543734Y-126809673D01*
X122543734Y-126809673D02*
X122543734Y-126714435D01*
X122543734Y-126714435D02*
X122496115Y-126619197D01*
X122496115Y-126619197D02*
X122400877Y-126571578D01*
X122400877Y-126571578D02*
X122162782Y-126571578D01*
X122162782Y-126571578D02*
X122067544Y-126523959D01*
X121448496Y-126952531D02*
X121543734Y-126904912D01*
X121543734Y-126904912D02*
X121591353Y-126809673D01*
X121591353Y-126809673D02*
X121591353Y-125952531D01*
X120638972Y-126952531D02*
X120638972Y-126428721D01*
X120638972Y-126428721D02*
X120686591Y-126333483D01*
X120686591Y-126333483D02*
X120781829Y-126285864D01*
X120781829Y-126285864D02*
X120972305Y-126285864D01*
X120972305Y-126285864D02*
X121067543Y-126333483D01*
X120638972Y-126904912D02*
X120734210Y-126952531D01*
X120734210Y-126952531D02*
X120972305Y-126952531D01*
X120972305Y-126952531D02*
X121067543Y-126904912D01*
X121067543Y-126904912D02*
X121115162Y-126809673D01*
X121115162Y-126809673D02*
X121115162Y-126714435D01*
X121115162Y-126714435D02*
X121067543Y-126619197D01*
X121067543Y-126619197D02*
X120972305Y-126571578D01*
X120972305Y-126571578D02*
X120734210Y-126571578D01*
X120734210Y-126571578D02*
X120638972Y-126523959D01*
X120162781Y-126285864D02*
X120162781Y-126952531D01*
X120162781Y-126381102D02*
X120115162Y-126333483D01*
X120115162Y-126333483D02*
X120019924Y-126285864D01*
X120019924Y-126285864D02*
X119877067Y-126285864D01*
X119877067Y-126285864D02*
X119781829Y-126333483D01*
X119781829Y-126333483D02*
X119734210Y-126428721D01*
X119734210Y-126428721D02*
X119734210Y-126952531D01*
X118829448Y-126904912D02*
X118924686Y-126952531D01*
X118924686Y-126952531D02*
X119115162Y-126952531D01*
X119115162Y-126952531D02*
X119210400Y-126904912D01*
X119210400Y-126904912D02*
X119258019Y-126857292D01*
X119258019Y-126857292D02*
X119305638Y-126762054D01*
X119305638Y-126762054D02*
X119305638Y-126476340D01*
X119305638Y-126476340D02*
X119258019Y-126381102D01*
X119258019Y-126381102D02*
X119210400Y-126333483D01*
X119210400Y-126333483D02*
X119115162Y-126285864D01*
X119115162Y-126285864D02*
X118924686Y-126285864D01*
X118924686Y-126285864D02*
X118829448Y-126333483D01*
X118400876Y-126952531D02*
X118400876Y-126285864D01*
X118400876Y-125952531D02*
X118448495Y-126000150D01*
X118448495Y-126000150D02*
X118400876Y-126047769D01*
X118400876Y-126047769D02*
X118353257Y-126000150D01*
X118353257Y-126000150D02*
X118400876Y-125952531D01*
X118400876Y-125952531D02*
X118400876Y-126047769D01*
X117924686Y-126285864D02*
X117924686Y-126952531D01*
X117924686Y-126381102D02*
X117877067Y-126333483D01*
X117877067Y-126333483D02*
X117781829Y-126285864D01*
X117781829Y-126285864D02*
X117638972Y-126285864D01*
X117638972Y-126285864D02*
X117543734Y-126333483D01*
X117543734Y-126333483D02*
X117496115Y-126428721D01*
X117496115Y-126428721D02*
X117496115Y-126952531D01*
X116591353Y-126285864D02*
X116591353Y-127095388D01*
X116591353Y-127095388D02*
X116638972Y-127190626D01*
X116638972Y-127190626D02*
X116686591Y-127238245D01*
X116686591Y-127238245D02*
X116781829Y-127285864D01*
X116781829Y-127285864D02*
X116924686Y-127285864D01*
X116924686Y-127285864D02*
X117019924Y-127238245D01*
X116591353Y-126904912D02*
X116686591Y-126952531D01*
X116686591Y-126952531D02*
X116877067Y-126952531D01*
X116877067Y-126952531D02*
X116972305Y-126904912D01*
X116972305Y-126904912D02*
X117019924Y-126857292D01*
X117019924Y-126857292D02*
X117067543Y-126762054D01*
X117067543Y-126762054D02*
X117067543Y-126476340D01*
X117067543Y-126476340D02*
X117019924Y-126381102D01*
X117019924Y-126381102D02*
X116972305Y-126333483D01*
X116972305Y-126333483D02*
X116877067Y-126285864D01*
X116877067Y-126285864D02*
X116686591Y-126285864D01*
X116686591Y-126285864D02*
X116591353Y-126333483D01*
X114781829Y-126952531D02*
X115115162Y-126476340D01*
X115353257Y-126952531D02*
X115353257Y-125952531D01*
X115353257Y-125952531D02*
X114972305Y-125952531D01*
X114972305Y-125952531D02*
X114877067Y-126000150D01*
X114877067Y-126000150D02*
X114829448Y-126047769D01*
X114829448Y-126047769D02*
X114781829Y-126143007D01*
X114781829Y-126143007D02*
X114781829Y-126285864D01*
X114781829Y-126285864D02*
X114829448Y-126381102D01*
X114829448Y-126381102D02*
X114877067Y-126428721D01*
X114877067Y-126428721D02*
X114972305Y-126476340D01*
X114972305Y-126476340D02*
X115353257Y-126476340D01*
X114210400Y-126952531D02*
X114305638Y-126904912D01*
X114305638Y-126904912D02*
X114353257Y-126857292D01*
X114353257Y-126857292D02*
X114400876Y-126762054D01*
X114400876Y-126762054D02*
X114400876Y-126476340D01*
X114400876Y-126476340D02*
X114353257Y-126381102D01*
X114353257Y-126381102D02*
X114305638Y-126333483D01*
X114305638Y-126333483D02*
X114210400Y-126285864D01*
X114210400Y-126285864D02*
X114067543Y-126285864D01*
X114067543Y-126285864D02*
X113972305Y-126333483D01*
X113972305Y-126333483D02*
X113924686Y-126381102D01*
X113924686Y-126381102D02*
X113877067Y-126476340D01*
X113877067Y-126476340D02*
X113877067Y-126762054D01*
X113877067Y-126762054D02*
X113924686Y-126857292D01*
X113924686Y-126857292D02*
X113972305Y-126904912D01*
X113972305Y-126904912D02*
X114067543Y-126952531D01*
X114067543Y-126952531D02*
X114210400Y-126952531D01*
X113448495Y-126952531D02*
X113448495Y-125952531D01*
X113448495Y-126333483D02*
X113353257Y-126285864D01*
X113353257Y-126285864D02*
X113162781Y-126285864D01*
X113162781Y-126285864D02*
X113067543Y-126333483D01*
X113067543Y-126333483D02*
X113019924Y-126381102D01*
X113019924Y-126381102D02*
X112972305Y-126476340D01*
X112972305Y-126476340D02*
X112972305Y-126762054D01*
X112972305Y-126762054D02*
X113019924Y-126857292D01*
X113019924Y-126857292D02*
X113067543Y-126904912D01*
X113067543Y-126904912D02*
X113162781Y-126952531D01*
X113162781Y-126952531D02*
X113353257Y-126952531D01*
X113353257Y-126952531D02*
X113448495Y-126904912D01*
X112400876Y-126952531D02*
X112496114Y-126904912D01*
X112496114Y-126904912D02*
X112543733Y-126857292D01*
X112543733Y-126857292D02*
X112591352Y-126762054D01*
X112591352Y-126762054D02*
X112591352Y-126476340D01*
X112591352Y-126476340D02*
X112543733Y-126381102D01*
X112543733Y-126381102D02*
X112496114Y-126333483D01*
X112496114Y-126333483D02*
X112400876Y-126285864D01*
X112400876Y-126285864D02*
X112258019Y-126285864D01*
X112258019Y-126285864D02*
X112162781Y-126333483D01*
X112162781Y-126333483D02*
X112115162Y-126381102D01*
X112115162Y-126381102D02*
X112067543Y-126476340D01*
X112067543Y-126476340D02*
X112067543Y-126762054D01*
X112067543Y-126762054D02*
X112115162Y-126857292D01*
X112115162Y-126857292D02*
X112162781Y-126904912D01*
X112162781Y-126904912D02*
X112258019Y-126952531D01*
X112258019Y-126952531D02*
X112400876Y-126952531D01*
X111781828Y-126285864D02*
X111400876Y-126285864D01*
X111638971Y-125952531D02*
X111638971Y-126809673D01*
X111638971Y-126809673D02*
X111591352Y-126904912D01*
X111591352Y-126904912D02*
X111496114Y-126952531D01*
X111496114Y-126952531D02*
X111400876Y-126952531D01*
X110448494Y-125952531D02*
X110115161Y-126952531D01*
X110115161Y-126952531D02*
X109781828Y-125952531D01*
X109258018Y-125952531D02*
X109162780Y-125952531D01*
X109162780Y-125952531D02*
X109067542Y-126000150D01*
X109067542Y-126000150D02*
X109019923Y-126047769D01*
X109019923Y-126047769D02*
X108972304Y-126143007D01*
X108972304Y-126143007D02*
X108924685Y-126333483D01*
X108924685Y-126333483D02*
X108924685Y-126571578D01*
X108924685Y-126571578D02*
X108972304Y-126762054D01*
X108972304Y-126762054D02*
X109019923Y-126857292D01*
X109019923Y-126857292D02*
X109067542Y-126904912D01*
X109067542Y-126904912D02*
X109162780Y-126952531D01*
X109162780Y-126952531D02*
X109258018Y-126952531D01*
X109258018Y-126952531D02*
X109353256Y-126904912D01*
X109353256Y-126904912D02*
X109400875Y-126857292D01*
X109400875Y-126857292D02*
X109448494Y-126762054D01*
X109448494Y-126762054D02*
X109496113Y-126571578D01*
X109496113Y-126571578D02*
X109496113Y-126333483D01*
X109496113Y-126333483D02*
X109448494Y-126143007D01*
X109448494Y-126143007D02*
X109400875Y-126047769D01*
X109400875Y-126047769D02*
X109353256Y-126000150D01*
X109353256Y-126000150D02*
X109258018Y-125952531D01*
X108496113Y-126857292D02*
X108448494Y-126904912D01*
X108448494Y-126904912D02*
X108496113Y-126952531D01*
X108496113Y-126952531D02*
X108543732Y-126904912D01*
X108543732Y-126904912D02*
X108496113Y-126857292D01*
X108496113Y-126857292D02*
X108496113Y-126952531D01*
X107496114Y-126952531D02*
X108067542Y-126952531D01*
X107781828Y-126952531D02*
X107781828Y-125952531D01*
X107781828Y-125952531D02*
X107877066Y-126095388D01*
X107877066Y-126095388D02*
X107972304Y-126190626D01*
X107972304Y-126190626D02*
X108067542Y-126238245D01*
X123496115Y-128038665D02*
X123162782Y-128038665D01*
X123019925Y-128562475D02*
X123496115Y-128562475D01*
X123496115Y-128562475D02*
X123496115Y-127562475D01*
X123496115Y-127562475D02*
X123019925Y-127562475D01*
X122591353Y-128562475D02*
X122591353Y-127895808D01*
X122591353Y-127991046D02*
X122543734Y-127943427D01*
X122543734Y-127943427D02*
X122448496Y-127895808D01*
X122448496Y-127895808D02*
X122305639Y-127895808D01*
X122305639Y-127895808D02*
X122210401Y-127943427D01*
X122210401Y-127943427D02*
X122162782Y-128038665D01*
X122162782Y-128038665D02*
X122162782Y-128562475D01*
X122162782Y-128038665D02*
X122115163Y-127943427D01*
X122115163Y-127943427D02*
X122019925Y-127895808D01*
X122019925Y-127895808D02*
X121877068Y-127895808D01*
X121877068Y-127895808D02*
X121781829Y-127943427D01*
X121781829Y-127943427D02*
X121734210Y-128038665D01*
X121734210Y-128038665D02*
X121734210Y-128562475D01*
X121258020Y-128562475D02*
X121258020Y-127562475D01*
X121258020Y-127943427D02*
X121162782Y-127895808D01*
X121162782Y-127895808D02*
X120972306Y-127895808D01*
X120972306Y-127895808D02*
X120877068Y-127943427D01*
X120877068Y-127943427D02*
X120829449Y-127991046D01*
X120829449Y-127991046D02*
X120781830Y-128086284D01*
X120781830Y-128086284D02*
X120781830Y-128371998D01*
X120781830Y-128371998D02*
X120829449Y-128467236D01*
X120829449Y-128467236D02*
X120877068Y-128514856D01*
X120877068Y-128514856D02*
X120972306Y-128562475D01*
X120972306Y-128562475D02*
X121162782Y-128562475D01*
X121162782Y-128562475D02*
X121258020Y-128514856D01*
X119972306Y-128514856D02*
X120067544Y-128562475D01*
X120067544Y-128562475D02*
X120258020Y-128562475D01*
X120258020Y-128562475D02*
X120353258Y-128514856D01*
X120353258Y-128514856D02*
X120400877Y-128419617D01*
X120400877Y-128419617D02*
X120400877Y-128038665D01*
X120400877Y-128038665D02*
X120353258Y-127943427D01*
X120353258Y-127943427D02*
X120258020Y-127895808D01*
X120258020Y-127895808D02*
X120067544Y-127895808D01*
X120067544Y-127895808D02*
X119972306Y-127943427D01*
X119972306Y-127943427D02*
X119924687Y-128038665D01*
X119924687Y-128038665D02*
X119924687Y-128133903D01*
X119924687Y-128133903D02*
X120400877Y-128229141D01*
X119067544Y-128562475D02*
X119067544Y-127562475D01*
X119067544Y-128514856D02*
X119162782Y-128562475D01*
X119162782Y-128562475D02*
X119353258Y-128562475D01*
X119353258Y-128562475D02*
X119448496Y-128514856D01*
X119448496Y-128514856D02*
X119496115Y-128467236D01*
X119496115Y-128467236D02*
X119543734Y-128371998D01*
X119543734Y-128371998D02*
X119543734Y-128086284D01*
X119543734Y-128086284D02*
X119496115Y-127991046D01*
X119496115Y-127991046D02*
X119448496Y-127943427D01*
X119448496Y-127943427D02*
X119353258Y-127895808D01*
X119353258Y-127895808D02*
X119162782Y-127895808D01*
X119162782Y-127895808D02*
X119067544Y-127943427D01*
X118162782Y-128562475D02*
X118162782Y-127562475D01*
X118162782Y-128514856D02*
X118258020Y-128562475D01*
X118258020Y-128562475D02*
X118448496Y-128562475D01*
X118448496Y-128562475D02*
X118543734Y-128514856D01*
X118543734Y-128514856D02*
X118591353Y-128467236D01*
X118591353Y-128467236D02*
X118638972Y-128371998D01*
X118638972Y-128371998D02*
X118638972Y-128086284D01*
X118638972Y-128086284D02*
X118591353Y-127991046D01*
X118591353Y-127991046D02*
X118543734Y-127943427D01*
X118543734Y-127943427D02*
X118448496Y-127895808D01*
X118448496Y-127895808D02*
X118258020Y-127895808D01*
X118258020Y-127895808D02*
X118162782Y-127943427D01*
X117305639Y-128514856D02*
X117400877Y-128562475D01*
X117400877Y-128562475D02*
X117591353Y-128562475D01*
X117591353Y-128562475D02*
X117686591Y-128514856D01*
X117686591Y-128514856D02*
X117734210Y-128419617D01*
X117734210Y-128419617D02*
X117734210Y-128038665D01*
X117734210Y-128038665D02*
X117686591Y-127943427D01*
X117686591Y-127943427D02*
X117591353Y-127895808D01*
X117591353Y-127895808D02*
X117400877Y-127895808D01*
X117400877Y-127895808D02*
X117305639Y-127943427D01*
X117305639Y-127943427D02*
X117258020Y-128038665D01*
X117258020Y-128038665D02*
X117258020Y-128133903D01*
X117258020Y-128133903D02*
X117734210Y-128229141D01*
X116400877Y-128562475D02*
X116400877Y-127562475D01*
X116400877Y-128514856D02*
X116496115Y-128562475D01*
X116496115Y-128562475D02*
X116686591Y-128562475D01*
X116686591Y-128562475D02*
X116781829Y-128514856D01*
X116781829Y-128514856D02*
X116829448Y-128467236D01*
X116829448Y-128467236D02*
X116877067Y-128371998D01*
X116877067Y-128371998D02*
X116877067Y-128086284D01*
X116877067Y-128086284D02*
X116829448Y-127991046D01*
X116829448Y-127991046D02*
X116781829Y-127943427D01*
X116781829Y-127943427D02*
X116686591Y-127895808D01*
X116686591Y-127895808D02*
X116496115Y-127895808D01*
X116496115Y-127895808D02*
X116400877Y-127943427D01*
X115210400Y-128514856D02*
X115067543Y-128562475D01*
X115067543Y-128562475D02*
X114829448Y-128562475D01*
X114829448Y-128562475D02*
X114734210Y-128514856D01*
X114734210Y-128514856D02*
X114686591Y-128467236D01*
X114686591Y-128467236D02*
X114638972Y-128371998D01*
X114638972Y-128371998D02*
X114638972Y-128276760D01*
X114638972Y-128276760D02*
X114686591Y-128181522D01*
X114686591Y-128181522D02*
X114734210Y-128133903D01*
X114734210Y-128133903D02*
X114829448Y-128086284D01*
X114829448Y-128086284D02*
X115019924Y-128038665D01*
X115019924Y-128038665D02*
X115115162Y-127991046D01*
X115115162Y-127991046D02*
X115162781Y-127943427D01*
X115162781Y-127943427D02*
X115210400Y-127848189D01*
X115210400Y-127848189D02*
X115210400Y-127752951D01*
X115210400Y-127752951D02*
X115162781Y-127657713D01*
X115162781Y-127657713D02*
X115115162Y-127610094D01*
X115115162Y-127610094D02*
X115019924Y-127562475D01*
X115019924Y-127562475D02*
X114781829Y-127562475D01*
X114781829Y-127562475D02*
X114638972Y-127610094D01*
X114305638Y-127895808D02*
X114067543Y-128562475D01*
X113829448Y-127895808D02*
X114067543Y-128562475D01*
X114067543Y-128562475D02*
X114162781Y-128800570D01*
X114162781Y-128800570D02*
X114210400Y-128848189D01*
X114210400Y-128848189D02*
X114305638Y-128895808D01*
X113496114Y-128514856D02*
X113400876Y-128562475D01*
X113400876Y-128562475D02*
X113210400Y-128562475D01*
X113210400Y-128562475D02*
X113115162Y-128514856D01*
X113115162Y-128514856D02*
X113067543Y-128419617D01*
X113067543Y-128419617D02*
X113067543Y-128371998D01*
X113067543Y-128371998D02*
X113115162Y-128276760D01*
X113115162Y-128276760D02*
X113210400Y-128229141D01*
X113210400Y-128229141D02*
X113353257Y-128229141D01*
X113353257Y-128229141D02*
X113448495Y-128181522D01*
X113448495Y-128181522D02*
X113496114Y-128086284D01*
X113496114Y-128086284D02*
X113496114Y-128038665D01*
X113496114Y-128038665D02*
X113448495Y-127943427D01*
X113448495Y-127943427D02*
X113353257Y-127895808D01*
X113353257Y-127895808D02*
X113210400Y-127895808D01*
X113210400Y-127895808D02*
X113115162Y-127943427D01*
X112781828Y-127895808D02*
X112400876Y-127895808D01*
X112638971Y-127562475D02*
X112638971Y-128419617D01*
X112638971Y-128419617D02*
X112591352Y-128514856D01*
X112591352Y-128514856D02*
X112496114Y-128562475D01*
X112496114Y-128562475D02*
X112400876Y-128562475D01*
X111686590Y-128514856D02*
X111781828Y-128562475D01*
X111781828Y-128562475D02*
X111972304Y-128562475D01*
X111972304Y-128562475D02*
X112067542Y-128514856D01*
X112067542Y-128514856D02*
X112115161Y-128419617D01*
X112115161Y-128419617D02*
X112115161Y-128038665D01*
X112115161Y-128038665D02*
X112067542Y-127943427D01*
X112067542Y-127943427D02*
X111972304Y-127895808D01*
X111972304Y-127895808D02*
X111781828Y-127895808D01*
X111781828Y-127895808D02*
X111686590Y-127943427D01*
X111686590Y-127943427D02*
X111638971Y-128038665D01*
X111638971Y-128038665D02*
X111638971Y-128133903D01*
X111638971Y-128133903D02*
X112115161Y-128229141D01*
X111210399Y-128562475D02*
X111210399Y-127895808D01*
X111210399Y-127991046D02*
X111162780Y-127943427D01*
X111162780Y-127943427D02*
X111067542Y-127895808D01*
X111067542Y-127895808D02*
X110924685Y-127895808D01*
X110924685Y-127895808D02*
X110829447Y-127943427D01*
X110829447Y-127943427D02*
X110781828Y-128038665D01*
X110781828Y-128038665D02*
X110781828Y-128562475D01*
X110781828Y-128038665D02*
X110734209Y-127943427D01*
X110734209Y-127943427D02*
X110638971Y-127895808D01*
X110638971Y-127895808D02*
X110496114Y-127895808D01*
X110496114Y-127895808D02*
X110400875Y-127943427D01*
X110400875Y-127943427D02*
X110353256Y-128038665D01*
X110353256Y-128038665D02*
X110353256Y-128562475D01*
X109924685Y-128514856D02*
X109829447Y-128562475D01*
X109829447Y-128562475D02*
X109638971Y-128562475D01*
X109638971Y-128562475D02*
X109543733Y-128514856D01*
X109543733Y-128514856D02*
X109496114Y-128419617D01*
X109496114Y-128419617D02*
X109496114Y-128371998D01*
X109496114Y-128371998D02*
X109543733Y-128276760D01*
X109543733Y-128276760D02*
X109638971Y-128229141D01*
X109638971Y-128229141D02*
X109781828Y-128229141D01*
X109781828Y-128229141D02*
X109877066Y-128181522D01*
X109877066Y-128181522D02*
X109924685Y-128086284D01*
X109924685Y-128086284D02*
X109924685Y-128038665D01*
X109924685Y-128038665D02*
X109877066Y-127943427D01*
X109877066Y-127943427D02*
X109781828Y-127895808D01*
X109781828Y-127895808D02*
X109638971Y-127895808D01*
X109638971Y-127895808D02*
X109543733Y-127943427D01*
X123496115Y-130172419D02*
X123496115Y-129172419D01*
X123496115Y-129172419D02*
X123162782Y-129886704D01*
X123162782Y-129886704D02*
X122829449Y-129172419D01*
X122829449Y-129172419D02*
X122829449Y-130172419D01*
X121924687Y-130172419D02*
X121924687Y-129648609D01*
X121924687Y-129648609D02*
X121972306Y-129553371D01*
X121972306Y-129553371D02*
X122067544Y-129505752D01*
X122067544Y-129505752D02*
X122258020Y-129505752D01*
X122258020Y-129505752D02*
X122353258Y-129553371D01*
X121924687Y-130124800D02*
X122019925Y-130172419D01*
X122019925Y-130172419D02*
X122258020Y-130172419D01*
X122258020Y-130172419D02*
X122353258Y-130124800D01*
X122353258Y-130124800D02*
X122400877Y-130029561D01*
X122400877Y-130029561D02*
X122400877Y-129934323D01*
X122400877Y-129934323D02*
X122353258Y-129839085D01*
X122353258Y-129839085D02*
X122258020Y-129791466D01*
X122258020Y-129791466D02*
X122019925Y-129791466D01*
X122019925Y-129791466D02*
X121924687Y-129743847D01*
X121543734Y-129505752D02*
X121305639Y-130172419D01*
X121067544Y-129505752D02*
X121305639Y-130172419D01*
X121305639Y-130172419D02*
X121400877Y-130410514D01*
X121400877Y-130410514D02*
X121448496Y-130458133D01*
X121448496Y-130458133D02*
X121543734Y-130505752D01*
X119972305Y-129267657D02*
X119924686Y-129220038D01*
X119924686Y-129220038D02*
X119829448Y-129172419D01*
X119829448Y-129172419D02*
X119591353Y-129172419D01*
X119591353Y-129172419D02*
X119496115Y-129220038D01*
X119496115Y-129220038D02*
X119448496Y-129267657D01*
X119448496Y-129267657D02*
X119400877Y-129362895D01*
X119400877Y-129362895D02*
X119400877Y-129458133D01*
X119400877Y-129458133D02*
X119448496Y-129600990D01*
X119448496Y-129600990D02*
X120019924Y-130172419D01*
X120019924Y-130172419D02*
X119400877Y-130172419D01*
X118781829Y-129172419D02*
X118686591Y-129172419D01*
X118686591Y-129172419D02*
X118591353Y-129220038D01*
X118591353Y-129220038D02*
X118543734Y-129267657D01*
X118543734Y-129267657D02*
X118496115Y-129362895D01*
X118496115Y-129362895D02*
X118448496Y-129553371D01*
X118448496Y-129553371D02*
X118448496Y-129791466D01*
X118448496Y-129791466D02*
X118496115Y-129981942D01*
X118496115Y-129981942D02*
X118543734Y-130077180D01*
X118543734Y-130077180D02*
X118591353Y-130124800D01*
X118591353Y-130124800D02*
X118686591Y-130172419D01*
X118686591Y-130172419D02*
X118781829Y-130172419D01*
X118781829Y-130172419D02*
X118877067Y-130124800D01*
X118877067Y-130124800D02*
X118924686Y-130077180D01*
X118924686Y-130077180D02*
X118972305Y-129981942D01*
X118972305Y-129981942D02*
X119019924Y-129791466D01*
X119019924Y-129791466D02*
X119019924Y-129553371D01*
X119019924Y-129553371D02*
X118972305Y-129362895D01*
X118972305Y-129362895D02*
X118924686Y-129267657D01*
X118924686Y-129267657D02*
X118877067Y-129220038D01*
X118877067Y-129220038D02*
X118781829Y-129172419D01*
X118067543Y-129267657D02*
X118019924Y-129220038D01*
X118019924Y-129220038D02*
X117924686Y-129172419D01*
X117924686Y-129172419D02*
X117686591Y-129172419D01*
X117686591Y-129172419D02*
X117591353Y-129220038D01*
X117591353Y-129220038D02*
X117543734Y-129267657D01*
X117543734Y-129267657D02*
X117496115Y-129362895D01*
X117496115Y-129362895D02*
X117496115Y-129458133D01*
X117496115Y-129458133D02*
X117543734Y-129600990D01*
X117543734Y-129600990D02*
X118115162Y-130172419D01*
X118115162Y-130172419D02*
X117496115Y-130172419D01*
X116638972Y-129172419D02*
X116829448Y-129172419D01*
X116829448Y-129172419D02*
X116924686Y-129220038D01*
X116924686Y-129220038D02*
X116972305Y-129267657D01*
X116972305Y-129267657D02*
X117067543Y-129410514D01*
X117067543Y-129410514D02*
X117115162Y-129600990D01*
X117115162Y-129600990D02*
X117115162Y-129981942D01*
X117115162Y-129981942D02*
X117067543Y-130077180D01*
X117067543Y-130077180D02*
X117019924Y-130124800D01*
X117019924Y-130124800D02*
X116924686Y-130172419D01*
X116924686Y-130172419D02*
X116734210Y-130172419D01*
X116734210Y-130172419D02*
X116638972Y-130124800D01*
X116638972Y-130124800D02*
X116591353Y-130077180D01*
X116591353Y-130077180D02*
X116543734Y-129981942D01*
X116543734Y-129981942D02*
X116543734Y-129743847D01*
X116543734Y-129743847D02*
X116591353Y-129648609D01*
X116591353Y-129648609D02*
X116638972Y-129600990D01*
X116638972Y-129600990D02*
X116734210Y-129553371D01*
X116734210Y-129553371D02*
X116924686Y-129553371D01*
X116924686Y-129553371D02*
X117019924Y-129600990D01*
X117019924Y-129600990D02*
X117067543Y-129648609D01*
X117067543Y-129648609D02*
X117115162Y-129743847D01*
D11*
%TO.C,G\u002A\u002A\u002A*%
G36*
X116355147Y-106731848D02*
G01*
X116364520Y-106742431D01*
X116381348Y-106781076D01*
X116370581Y-106813079D01*
X116361816Y-106819752D01*
X116327859Y-106820559D01*
X116288706Y-106790969D01*
X116272659Y-106767506D01*
X116268107Y-106732989D01*
X116285446Y-106710995D01*
X116317014Y-106708341D01*
X116355147Y-106731848D01*
G37*
G36*
X118190786Y-106488261D02*
G01*
X118218756Y-106518036D01*
X118236693Y-106566237D01*
X118241652Y-106623080D01*
X118230691Y-106678780D01*
X118226226Y-106688149D01*
X118206988Y-106700631D01*
X118186519Y-106684722D01*
X118170841Y-106643930D01*
X118162188Y-106592479D01*
X118158493Y-106537922D01*
X118161739Y-106498469D01*
X118171869Y-106483282D01*
X118190786Y-106488261D01*
G37*
G36*
X117349518Y-107756902D02*
G01*
X117400243Y-107786821D01*
X117448105Y-107828036D01*
X117406398Y-107872487D01*
X117406120Y-107872783D01*
X117361429Y-107908448D01*
X117312577Y-107932043D01*
X117240450Y-107940785D01*
X117150739Y-107927243D01*
X117064991Y-107892030D01*
X116995404Y-107838733D01*
X116956494Y-107797316D01*
X117018373Y-107771461D01*
X117065433Y-107754779D01*
X117130419Y-107747154D01*
X117186652Y-107764245D01*
X117213667Y-107774108D01*
X117240117Y-107764245D01*
X117250961Y-107756002D01*
X117295728Y-107746061D01*
X117349518Y-107756902D01*
G37*
G36*
X112508921Y-110713912D02*
G01*
X112549031Y-110719617D01*
X112556142Y-110733705D01*
X112530239Y-110756216D01*
X112471308Y-110787187D01*
X112417319Y-110817577D01*
X112349485Y-110864711D01*
X112287930Y-110915601D01*
X112279918Y-110922980D01*
X112235387Y-110963303D01*
X112202540Y-110991903D01*
X112187995Y-111002992D01*
X112184488Y-111000580D01*
X112187268Y-110977880D01*
X112201167Y-110938923D01*
X112222557Y-110893020D01*
X112247809Y-110849484D01*
X112262125Y-110830117D01*
X112329268Y-110770064D01*
X112412123Y-110728991D01*
X112498017Y-110713773D01*
X112508921Y-110713912D01*
G37*
G36*
X116455368Y-106491129D02*
G01*
X116528313Y-106527100D01*
X116591877Y-106586712D01*
X116642356Y-106663867D01*
X116676048Y-106752465D01*
X116689248Y-106846408D01*
X116678253Y-106939595D01*
X116671967Y-106956140D01*
X116650163Y-106973493D01*
X116605987Y-106977977D01*
X116544008Y-106977977D01*
X116544008Y-106887092D01*
X116541308Y-106833726D01*
X116527286Y-106782811D01*
X116496330Y-106733699D01*
X116472091Y-106705125D01*
X116418106Y-106665987D01*
X116360004Y-106659245D01*
X116293220Y-106683775D01*
X116253891Y-106702884D01*
X116226063Y-106705860D01*
X116219026Y-106683117D01*
X116229566Y-106632039D01*
X116244834Y-106594561D01*
X116287517Y-106538492D01*
X116342946Y-106498523D01*
X116401167Y-106483282D01*
X116455368Y-106491129D01*
G37*
G36*
X118379182Y-115803735D02*
G01*
X118406402Y-115827037D01*
X118468690Y-115915705D01*
X118515051Y-116012113D01*
X118544531Y-116120719D01*
X118560876Y-116251824D01*
X118570322Y-116376723D01*
X118635342Y-116317981D01*
X118641577Y-116312424D01*
X118708161Y-116261040D01*
X118774381Y-116222351D01*
X118832412Y-116200261D01*
X118874431Y-116198675D01*
X118902264Y-116216101D01*
X118924411Y-116256606D01*
X118936837Y-116322636D01*
X118940717Y-116418084D01*
X118940731Y-116425177D01*
X118942064Y-116485677D01*
X118945142Y-116530614D01*
X118949362Y-116550714D01*
X118959696Y-116548210D01*
X118988938Y-116528129D01*
X119028627Y-116494163D01*
X119054227Y-116472187D01*
X119116760Y-116426551D01*
X119176040Y-116391792D01*
X119198820Y-116381940D01*
X119254044Y-116364088D01*
X119312545Y-116350927D01*
X119365373Y-116343866D01*
X119403580Y-116344314D01*
X119418218Y-116353677D01*
X119414157Y-116360014D01*
X119387912Y-116383319D01*
X119342694Y-116417496D01*
X119284814Y-116457628D01*
X119273935Y-116465008D01*
X119193541Y-116524633D01*
X119109443Y-116593949D01*
X119038176Y-116659426D01*
X119032112Y-116665430D01*
X118970000Y-116722526D01*
X118923194Y-116756883D01*
X118894511Y-116766403D01*
X118866943Y-116751095D01*
X118840493Y-116705899D01*
X118821496Y-116630167D01*
X118809432Y-116522413D01*
X118807332Y-116495329D01*
X118801074Y-116434892D01*
X118794405Y-116392903D01*
X118788453Y-116377171D01*
X118775104Y-116381621D01*
X118736986Y-116405343D01*
X118682951Y-116446045D01*
X118618470Y-116499781D01*
X118586185Y-116526026D01*
X118532045Y-116557871D01*
X118492487Y-116560722D01*
X118465861Y-116534961D01*
X118459799Y-116511737D01*
X118452649Y-116460217D01*
X118446126Y-116389895D01*
X118441125Y-116308937D01*
X118432228Y-116188458D01*
X118414962Y-116075161D01*
X118387770Y-115969027D01*
X118379149Y-115940658D01*
X118360990Y-115878830D01*
X118348389Y-115832916D01*
X118343672Y-115811237D01*
X118343672Y-115811214D01*
X118354465Y-115797502D01*
X118379182Y-115803735D01*
G37*
G36*
X117956678Y-105917568D02*
G01*
X117997423Y-106084849D01*
X118009993Y-106167855D01*
X118027290Y-106282068D01*
X118039659Y-106374212D01*
X118057679Y-106484038D01*
X118072050Y-106558322D01*
X118077706Y-106587556D01*
X118097248Y-106670925D01*
X118098923Y-106677180D01*
X118132423Y-106821155D01*
X118149805Y-106945938D01*
X118150256Y-106970758D01*
X118151904Y-107061526D01*
X118139555Y-107177917D01*
X118139016Y-107181247D01*
X118125376Y-107243372D01*
X118108401Y-107320686D01*
X118060549Y-107463241D01*
X117992853Y-107615589D01*
X117902705Y-107784408D01*
X117896589Y-107795191D01*
X117849279Y-107882439D01*
X117805767Y-107968822D01*
X117770652Y-108044887D01*
X117759568Y-108073101D01*
X117748537Y-108101178D01*
X117734027Y-108143038D01*
X117684656Y-108250120D01*
X117623420Y-108331065D01*
X117545144Y-108391600D01*
X117444647Y-108437456D01*
X117402598Y-108450062D01*
X117281714Y-108462777D01*
X117155511Y-108444170D01*
X117027760Y-108395083D01*
X116902235Y-108316358D01*
X116842158Y-108273796D01*
X116778857Y-108233875D01*
X116728035Y-108206705D01*
X116702440Y-108194852D01*
X116641271Y-108159398D01*
X117143166Y-108159398D01*
X117144989Y-108167874D01*
X117165388Y-108183344D01*
X117198792Y-108201795D01*
X117276331Y-108219590D01*
X117358671Y-108212926D01*
X117435033Y-108183455D01*
X117494636Y-108132832D01*
X117516208Y-108101117D01*
X117525172Y-108073101D01*
X117512015Y-108065557D01*
X117477957Y-108082180D01*
X117472996Y-108085521D01*
X117398086Y-108127226D01*
X117322453Y-108148838D01*
X117230276Y-108155008D01*
X117214504Y-108155018D01*
X117164732Y-108155813D01*
X117143166Y-108159398D01*
X116641271Y-108159398D01*
X116537060Y-108098996D01*
X116380030Y-107975474D01*
X116237687Y-107829869D01*
X116116367Y-107667763D01*
X116089134Y-107626648D01*
X116051496Y-107573646D01*
X116022406Y-107537324D01*
X116006567Y-107523846D01*
X115995046Y-107525355D01*
X115991316Y-107535286D01*
X115992253Y-107538620D01*
X115998638Y-107561344D01*
X116018021Y-107611222D01*
X116027605Y-107635677D01*
X116037552Y-107669398D01*
X116033404Y-107688796D01*
X116014760Y-107705389D01*
X116014377Y-107705668D01*
X115956462Y-107728157D01*
X115888366Y-107723769D01*
X115814589Y-107696381D01*
X115739630Y-107649868D01*
X115667989Y-107588104D01*
X115604167Y-107514965D01*
X115552664Y-107434326D01*
X115517978Y-107350062D01*
X115508426Y-107290030D01*
X115631382Y-107290030D01*
X115631606Y-107292078D01*
X115649361Y-107311549D01*
X115686822Y-107328412D01*
X115709857Y-107336451D01*
X115737376Y-107358679D01*
X115747559Y-107399525D01*
X115759809Y-107442331D01*
X115804308Y-107497611D01*
X115812579Y-107504235D01*
X115855005Y-107530331D01*
X115889805Y-107540905D01*
X115894228Y-107540898D01*
X115913135Y-107538620D01*
X115911306Y-107526442D01*
X115894865Y-107504469D01*
X116450187Y-107504469D01*
X116452151Y-107531169D01*
X116462715Y-107560797D01*
X116477957Y-107565597D01*
X116492754Y-107541153D01*
X116498450Y-107526922D01*
X116514922Y-107509735D01*
X116540018Y-107510194D01*
X116576412Y-107529984D01*
X116626781Y-107570791D01*
X116693801Y-107634301D01*
X116780147Y-107722199D01*
X116802042Y-107744834D01*
X116892786Y-107835571D01*
X116966097Y-107902858D01*
X117025075Y-107949401D01*
X117072819Y-107977908D01*
X117156559Y-108006822D01*
X117257263Y-108015858D01*
X117351871Y-107998096D01*
X117433917Y-107954910D01*
X117496936Y-107887677D01*
X117511962Y-107861004D01*
X117540001Y-107800987D01*
X117571023Y-107725639D01*
X117600641Y-107645218D01*
X117644416Y-107528005D01*
X117694256Y-107413071D01*
X117743911Y-107315706D01*
X117789685Y-107243758D01*
X117805301Y-107224949D01*
X117822180Y-107221272D01*
X117848351Y-107241815D01*
X117867592Y-107258225D01*
X117883122Y-107262480D01*
X117893604Y-107243372D01*
X117893583Y-107209538D01*
X117870655Y-107170048D01*
X117832028Y-107134371D01*
X117786349Y-107108654D01*
X117742267Y-107099049D01*
X117708429Y-107111702D01*
X117708200Y-107111932D01*
X117700228Y-107132462D01*
X117721850Y-107155574D01*
X117736869Y-107167594D01*
X117743789Y-107182929D01*
X117733114Y-107205626D01*
X117702824Y-107245194D01*
X117694180Y-107255623D01*
X117620502Y-107325713D01*
X117525492Y-107393264D01*
X117419884Y-107451419D01*
X117314413Y-107493321D01*
X117247841Y-107510319D01*
X117132058Y-107527267D01*
X117009686Y-107532682D01*
X116888620Y-107527062D01*
X116776759Y-107510907D01*
X116682000Y-107484714D01*
X116612242Y-107448983D01*
X116605881Y-107444122D01*
X116588814Y-107422747D01*
X116599448Y-107402174D01*
X116615602Y-107382009D01*
X116615927Y-107360619D01*
X116585342Y-107353262D01*
X116582489Y-107353343D01*
X116538925Y-107369843D01*
X116495990Y-107407650D01*
X116463228Y-107456085D01*
X116450187Y-107504469D01*
X115894865Y-107504469D01*
X115888497Y-107495958D01*
X115863788Y-107450723D01*
X115853142Y-107402752D01*
X115851355Y-107383259D01*
X115833122Y-107347497D01*
X115789477Y-107311231D01*
X115777266Y-107303434D01*
X115726638Y-107279747D01*
X115679583Y-107268830D01*
X115644898Y-107271865D01*
X115631382Y-107290030D01*
X115508426Y-107290030D01*
X115504611Y-107266050D01*
X115509228Y-107212103D01*
X115534303Y-107152132D01*
X115577567Y-107116281D01*
X115635007Y-107105037D01*
X115702606Y-107118889D01*
X115776350Y-107158324D01*
X115852223Y-107223829D01*
X115876705Y-107246365D01*
X115915028Y-107272408D01*
X115947652Y-107285655D01*
X115967345Y-107283592D01*
X115966878Y-107263705D01*
X115899910Y-107101881D01*
X115839159Y-106934611D01*
X115780217Y-106749137D01*
X115769512Y-106713082D01*
X116145565Y-106713082D01*
X116158197Y-106813062D01*
X116191294Y-106909997D01*
X116245103Y-106997112D01*
X116268673Y-107027199D01*
X116285662Y-107056052D01*
X116285130Y-107078353D01*
X116269689Y-107105634D01*
X116261402Y-107118746D01*
X116252545Y-107139009D01*
X116262408Y-107142983D01*
X116294638Y-107130479D01*
X116352882Y-107101308D01*
X116366751Y-107094397D01*
X116424976Y-107072211D01*
X116493395Y-107058416D01*
X116583896Y-107050389D01*
X116733103Y-107041882D01*
X116739539Y-106971548D01*
X116744523Y-106847720D01*
X116739735Y-106802988D01*
X117204043Y-106802988D01*
X117213010Y-106823304D01*
X117244057Y-106827173D01*
X117306867Y-106816836D01*
X117360476Y-106811042D01*
X117396069Y-106813663D01*
X117422139Y-106825552D01*
X117447177Y-106847560D01*
X117447304Y-106847720D01*
X117469671Y-106876008D01*
X117488288Y-106936875D01*
X117476257Y-107003891D01*
X117434555Y-107073587D01*
X117364159Y-107142495D01*
X117346710Y-107157310D01*
X117315480Y-107189829D01*
X117303108Y-107212530D01*
X117312760Y-107230759D01*
X117341193Y-107231081D01*
X117382362Y-107214879D01*
X117430151Y-107185904D01*
X117478444Y-107147908D01*
X117521124Y-107104640D01*
X117552076Y-107059851D01*
X117559650Y-107042684D01*
X117574188Y-106970758D01*
X117570980Y-106892076D01*
X117550166Y-106823893D01*
X117533446Y-106798124D01*
X117477628Y-106751666D01*
X117405746Y-106726425D01*
X117326858Y-106724671D01*
X117250025Y-106748675D01*
X117249620Y-106748885D01*
X117216473Y-106775192D01*
X117204043Y-106802988D01*
X116739735Y-106802988D01*
X116731154Y-106722810D01*
X116695770Y-106615670D01*
X116657969Y-106554543D01*
X117345508Y-106554543D01*
X117354471Y-106603041D01*
X117359336Y-106611442D01*
X117382011Y-106632309D01*
X117414600Y-106630608D01*
X117465163Y-106606598D01*
X117502505Y-106591787D01*
X117569915Y-106580070D01*
X117665622Y-106574957D01*
X117695877Y-106574104D01*
X117757210Y-106570347D01*
X117800123Y-106564798D01*
X117816769Y-106558322D01*
X117812152Y-106546780D01*
X117783826Y-106525574D01*
X117738753Y-106505001D01*
X117687274Y-106489442D01*
X117639730Y-106483282D01*
X117636810Y-106483307D01*
X117574145Y-106491177D01*
X117513707Y-106508870D01*
X117475438Y-106524608D01*
X117449916Y-106532339D01*
X117440761Y-106527019D01*
X117439575Y-106508619D01*
X117442847Y-106496489D01*
X117463621Y-106461418D01*
X117497213Y-106419888D01*
X117535133Y-106385795D01*
X117598644Y-106358734D01*
X117666279Y-106365426D01*
X117738712Y-106405831D01*
X117741046Y-106407608D01*
X117778003Y-106433143D01*
X117797825Y-106438053D01*
X117808364Y-106424434D01*
X117811296Y-106400412D01*
X117793581Y-106359018D01*
X117754336Y-106319796D01*
X117701034Y-106287943D01*
X117641151Y-106268658D01*
X117582162Y-106267139D01*
X117581011Y-106267331D01*
X117525657Y-106284795D01*
X117473144Y-106313088D01*
X117471562Y-106314228D01*
X117423728Y-106361794D01*
X117384120Y-106424189D01*
X117356719Y-106491682D01*
X117345508Y-106554543D01*
X116657969Y-106554543D01*
X116637135Y-106520854D01*
X116597491Y-106478643D01*
X116519459Y-106427371D01*
X116433030Y-106401372D01*
X116345913Y-106402478D01*
X116265817Y-106432523D01*
X116227967Y-106462584D01*
X116180698Y-106531070D01*
X116153148Y-106616827D01*
X116145565Y-106713082D01*
X115769512Y-106713082D01*
X115764811Y-106697247D01*
X115739994Y-106608610D01*
X115723632Y-106538544D01*
X115714076Y-106477753D01*
X115709673Y-106416942D01*
X115708773Y-106346815D01*
X115709233Y-106300636D01*
X115710194Y-106280528D01*
X115959802Y-106280528D01*
X115960463Y-106327462D01*
X115970196Y-106351047D01*
X115986331Y-106347697D01*
X116006198Y-106313831D01*
X116015449Y-106295883D01*
X116049514Y-106248688D01*
X116092625Y-106203247D01*
X116115300Y-106184190D01*
X116181261Y-106145812D01*
X116254752Y-106130101D01*
X116342356Y-106136331D01*
X116450656Y-106163776D01*
X116469401Y-106169483D01*
X116531974Y-106185876D01*
X116576859Y-106193353D01*
X116596850Y-106190592D01*
X116598565Y-106167855D01*
X116575874Y-106131278D01*
X116529914Y-106089823D01*
X116465130Y-106048292D01*
X116406083Y-106020948D01*
X116391775Y-106017517D01*
X117226077Y-106017517D01*
X117229194Y-106066623D01*
X117233481Y-106076474D01*
X117244825Y-106087714D01*
X117261970Y-106080425D01*
X117289562Y-106051506D01*
X117332246Y-105997859D01*
X117372487Y-105950171D01*
X117448700Y-105885179D01*
X117526800Y-105853025D01*
X117609357Y-105852911D01*
X117698941Y-105884041D01*
X117721822Y-105894856D01*
X117759239Y-105909837D01*
X117776931Y-105912795D01*
X117779120Y-105905873D01*
X117767271Y-105877136D01*
X117735899Y-105835021D01*
X117689287Y-105785740D01*
X117640322Y-105748920D01*
X117560620Y-105719470D01*
X117477717Y-105718654D01*
X117400392Y-105747630D01*
X117373946Y-105766853D01*
X117322261Y-105820265D01*
X117277277Y-105885643D01*
X117243660Y-105954292D01*
X117226077Y-106017517D01*
X116391775Y-106017517D01*
X116303460Y-105996340D01*
X116206054Y-105999803D01*
X116118573Y-106029395D01*
X116045723Y-106083174D01*
X115992213Y-106159198D01*
X115962750Y-106255526D01*
X115959802Y-106280528D01*
X115710194Y-106280528D01*
X115712492Y-106232417D01*
X115720898Y-106179557D01*
X115736853Y-106129781D01*
X115762755Y-106070816D01*
X115778348Y-106039057D01*
X115861550Y-105909168D01*
X115962871Y-105808030D01*
X116082900Y-105735156D01*
X116222225Y-105690058D01*
X116359148Y-105675487D01*
X116506663Y-105692171D01*
X116651829Y-105742664D01*
X116794017Y-105826817D01*
X116877327Y-105886669D01*
X116894929Y-105839543D01*
X116913541Y-105792844D01*
X116985089Y-105655916D01*
X117070715Y-105547501D01*
X117169143Y-105468699D01*
X117279100Y-105420611D01*
X117399309Y-105404337D01*
X117452113Y-105406952D01*
X117550571Y-105429276D01*
X117645109Y-105477151D01*
X117743351Y-105553892D01*
X117758495Y-105567982D01*
X117838281Y-105661872D01*
X117903986Y-105777488D01*
X117952279Y-105905873D01*
X117956678Y-105917568D01*
G37*
G36*
X122061112Y-106025113D02*
G01*
X122048187Y-106123782D01*
X122010773Y-106235443D01*
X122006062Y-106246518D01*
X121982711Y-106302410D01*
X121966273Y-106343404D01*
X121960059Y-106361289D01*
X121968377Y-106356788D01*
X121995480Y-106334523D01*
X122034871Y-106299259D01*
X122056665Y-106279862D01*
X122146927Y-106215144D01*
X122230038Y-106181195D01*
X122304407Y-106178156D01*
X122368446Y-106206165D01*
X122420565Y-106265362D01*
X122433897Y-106290525D01*
X122451848Y-106367469D01*
X122448966Y-106385792D01*
X122438658Y-106451329D01*
X122393951Y-106543489D01*
X122317350Y-106645337D01*
X122303091Y-106661809D01*
X122252840Y-106719892D01*
X122222031Y-106756784D01*
X122208607Y-106776498D01*
X122210512Y-106783047D01*
X122225692Y-106780440D01*
X122252089Y-106772691D01*
X122290890Y-106762880D01*
X122358636Y-106756960D01*
X122413275Y-106773410D01*
X122464988Y-106814216D01*
X122492507Y-106844444D01*
X122516540Y-106887440D01*
X122522923Y-106937889D01*
X122522369Y-106949643D01*
X122521423Y-106969692D01*
X122512288Y-107012614D01*
X122492044Y-107053096D01*
X122457487Y-107094150D01*
X122405417Y-107138788D01*
X122332630Y-107190023D01*
X122235923Y-107250867D01*
X122112096Y-107324333D01*
X122096822Y-107333268D01*
X122026864Y-107375733D01*
X121976887Y-107411151D01*
X121938373Y-107447292D01*
X121902806Y-107491927D01*
X121861670Y-107552826D01*
X121851738Y-107567737D01*
X121796557Y-107643565D01*
X121735706Y-107718506D01*
X121680645Y-107778287D01*
X121586501Y-107870673D01*
X121628283Y-107920328D01*
X121649232Y-107950495D01*
X121672547Y-108018372D01*
X121670836Y-108053011D01*
X121669196Y-108086195D01*
X121638711Y-108143964D01*
X121634073Y-108149751D01*
X121620099Y-108181492D01*
X121612627Y-108232373D01*
X121610399Y-108309765D01*
X121610391Y-108316518D01*
X121608882Y-108384665D01*
X121603302Y-108428859D01*
X121591545Y-108458470D01*
X121571506Y-108482865D01*
X121562468Y-108490927D01*
X121504842Y-108517807D01*
X121432245Y-108523974D01*
X121354554Y-108509689D01*
X121281647Y-108475212D01*
X121211301Y-108428659D01*
X121178364Y-108475212D01*
X121177855Y-108475937D01*
X121154914Y-108515990D01*
X121126629Y-108575253D01*
X121099002Y-108641174D01*
X121091232Y-108660870D01*
X121040341Y-108780424D01*
X120978456Y-108913618D01*
X120909509Y-109052895D01*
X120837434Y-109190696D01*
X120766165Y-109319466D01*
X120699633Y-109431647D01*
X120641773Y-109519683D01*
X120586725Y-109594509D01*
X120465001Y-109740112D01*
X120345017Y-109854650D01*
X120224361Y-109939960D01*
X120100622Y-109997877D01*
X119971386Y-110030240D01*
X119968789Y-110030629D01*
X119860931Y-110038738D01*
X119726633Y-110036224D01*
X119571471Y-110023792D01*
X119401023Y-110002146D01*
X119220866Y-109971992D01*
X119036576Y-109934035D01*
X118853731Y-109888978D01*
X118823733Y-109880921D01*
X118726994Y-109854435D01*
X118659603Y-109834058D01*
X118618667Y-109817716D01*
X118601292Y-109803334D01*
X118604587Y-109788838D01*
X118625659Y-109772153D01*
X118661615Y-109751206D01*
X118665591Y-109748979D01*
X118699792Y-109730654D01*
X118729760Y-109718805D01*
X118761736Y-109713653D01*
X118801961Y-109715419D01*
X118856676Y-109724327D01*
X118932122Y-109740596D01*
X119034538Y-109764450D01*
X119136523Y-109787841D01*
X119286529Y-109819237D01*
X119417291Y-109841809D01*
X119537056Y-109856709D01*
X119654070Y-109865089D01*
X119776580Y-109868101D01*
X119857022Y-109868261D01*
X119929622Y-109866939D01*
X119982442Y-109862965D01*
X120023328Y-109855285D01*
X120060128Y-109842847D01*
X120100690Y-109824595D01*
X120137797Y-109805085D01*
X120208276Y-109761027D01*
X120267714Y-109716048D01*
X120286107Y-109699252D01*
X120357956Y-109622374D01*
X120438132Y-109522066D01*
X120522432Y-109404398D01*
X120606654Y-109275440D01*
X120686593Y-109141260D01*
X120758048Y-109007930D01*
X120762032Y-108999950D01*
X120788752Y-108944522D01*
X120820735Y-108875827D01*
X120855178Y-108800181D01*
X120889279Y-108723903D01*
X120920235Y-108653307D01*
X120945243Y-108594711D01*
X120961501Y-108554432D01*
X120966206Y-108538785D01*
X120925974Y-108512796D01*
X120871046Y-108466666D01*
X120832693Y-108412534D01*
X120800727Y-108338037D01*
X120795032Y-108322728D01*
X120782507Y-108302212D01*
X120761896Y-108301255D01*
X120721529Y-108316714D01*
X120677766Y-108331614D01*
X120600530Y-108342997D01*
X120530690Y-108336112D01*
X120476071Y-108312206D01*
X120444498Y-108272528D01*
X120439861Y-108263772D01*
X120428643Y-108261746D01*
X120409908Y-108278175D01*
X120380137Y-108316552D01*
X120335808Y-108380369D01*
X120329922Y-108389004D01*
X120239392Y-108514912D01*
X120145352Y-108634071D01*
X120051352Y-108742755D01*
X119960946Y-108837240D01*
X119877686Y-108913798D01*
X119805122Y-108968705D01*
X119746808Y-108998232D01*
X119745200Y-108998686D01*
X119705240Y-108999510D01*
X119640913Y-108990162D01*
X119559316Y-108972364D01*
X119467547Y-108947836D01*
X119372704Y-108918301D01*
X119281886Y-108885479D01*
X119280243Y-108884832D01*
X119223304Y-108860748D01*
X119143463Y-108824786D01*
X119047990Y-108780329D01*
X118944150Y-108730759D01*
X118839211Y-108679458D01*
X118754693Y-108637545D01*
X118670936Y-108595513D01*
X118611968Y-108564689D01*
X118574528Y-108542886D01*
X118555354Y-108527917D01*
X118551184Y-108517592D01*
X118558755Y-108509725D01*
X118574805Y-108502128D01*
X118580552Y-108499688D01*
X118634136Y-108479179D01*
X118679925Y-108469116D01*
X118725497Y-108470622D01*
X118778430Y-108484822D01*
X118846304Y-108512839D01*
X118936697Y-108555798D01*
X119009696Y-108590799D01*
X119161556Y-108659759D01*
X119304559Y-108719610D01*
X119434534Y-108768825D01*
X119547308Y-108805872D01*
X119638708Y-108829222D01*
X119704562Y-108837345D01*
X119713649Y-108835845D01*
X119752751Y-108814016D01*
X119806387Y-108769334D01*
X119871061Y-108705836D01*
X119943276Y-108627556D01*
X120019537Y-108538531D01*
X120096347Y-108442796D01*
X120170210Y-108344388D01*
X120237630Y-108247341D01*
X120295109Y-108155691D01*
X120297819Y-108151060D01*
X120327520Y-108099238D01*
X120348571Y-108060602D01*
X120356567Y-108043215D01*
X120344344Y-108038048D01*
X120310777Y-108035599D01*
X120251432Y-108025356D01*
X120187410Y-107997382D01*
X120133068Y-107958580D01*
X120100558Y-107915871D01*
X120099579Y-107913465D01*
X120087968Y-107851144D01*
X120088152Y-107850487D01*
X120237158Y-107850487D01*
X120241021Y-107856622D01*
X120269452Y-107871451D01*
X120317643Y-107887303D01*
X120376176Y-107901698D01*
X120435632Y-107912154D01*
X120486594Y-107916190D01*
X120504790Y-107916647D01*
X120547135Y-107921834D01*
X120568373Y-107930945D01*
X120570310Y-107946417D01*
X120566714Y-107987733D01*
X120557165Y-108042605D01*
X120552723Y-108066156D01*
X120548680Y-108138199D01*
X120565256Y-108183483D01*
X120603013Y-108202367D01*
X120662509Y-108195208D01*
X120744305Y-108162365D01*
X120774472Y-108148247D01*
X120829472Y-108129944D01*
X120866112Y-108135219D01*
X120890934Y-108166602D01*
X120910480Y-108226620D01*
X120916120Y-108246777D01*
X120937138Y-108304984D01*
X120959470Y-108349498D01*
X120986871Y-108380748D01*
X121012193Y-108393826D01*
X121018037Y-108392719D01*
X121047507Y-108373088D01*
X121084126Y-108335868D01*
X121119714Y-108290151D01*
X121146091Y-108245027D01*
X121169517Y-108212817D01*
X121199187Y-108211504D01*
X121236697Y-108242798D01*
X121250099Y-108256999D01*
X121297884Y-108299316D01*
X121351023Y-108337864D01*
X121399627Y-108365922D01*
X121433807Y-108376768D01*
X121445835Y-108373593D01*
X121462113Y-108347265D01*
X121464882Y-108300279D01*
X121454265Y-108239896D01*
X121430384Y-108173376D01*
X121414890Y-108134553D01*
X121410432Y-108095720D01*
X121430453Y-108075815D01*
X121477152Y-108069977D01*
X121496805Y-108068346D01*
X121523077Y-108053011D01*
X121519658Y-108023087D01*
X121486351Y-107980479D01*
X121455744Y-107951623D01*
X121430370Y-107938378D01*
X121398078Y-107938892D01*
X121345761Y-107950354D01*
X121230928Y-107964261D01*
X121096278Y-107948545D01*
X120957815Y-107899612D01*
X120828229Y-107827068D01*
X120720274Y-107737749D01*
X120630056Y-107627013D01*
X120628698Y-107625018D01*
X120582768Y-107564460D01*
X120540151Y-107528679D01*
X120490288Y-107511569D01*
X120422624Y-107507021D01*
X120365890Y-107513176D01*
X120339860Y-107532389D01*
X120345393Y-107564541D01*
X120382536Y-107609508D01*
X120401944Y-107629053D01*
X120430591Y-107661600D01*
X120441859Y-107680281D01*
X120441287Y-107682472D01*
X120422820Y-107699878D01*
X120386419Y-107721528D01*
X120373244Y-107728649D01*
X120327134Y-107759125D01*
X120283115Y-107794746D01*
X120250139Y-107827778D01*
X120237158Y-107850487D01*
X120088152Y-107850487D01*
X120105448Y-107788776D01*
X120153556Y-107720699D01*
X120168567Y-107703267D01*
X120191771Y-107669822D01*
X120196461Y-107640927D01*
X120186587Y-107602440D01*
X120181496Y-107585541D01*
X120176737Y-107536712D01*
X120192247Y-107483990D01*
X120199030Y-107469098D01*
X120245204Y-107408559D01*
X120312285Y-107373252D01*
X120402659Y-107361791D01*
X120437935Y-107361791D01*
X120477540Y-107361791D01*
X120492960Y-107361791D01*
X120492619Y-107359826D01*
X120488174Y-107334501D01*
X120479662Y-107286091D01*
X120468457Y-107222407D01*
X120462434Y-107189950D01*
X120439786Y-107097657D01*
X120408591Y-107018672D01*
X120363290Y-106940901D01*
X120298325Y-106852251D01*
X120271284Y-106816543D01*
X120239632Y-106767004D01*
X120224179Y-106725405D01*
X120220099Y-106681197D01*
X120220614Y-106676815D01*
X120367003Y-106676815D01*
X120374147Y-106702565D01*
X120403975Y-106741895D01*
X120447570Y-106796196D01*
X120500825Y-106871454D01*
X120545819Y-106944365D01*
X120575117Y-107003564D01*
X120580987Y-107021065D01*
X120595288Y-107073790D01*
X120611910Y-107144153D01*
X120628333Y-107221822D01*
X120635907Y-107257066D01*
X120657717Y-107340229D01*
X120682115Y-107414336D01*
X120705232Y-107467053D01*
X120720982Y-107496671D01*
X120741059Y-107540292D01*
X120748911Y-107566469D01*
X120751161Y-107574763D01*
X120773391Y-107605760D01*
X120813350Y-107646441D01*
X120863549Y-107690104D01*
X120916499Y-107730048D01*
X120964710Y-107759571D01*
X120991316Y-107772033D01*
X121056392Y-107798076D01*
X121123027Y-107820487D01*
X121170308Y-107833781D01*
X121226965Y-107845569D01*
X121263521Y-107845305D01*
X121287104Y-107833558D01*
X121304185Y-107823289D01*
X121345796Y-107803623D01*
X121399958Y-107780985D01*
X121457538Y-107755137D01*
X121528878Y-107710795D01*
X121595648Y-107651606D01*
X121663809Y-107572047D01*
X121739321Y-107466597D01*
X121778181Y-107409518D01*
X121811047Y-107364499D01*
X121842930Y-107327443D01*
X121878907Y-107294159D01*
X121924055Y-107260457D01*
X121983449Y-107222145D01*
X122062166Y-107175033D01*
X122165281Y-107114930D01*
X122166801Y-107114047D01*
X122260431Y-107057530D01*
X122325710Y-107012848D01*
X122365271Y-106977664D01*
X122381748Y-106949643D01*
X122377773Y-106926449D01*
X122374456Y-106922050D01*
X122349749Y-106911036D01*
X122306722Y-106914501D01*
X122242632Y-106933198D01*
X122154737Y-106967882D01*
X122040295Y-107019307D01*
X121805595Y-107128870D01*
X121777477Y-107083276D01*
X121756317Y-107051700D01*
X121672484Y-106955711D01*
X121571625Y-106869924D01*
X121687124Y-106869924D01*
X121688300Y-106876140D01*
X121704880Y-106907064D01*
X121734807Y-106945512D01*
X121782489Y-106998878D01*
X121976038Y-106796520D01*
X122011586Y-106759061D01*
X122082576Y-106682621D01*
X122147776Y-106610414D01*
X122201165Y-106549160D01*
X122236722Y-106505579D01*
X122279781Y-106439005D01*
X122297847Y-106385792D01*
X122289173Y-106349779D01*
X122253586Y-106332739D01*
X122252621Y-106332622D01*
X122233718Y-106336303D01*
X122206235Y-106352150D01*
X122167188Y-106382677D01*
X122113590Y-106430394D01*
X122042456Y-106497814D01*
X121950799Y-106587447D01*
X121919805Y-106618193D01*
X121845472Y-106693269D01*
X121781501Y-106759769D01*
X121731427Y-106813905D01*
X121698789Y-106851886D01*
X121687124Y-106869924D01*
X121571625Y-106869924D01*
X121566439Y-106865513D01*
X121447025Y-106787982D01*
X121323082Y-106729992D01*
X121284094Y-106714766D01*
X121255683Y-106698238D01*
X121248956Y-106682446D01*
X121431248Y-106682446D01*
X121433154Y-106687355D01*
X121455604Y-106707603D01*
X121495217Y-106731290D01*
X121510250Y-106738940D01*
X121549381Y-106758818D01*
X121570513Y-106769499D01*
X121573344Y-106767919D01*
X121589476Y-106744603D01*
X121616410Y-106697874D01*
X121651462Y-106633045D01*
X121691954Y-106555429D01*
X121735202Y-106470339D01*
X121778526Y-106383088D01*
X121819244Y-106298989D01*
X121854674Y-106223354D01*
X121882136Y-106161498D01*
X121898948Y-106118733D01*
X121908407Y-106087410D01*
X121917591Y-106024310D01*
X121906178Y-105985044D01*
X121874485Y-105971529D01*
X121852664Y-105977557D01*
X121826793Y-105998478D01*
X121795285Y-106037477D01*
X121755876Y-106097733D01*
X121706304Y-106182424D01*
X121644304Y-106294728D01*
X121636056Y-106309910D01*
X121589438Y-106394826D01*
X121544778Y-106474842D01*
X121506794Y-106541567D01*
X121480202Y-106586608D01*
X121461048Y-106619042D01*
X121439594Y-106659819D01*
X121431248Y-106682446D01*
X121248956Y-106682446D01*
X121247184Y-106678285D01*
X121251543Y-106646692D01*
X121267340Y-106565633D01*
X121286552Y-106448538D01*
X121302390Y-106330265D01*
X121314357Y-106216597D01*
X121321958Y-106113317D01*
X121324696Y-106026209D01*
X121322073Y-105961054D01*
X121313596Y-105923637D01*
X121294820Y-105898806D01*
X121261887Y-105887777D01*
X121228350Y-105909652D01*
X121226856Y-105912069D01*
X121216582Y-105941958D01*
X121201596Y-105998772D01*
X121183185Y-106077093D01*
X121162635Y-106171500D01*
X121141233Y-106276573D01*
X121123713Y-106362806D01*
X121086381Y-106527080D01*
X121048099Y-106667103D01*
X121006932Y-106789584D01*
X120960943Y-106901228D01*
X120960436Y-106903025D01*
X120972331Y-106921398D01*
X121005417Y-106941404D01*
X121085476Y-106989672D01*
X121165252Y-107069686D01*
X121223616Y-107166944D01*
X121254315Y-107273110D01*
X121255657Y-107283623D01*
X121257193Y-107335435D01*
X121246030Y-107384588D01*
X121219012Y-107446578D01*
X121196105Y-107490045D01*
X121172884Y-107526784D01*
X121158374Y-107540905D01*
X121157037Y-107540326D01*
X121151970Y-107519332D01*
X121150698Y-107474222D01*
X121153537Y-107413283D01*
X121156708Y-107330202D01*
X121150597Y-107266389D01*
X121133872Y-107208895D01*
X121098890Y-107144938D01*
X121035868Y-107073216D01*
X120959617Y-107014931D01*
X120880972Y-106979893D01*
X120839604Y-106967660D01*
X120800914Y-106949926D01*
X120767209Y-106922823D01*
X120730750Y-106879860D01*
X120683799Y-106814549D01*
X120656158Y-106777943D01*
X120593385Y-106712740D01*
X120528737Y-106665877D01*
X120467349Y-106639907D01*
X120414356Y-106637386D01*
X120374893Y-106660868D01*
X120367003Y-106676815D01*
X120220614Y-106676815D01*
X120227123Y-106621422D01*
X120260450Y-106556435D01*
X120322638Y-106508773D01*
X120340866Y-106500378D01*
X120425055Y-106483337D01*
X120515137Y-106495360D01*
X120605687Y-106534300D01*
X120691278Y-106598011D01*
X120766487Y-106684348D01*
X120791033Y-106719118D01*
X120816929Y-106755483D01*
X120829559Y-106772782D01*
X120836029Y-106775727D01*
X120852564Y-106756863D01*
X120873693Y-106706209D01*
X120899035Y-106625051D01*
X120928205Y-106514675D01*
X120960823Y-106376367D01*
X120996505Y-106211412D01*
X121018560Y-106109091D01*
X121047836Y-105988571D01*
X121076071Y-105896041D01*
X121105239Y-105828058D01*
X121137312Y-105781178D01*
X121174263Y-105751956D01*
X121218064Y-105736949D01*
X121270688Y-105732711D01*
X121314060Y-105736332D01*
X121377259Y-105762114D01*
X121424342Y-105815025D01*
X121458462Y-105897839D01*
X121461347Y-105908088D01*
X121472522Y-105960273D01*
X121477576Y-106017031D01*
X121476452Y-106085598D01*
X121469094Y-106173212D01*
X121455446Y-106287110D01*
X121452553Y-106314243D01*
X121454443Y-106326604D01*
X121464221Y-106316647D01*
X121484358Y-106281646D01*
X121517325Y-106218877D01*
X121551295Y-106154380D01*
X121616121Y-106039205D01*
X121672952Y-105951640D01*
X121724427Y-105888713D01*
X121773186Y-105847447D01*
X121821869Y-105824869D01*
X121873117Y-105818004D01*
X121887047Y-105818360D01*
X121962515Y-105836059D01*
X122017319Y-105878351D01*
X122050504Y-105942336D01*
X122061009Y-106024310D01*
X122061112Y-106025113D01*
G37*
G36*
X114330893Y-104465404D02*
G01*
X114303116Y-104564209D01*
X114273422Y-104617053D01*
X114202462Y-104696017D01*
X114113833Y-104753608D01*
X114014800Y-104785661D01*
X113912628Y-104788013D01*
X113898449Y-104785815D01*
X113795550Y-104752746D01*
X113710979Y-104695696D01*
X113646582Y-104620009D01*
X113604206Y-104531030D01*
X113585698Y-104434104D01*
X113586712Y-104420105D01*
X113739404Y-104420105D01*
X113757417Y-104498226D01*
X113799907Y-104565577D01*
X113864417Y-104613568D01*
X113890388Y-104625698D01*
X113922832Y-104638264D01*
X113939768Y-104637298D01*
X113951080Y-104623989D01*
X113952015Y-104621703D01*
X113944319Y-104597835D01*
X113917970Y-104566593D01*
X113895463Y-104540138D01*
X113875021Y-104486985D01*
X113880515Y-104435125D01*
X113912276Y-104394592D01*
X113957002Y-104371964D01*
X114000520Y-104375804D01*
X114045495Y-104411265D01*
X114066240Y-104435781D01*
X114076943Y-104465619D01*
X114067682Y-104503302D01*
X114065181Y-104510337D01*
X114058254Y-104554673D01*
X114070149Y-104580430D01*
X114098390Y-104581310D01*
X114118084Y-104568839D01*
X114150149Y-104525243D01*
X114172819Y-104463800D01*
X114181416Y-104395007D01*
X114176331Y-104347236D01*
X114146960Y-104278316D01*
X114097152Y-104226681D01*
X114033471Y-104194047D01*
X113962483Y-104182131D01*
X113890753Y-104192646D01*
X113824844Y-104227310D01*
X113771323Y-104287838D01*
X113748322Y-104339802D01*
X113739404Y-104420105D01*
X113586712Y-104420105D01*
X113592905Y-104334575D01*
X113627673Y-104237788D01*
X113691850Y-104149087D01*
X113705237Y-104135720D01*
X113750923Y-104096106D01*
X113790808Y-104068928D01*
X113794470Y-104066971D01*
X113816604Y-104050994D01*
X113830303Y-104027199D01*
X113838798Y-103986828D01*
X113845319Y-103921123D01*
X113869000Y-103758119D01*
X113925197Y-103562883D01*
X114008642Y-103378119D01*
X114116618Y-103207984D01*
X114246407Y-103056638D01*
X114395290Y-102928239D01*
X114560549Y-102826946D01*
X114677852Y-102774601D01*
X114794843Y-102737653D01*
X114921042Y-102714394D01*
X115068454Y-102701865D01*
X115129432Y-102700189D01*
X115344377Y-102715574D01*
X115560881Y-102762785D01*
X115776708Y-102840267D01*
X115989619Y-102946466D01*
X116197375Y-103079826D01*
X116397738Y-103238793D01*
X116588471Y-103421812D01*
X116767333Y-103627327D01*
X116932089Y-103853784D01*
X117080498Y-104099629D01*
X117152953Y-104232093D01*
X117297091Y-104095654D01*
X117381731Y-104020735D01*
X117570487Y-103884807D01*
X117774379Y-103775850D01*
X117988559Y-103696245D01*
X118208179Y-103648371D01*
X118354693Y-103638548D01*
X118535543Y-103651057D01*
X118718699Y-103687373D01*
X118894560Y-103745510D01*
X119053523Y-103823476D01*
X119115684Y-103865732D01*
X119193563Y-103927756D01*
X119275999Y-104000287D01*
X119354848Y-104075830D01*
X119421966Y-104146893D01*
X119469210Y-104205982D01*
X119558356Y-104353174D01*
X119642159Y-104532566D01*
X119705468Y-104718101D01*
X119745545Y-104901586D01*
X119759653Y-105074830D01*
X119759673Y-105083772D01*
X119759687Y-105090118D01*
X119761471Y-105141744D01*
X119769801Y-105172705D01*
X119789910Y-105194022D01*
X119827032Y-105216711D01*
X119851688Y-105232076D01*
X119929753Y-105303630D01*
X119982143Y-105391405D01*
X120007923Y-105489439D01*
X120007327Y-105523943D01*
X120006156Y-105591772D01*
X119975910Y-105692442D01*
X119916247Y-105785490D01*
X119837883Y-105856711D01*
X119739502Y-105903903D01*
X119627133Y-105919980D01*
X119570738Y-105916292D01*
X119469892Y-105887707D01*
X119385234Y-105835006D01*
X119319016Y-105763176D01*
X119273492Y-105677207D01*
X119250915Y-105582087D01*
X119251663Y-105553767D01*
X119404752Y-105553767D01*
X119421670Y-105627565D01*
X119462727Y-105691933D01*
X119527815Y-105739425D01*
X119535820Y-105743141D01*
X119577525Y-105759984D01*
X119604309Y-105766828D01*
X119613328Y-105765117D01*
X119622997Y-105747779D01*
X119614025Y-105721558D01*
X119589139Y-105698702D01*
X119584019Y-105695722D01*
X119551531Y-105657524D01*
X119543414Y-105606209D01*
X119561863Y-105553474D01*
X119567600Y-105545492D01*
X119607882Y-105515067D01*
X119654544Y-105508481D01*
X119699539Y-105521817D01*
X119734822Y-105551158D01*
X119752347Y-105592586D01*
X119744066Y-105642184D01*
X119734035Y-105676063D01*
X119738794Y-105701749D01*
X119742881Y-105705277D01*
X119772408Y-105708956D01*
X119805576Y-105684353D01*
X119836895Y-105635195D01*
X119849726Y-105601868D01*
X119858228Y-105523943D01*
X119839932Y-105451418D01*
X119799853Y-105389054D01*
X119743008Y-105341609D01*
X119674410Y-105313843D01*
X119599077Y-105310515D01*
X119522022Y-105336385D01*
X119499901Y-105350252D01*
X119443761Y-105407665D01*
X119412080Y-105477985D01*
X119404752Y-105553767D01*
X119251663Y-105553767D01*
X119253537Y-105482805D01*
X119283612Y-105384350D01*
X119343393Y-105291710D01*
X119399422Y-105226252D01*
X119342910Y-105142337D01*
X119324057Y-105115671D01*
X119245423Y-105024427D01*
X119157844Y-104948119D01*
X119070992Y-104895526D01*
X119054361Y-104888734D01*
X118968149Y-104868537D01*
X118869030Y-104863015D01*
X118771517Y-104872152D01*
X118690124Y-104895933D01*
X118668547Y-104906385D01*
X118560201Y-104980490D01*
X118463672Y-105083851D01*
X118381426Y-105213372D01*
X118315929Y-105365955D01*
X118302546Y-105405935D01*
X118287415Y-105458814D01*
X118277511Y-105510231D01*
X118271703Y-105569080D01*
X118268863Y-105644253D01*
X118267863Y-105744643D01*
X118267809Y-105774905D01*
X118269028Y-105874175D01*
X118272745Y-105943864D01*
X118279241Y-105987539D01*
X118288801Y-106008764D01*
X118324989Y-106025521D01*
X118382555Y-106031772D01*
X118450165Y-106027938D01*
X118516701Y-106014658D01*
X118571046Y-105992568D01*
X118632459Y-105963231D01*
X118682466Y-105956326D01*
X118713017Y-105975718D01*
X118720089Y-105991033D01*
X118732527Y-106044881D01*
X118739435Y-106116252D01*
X118740017Y-106193842D01*
X118733478Y-106266347D01*
X118706353Y-106378508D01*
X118648437Y-106508380D01*
X118567665Y-106618323D01*
X118536585Y-106653900D01*
X118508161Y-106692550D01*
X118497198Y-106716428D01*
X118502890Y-106731030D01*
X118527669Y-106764937D01*
X118565432Y-106805415D01*
X118573871Y-106813800D01*
X118618355Y-106869368D01*
X118633665Y-106914950D01*
X118630742Y-106935268D01*
X118606108Y-106989302D01*
X118561486Y-107050126D01*
X118503038Y-107110024D01*
X118436926Y-107161282D01*
X118383318Y-107196806D01*
X118342671Y-107226473D01*
X118320551Y-107248887D01*
X118311374Y-107269930D01*
X118309555Y-107295487D01*
X118308553Y-107311389D01*
X118295582Y-107373761D01*
X118270012Y-107454896D01*
X118234873Y-107546653D01*
X118193194Y-107640893D01*
X118148006Y-107729475D01*
X118129028Y-107763907D01*
X118099071Y-107818842D01*
X118078427Y-107857500D01*
X118070737Y-107873114D01*
X118075455Y-107874384D01*
X118106431Y-107877981D01*
X118159952Y-107882599D01*
X118228528Y-107887554D01*
X118358792Y-107901635D01*
X118550954Y-107942930D01*
X118751851Y-108010719D01*
X118872902Y-108058212D01*
X118912929Y-108020608D01*
X118943172Y-107996725D01*
X119019986Y-107964407D01*
X119103639Y-107960480D01*
X119186345Y-107984589D01*
X119260319Y-108036382D01*
X119315284Y-108107730D01*
X119343162Y-108192193D01*
X119342519Y-108203012D01*
X119337859Y-108281441D01*
X119299050Y-108372659D01*
X119254937Y-108427169D01*
X119183345Y-108474583D01*
X119101920Y-108495597D01*
X119017770Y-108489821D01*
X118938001Y-108456862D01*
X118869720Y-108396329D01*
X118829837Y-108346980D01*
X118553668Y-108424031D01*
X118277499Y-108501082D01*
X118345851Y-108601735D01*
X118388074Y-108668109D01*
X118448795Y-108777875D01*
X118502574Y-108891382D01*
X118544709Y-108998432D01*
X118570498Y-109088830D01*
X118570978Y-109091179D01*
X118584514Y-109149352D01*
X118600095Y-109185190D01*
X118624997Y-109209680D01*
X118666496Y-109233813D01*
X118692577Y-109249406D01*
X118756318Y-109309703D01*
X118793606Y-109383084D01*
X118801013Y-109444405D01*
X118803242Y-109462856D01*
X118784027Y-109542325D01*
X118734762Y-109614798D01*
X118720951Y-109628211D01*
X118645961Y-109677553D01*
X118566889Y-109697407D01*
X118489429Y-109690147D01*
X118419273Y-109658148D01*
X118362114Y-109603784D01*
X118323644Y-109529429D01*
X118309692Y-109438352D01*
X118431905Y-109438352D01*
X118438453Y-109479311D01*
X118457527Y-109513772D01*
X118492933Y-109549660D01*
X118495583Y-109551394D01*
X118524125Y-109565647D01*
X118529154Y-109555646D01*
X118511018Y-109520836D01*
X118499493Y-109490793D01*
X118513107Y-109461363D01*
X118549194Y-109437282D01*
X118588887Y-109439547D01*
X118620733Y-109465283D01*
X118634348Y-109510300D01*
X118635837Y-109527696D01*
X118643180Y-109527233D01*
X118660682Y-109497975D01*
X118669389Y-109480664D01*
X118677336Y-109444405D01*
X118664264Y-109404653D01*
X118655975Y-109389214D01*
X118612929Y-109343464D01*
X118560932Y-109327891D01*
X118506473Y-109342978D01*
X118456039Y-109389204D01*
X118448837Y-109399291D01*
X118431905Y-109438352D01*
X118309692Y-109438352D01*
X118309555Y-109437457D01*
X118309555Y-109368917D01*
X118024148Y-109189869D01*
X117738740Y-109010821D01*
X117710961Y-109201282D01*
X117698631Y-109282591D01*
X117681561Y-109380031D01*
X117662701Y-109465463D01*
X117639082Y-109551860D01*
X117607733Y-109652196D01*
X117573054Y-109759122D01*
X117624883Y-109818151D01*
X117649496Y-109850266D01*
X117684989Y-109931292D01*
X117685860Y-109953081D01*
X117688319Y-110014602D01*
X117659863Y-110094940D01*
X117599995Y-110167050D01*
X117581897Y-110182303D01*
X117546005Y-110208654D01*
X117524274Y-110219078D01*
X117522964Y-110219472D01*
X117515264Y-110239626D01*
X117514654Y-110244666D01*
X117509853Y-110284342D01*
X117507809Y-110345345D01*
X117507272Y-110371033D01*
X117503768Y-110440289D01*
X117497432Y-110533155D01*
X117488772Y-110642985D01*
X117478294Y-110763132D01*
X117466505Y-110886950D01*
X117460390Y-110948662D01*
X117444021Y-111117292D01*
X117431148Y-111257389D01*
X117421568Y-111373012D01*
X117415080Y-111468215D01*
X117411479Y-111547056D01*
X117410565Y-111613591D01*
X117412134Y-111671876D01*
X117415983Y-111725969D01*
X117421910Y-111779924D01*
X117422899Y-111787586D01*
X117424066Y-111795023D01*
X117435507Y-111867926D01*
X117455014Y-111973642D01*
X117480005Y-112097893D01*
X117509063Y-112233837D01*
X117540773Y-112374632D01*
X117573718Y-112513437D01*
X117586213Y-112564612D01*
X117634713Y-112482238D01*
X117696916Y-112361332D01*
X117764037Y-112187311D01*
X117817117Y-111994274D01*
X117829923Y-111941653D01*
X117847794Y-111880156D01*
X117863696Y-111838132D01*
X117875261Y-111822570D01*
X117889238Y-111826610D01*
X117929321Y-111843454D01*
X117987063Y-111870383D01*
X118055209Y-111904108D01*
X118147532Y-111948154D01*
X118267170Y-111993701D01*
X118376583Y-112019277D01*
X118484086Y-112027272D01*
X118570721Y-112027272D01*
X118469990Y-111961847D01*
X118394641Y-111906285D01*
X118299953Y-111820492D01*
X118210738Y-111723898D01*
X118135178Y-111625507D01*
X118081456Y-111534322D01*
X118069725Y-111509243D01*
X118050357Y-111463239D01*
X118038256Y-111421445D01*
X118031808Y-111374280D01*
X118029398Y-111312167D01*
X118029411Y-111225525D01*
X118029635Y-111199543D01*
X118030844Y-111144314D01*
X118033852Y-111093724D01*
X118039693Y-111043674D01*
X118049400Y-110990065D01*
X118064009Y-110928797D01*
X118084554Y-110855769D01*
X118112070Y-110766883D01*
X118147591Y-110658038D01*
X118192152Y-110525136D01*
X118246787Y-110364075D01*
X118281417Y-110259389D01*
X118316469Y-110147757D01*
X118347406Y-110043561D01*
X118371788Y-109955036D01*
X118387175Y-109890419D01*
X118395546Y-109848646D01*
X118408428Y-109791786D01*
X118422083Y-109760888D01*
X118442247Y-109751220D01*
X118474651Y-109758050D01*
X118525030Y-109776647D01*
X118542135Y-109784340D01*
X118551592Y-109796538D01*
X118553411Y-109820364D01*
X118548120Y-109863132D01*
X118536246Y-109932159D01*
X118525122Y-109982214D01*
X118504085Y-110061523D01*
X118475344Y-110161542D01*
X118440667Y-110276298D01*
X118401820Y-110399818D01*
X118360569Y-110526130D01*
X118329972Y-110618446D01*
X118282342Y-110764967D01*
X118244804Y-110885637D01*
X118216394Y-110984495D01*
X118196150Y-111065576D01*
X118183107Y-111132919D01*
X118176302Y-111190560D01*
X118174771Y-111242536D01*
X118177551Y-111292885D01*
X118195115Y-111383315D01*
X118245898Y-111503712D01*
X118325219Y-111621379D01*
X118430013Y-111732655D01*
X118557216Y-111833879D01*
X118703761Y-111921389D01*
X118734552Y-111937326D01*
X118785441Y-111965957D01*
X118814195Y-111988289D01*
X118826949Y-112009919D01*
X118829837Y-112036447D01*
X118829833Y-112037813D01*
X118824254Y-112071688D01*
X118802617Y-112097125D01*
X118756803Y-112123840D01*
X118683768Y-112160705D01*
X118901799Y-112310383D01*
X118940899Y-112337410D01*
X119116805Y-112463357D01*
X119293614Y-112596577D01*
X119468047Y-112734192D01*
X119636829Y-112873328D01*
X119796682Y-113011107D01*
X119944328Y-113144654D01*
X120076491Y-113271093D01*
X120189893Y-113387547D01*
X120281257Y-113491140D01*
X120347306Y-113578997D01*
X120388626Y-113646235D01*
X120436149Y-113743819D01*
X120468108Y-113843165D01*
X120483916Y-113946753D01*
X120482990Y-114057063D01*
X120464744Y-114176574D01*
X120428593Y-114307767D01*
X120373952Y-114453119D01*
X120300237Y-114615112D01*
X120206861Y-114796224D01*
X120093240Y-114998936D01*
X119958790Y-115225727D01*
X119918154Y-115292840D01*
X119863428Y-115383193D01*
X119800713Y-115486708D01*
X119734947Y-115595240D01*
X119671062Y-115700645D01*
X119654486Y-115728038D01*
X119601034Y-115817050D01*
X119554932Y-115894849D01*
X119518790Y-115956960D01*
X119495222Y-115998910D01*
X119486837Y-116016226D01*
X119495585Y-116025214D01*
X119527862Y-116045326D01*
X119575704Y-116070119D01*
X119637856Y-116107566D01*
X119708746Y-116181184D01*
X119753885Y-116276706D01*
X119773719Y-116394862D01*
X119774688Y-116412572D01*
X119776224Y-116467904D01*
X119771831Y-116501182D01*
X119758942Y-116522038D01*
X119734989Y-116540103D01*
X119704976Y-116556568D01*
X119671796Y-116560457D01*
X119625105Y-116548432D01*
X119584233Y-116536997D01*
X119531740Y-116535291D01*
X119492187Y-116558798D01*
X119456192Y-116610994D01*
X119416812Y-116682382D01*
X119498610Y-116847191D01*
X119507860Y-116865634D01*
X119586246Y-117005525D01*
X119664657Y-117114757D01*
X119745550Y-117196329D01*
X119831386Y-117253239D01*
X119893830Y-117279958D01*
X119972237Y-117292973D01*
X120041366Y-117275678D01*
X120105757Y-117227649D01*
X120156867Y-117176540D01*
X120102295Y-117126697D01*
X120086879Y-117110978D01*
X120045565Y-117056493D01*
X120012543Y-116997323D01*
X119990428Y-116922683D01*
X119989957Y-116849135D01*
X120134498Y-116849135D01*
X120139463Y-116920149D01*
X120177266Y-116987941D01*
X120189647Y-117000953D01*
X120226078Y-117028341D01*
X120263827Y-117046562D01*
X120293422Y-117051761D01*
X120305391Y-117040084D01*
X120296248Y-117020956D01*
X120271275Y-116991274D01*
X120248450Y-116961839D01*
X120237158Y-116931570D01*
X120239602Y-116918133D01*
X120262647Y-116881675D01*
X120299425Y-116850780D01*
X120336864Y-116837748D01*
X120346083Y-116838481D01*
X120386483Y-116859301D01*
X120414666Y-116900310D01*
X120421937Y-116950031D01*
X120423922Y-116990295D01*
X120439263Y-117003174D01*
X120462074Y-116988535D01*
X120486416Y-116946686D01*
X120487735Y-116943457D01*
X120502165Y-116867338D01*
X120487039Y-116796946D01*
X120446719Y-116738697D01*
X120385568Y-116699005D01*
X120307950Y-116684286D01*
X120290841Y-116685190D01*
X120242984Y-116701292D01*
X120192806Y-116742221D01*
X120162064Y-116779761D01*
X120134498Y-116849135D01*
X119989957Y-116849135D01*
X119989838Y-116830467D01*
X120015017Y-116742887D01*
X120061905Y-116664852D01*
X120126445Y-116601270D01*
X120204579Y-116557051D01*
X120292249Y-116537102D01*
X120385397Y-116546332D01*
X120479335Y-116585227D01*
X120558677Y-116648338D01*
X120613919Y-116728651D01*
X120642602Y-116820980D01*
X120642446Y-116867338D01*
X120642269Y-116920143D01*
X120610462Y-117020955D01*
X120609433Y-117023081D01*
X120590290Y-117066070D01*
X120583122Y-117099461D01*
X120587234Y-117137336D01*
X120601932Y-117193780D01*
X120616434Y-117257150D01*
X120624091Y-117353339D01*
X120628196Y-117404903D01*
X120612543Y-117554010D01*
X120570833Y-117695724D01*
X120504425Y-117821300D01*
X120447651Y-117891062D01*
X120348192Y-117979361D01*
X120233074Y-118052672D01*
X120112926Y-118103339D01*
X120080029Y-118112582D01*
X119936623Y-118136354D01*
X119778925Y-118140185D01*
X119617443Y-118124305D01*
X119462683Y-118088949D01*
X119457459Y-118087438D01*
X119438642Y-118087908D01*
X119443763Y-118110897D01*
X119486786Y-118214979D01*
X119604801Y-118539232D01*
X119693542Y-118852408D01*
X119753953Y-119157695D01*
X119761622Y-119216419D01*
X119772300Y-119339984D01*
X119779596Y-119483568D01*
X119783435Y-119638331D01*
X119783558Y-119701258D01*
X119783741Y-119795434D01*
X119780440Y-119946036D01*
X119773458Y-120081296D01*
X119762718Y-120192374D01*
X119736540Y-120361540D01*
X119666653Y-120675988D01*
X119571626Y-120978449D01*
X119453057Y-121264795D01*
X119312541Y-121530897D01*
X119151675Y-121772628D01*
X119145952Y-121780257D01*
X118971917Y-121987103D01*
X118779508Y-122171457D01*
X118571895Y-122331380D01*
X118352248Y-122464938D01*
X118123737Y-122570194D01*
X117889533Y-122645212D01*
X117652806Y-122688056D01*
X117456477Y-122699812D01*
X117202854Y-122685643D01*
X116954007Y-122638773D01*
X116711830Y-122559984D01*
X116478218Y-122450062D01*
X116255068Y-122309789D01*
X116044275Y-122139951D01*
X115847733Y-121941331D01*
X115802667Y-121889093D01*
X115628958Y-121657294D01*
X115475486Y-121401187D01*
X115344106Y-121124571D01*
X115236677Y-120831242D01*
X115155054Y-120524997D01*
X115114287Y-120338563D01*
X115277369Y-120338563D01*
X115308610Y-120481524D01*
X115332424Y-120581660D01*
X115401096Y-120812810D01*
X115487092Y-121042252D01*
X115586893Y-121261923D01*
X115696982Y-121463758D01*
X115813843Y-121639696D01*
X115860990Y-121701332D01*
X116042425Y-121908441D01*
X116238412Y-122088380D01*
X116446943Y-122239820D01*
X116666011Y-122361431D01*
X116893609Y-122451884D01*
X117127728Y-122509850D01*
X117200664Y-122519629D01*
X117290641Y-122527184D01*
X117386521Y-122531967D01*
X117478363Y-122533638D01*
X117556223Y-122531860D01*
X117610160Y-122526293D01*
X117612199Y-122525903D01*
X117644392Y-122520280D01*
X117698391Y-122511247D01*
X117763686Y-122500566D01*
X117813234Y-122491551D01*
X118014773Y-122435645D01*
X118217491Y-122350394D01*
X118416281Y-122238939D01*
X118606034Y-122104418D01*
X118781644Y-121949972D01*
X118938002Y-121778741D01*
X119013374Y-121682997D01*
X119091035Y-121574715D01*
X119160381Y-121464463D01*
X119227720Y-121342090D01*
X119299363Y-121197445D01*
X119312009Y-121170655D01*
X119427201Y-120893958D01*
X119514696Y-120614243D01*
X119575699Y-120325938D01*
X119611416Y-120023468D01*
X119623054Y-119701258D01*
X119620325Y-119547380D01*
X119593499Y-119209593D01*
X119537455Y-118886985D01*
X119451482Y-118576758D01*
X119334871Y-118276115D01*
X119186911Y-117982258D01*
X119065694Y-117787283D01*
X118900877Y-117572483D01*
X118718027Y-117381657D01*
X118519396Y-117216243D01*
X118307236Y-117077679D01*
X118083798Y-116967403D01*
X117851335Y-116886855D01*
X117612097Y-116837471D01*
X117368336Y-116820690D01*
X117234874Y-116820690D01*
X117234874Y-116912009D01*
X117235611Y-116951885D01*
X117239578Y-117031890D01*
X117245834Y-117108181D01*
X117256793Y-117213034D01*
X117345051Y-117213034D01*
X117450656Y-117218827D01*
X117628507Y-117251003D01*
X117814362Y-117309994D01*
X118002504Y-117394224D01*
X118090615Y-117442846D01*
X118290788Y-117580472D01*
X118474573Y-117746641D01*
X118482034Y-117755307D01*
X118640879Y-117939815D01*
X118788612Y-118158457D01*
X118916682Y-118401029D01*
X118949239Y-118481417D01*
X119023994Y-118665994D01*
X119109457Y-118951816D01*
X119112408Y-118963677D01*
X119154978Y-119166454D01*
X119181761Y-119370051D01*
X119182475Y-119382853D01*
X119193729Y-119584727D01*
X119193042Y-119671281D01*
X119191856Y-119820742D01*
X119174698Y-120078975D01*
X119139038Y-120323236D01*
X119112326Y-120433846D01*
X119082801Y-120556106D01*
X119003689Y-120787064D01*
X118899398Y-121025593D01*
X118870701Y-121083285D01*
X118772264Y-121256629D01*
X118755437Y-121281578D01*
X118661114Y-121421431D01*
X118543231Y-121569301D01*
X118424595Y-121691847D01*
X118384874Y-121727050D01*
X118234035Y-121842431D01*
X118221104Y-121852322D01*
X118044106Y-121959960D01*
X117862386Y-122045234D01*
X117684452Y-122103413D01*
X117652107Y-122110608D01*
X117530413Y-122127305D01*
X117392852Y-122133876D01*
X117251584Y-122130480D01*
X117118768Y-122117279D01*
X117006564Y-122094433D01*
X116848759Y-122043686D01*
X116678907Y-121970483D01*
X116525011Y-121880661D01*
X117008552Y-121880661D01*
X117008992Y-121900200D01*
X117012270Y-121909370D01*
X117014941Y-121911272D01*
X117043900Y-121921542D01*
X117095259Y-121934275D01*
X117159968Y-121947156D01*
X117161783Y-121947479D01*
X117363515Y-121966971D01*
X117559241Y-121953267D01*
X117747669Y-121906457D01*
X117757438Y-121903054D01*
X117807399Y-121882481D01*
X117831110Y-121863796D01*
X117834789Y-121842431D01*
X117830383Y-121822950D01*
X117818502Y-121774063D01*
X117800306Y-121700638D01*
X117776841Y-121606790D01*
X117749153Y-121496635D01*
X117718286Y-121374290D01*
X117685286Y-121243871D01*
X117651200Y-121109493D01*
X117617071Y-120975273D01*
X117583947Y-120845327D01*
X117552871Y-120723771D01*
X117524891Y-120614721D01*
X117501050Y-120522293D01*
X117482396Y-120450603D01*
X117469972Y-120403767D01*
X117464826Y-120385902D01*
X117457733Y-120383283D01*
X117424857Y-120381378D01*
X117375338Y-120383124D01*
X117290775Y-120388876D01*
X117175217Y-120971640D01*
X117158365Y-121056712D01*
X117120754Y-121247507D01*
X117089390Y-121408310D01*
X117063848Y-121541575D01*
X117043702Y-121649753D01*
X117028526Y-121735298D01*
X117017893Y-121800663D01*
X117011377Y-121848300D01*
X117008552Y-121880661D01*
X116525011Y-121880661D01*
X116522660Y-121879289D01*
X116371959Y-121765288D01*
X116218745Y-121623664D01*
X116215108Y-121620019D01*
X116142134Y-121543097D01*
X116069423Y-121460234D01*
X116005215Y-121381155D01*
X115972575Y-121336067D01*
X116214166Y-121336067D01*
X116227327Y-121363353D01*
X116260600Y-121406751D01*
X116309014Y-121461119D01*
X116367596Y-121521314D01*
X116431375Y-121582191D01*
X116495379Y-121638608D01*
X116554635Y-121685420D01*
X116609580Y-121723239D01*
X116689131Y-121773145D01*
X116761868Y-121814204D01*
X116764708Y-121815675D01*
X116818499Y-121842797D01*
X116859497Y-121862156D01*
X116879025Y-121869644D01*
X116883829Y-121859593D01*
X116894382Y-121821036D01*
X116908803Y-121758669D01*
X116925847Y-121677930D01*
X116944271Y-121584256D01*
X116957195Y-121516867D01*
X116979843Y-121400319D01*
X117006413Y-121264893D01*
X117035236Y-121119057D01*
X117064643Y-120971278D01*
X117092965Y-120830024D01*
X117110567Y-120741481D01*
X117135773Y-120609251D01*
X117154583Y-120502639D01*
X117166689Y-120423554D01*
X117171783Y-120373905D01*
X117169557Y-120355600D01*
X117158898Y-120350299D01*
X117126052Y-120329651D01*
X117577418Y-120329651D01*
X117578704Y-120340224D01*
X117585770Y-120373905D01*
X117587194Y-120380693D01*
X117602639Y-120448309D01*
X117624241Y-120539734D01*
X117651201Y-120651633D01*
X117682720Y-120780670D01*
X117718001Y-120923509D01*
X117756244Y-121076814D01*
X117786440Y-121196800D01*
X117823312Y-121341955D01*
X117857203Y-121473863D01*
X117887239Y-121589214D01*
X117912551Y-121684695D01*
X117932268Y-121756995D01*
X117945517Y-121802804D01*
X117951429Y-121818810D01*
X117960516Y-121817104D01*
X117998893Y-121798984D01*
X118054428Y-121764578D01*
X118120980Y-121718271D01*
X118192405Y-121664450D01*
X118262563Y-121607501D01*
X118325311Y-121551811D01*
X118400574Y-121478755D01*
X118478048Y-121396034D01*
X118529767Y-121329988D01*
X118554998Y-121281578D01*
X118553011Y-121251769D01*
X118548977Y-121246681D01*
X118523716Y-121215232D01*
X118481292Y-121162688D01*
X118424978Y-121093083D01*
X118358049Y-121010453D01*
X118283777Y-120918830D01*
X118205435Y-120822249D01*
X118126297Y-120724745D01*
X118049635Y-120630352D01*
X117978723Y-120543105D01*
X117916834Y-120467037D01*
X117867241Y-120406184D01*
X117833217Y-120364579D01*
X117801688Y-120326846D01*
X117759002Y-120278140D01*
X117727160Y-120244761D01*
X117711383Y-120232376D01*
X117706318Y-120233812D01*
X117679195Y-120250011D01*
X117641321Y-120278430D01*
X117626886Y-120290124D01*
X117593947Y-120316630D01*
X117577418Y-120329651D01*
X117126052Y-120329651D01*
X117124945Y-120328955D01*
X117080868Y-120298300D01*
X117054025Y-120279513D01*
X117020303Y-120258360D01*
X117005092Y-120252442D01*
X117004132Y-120253623D01*
X116987724Y-120275194D01*
X116953301Y-120321075D01*
X116902779Y-120388695D01*
X116838076Y-120475480D01*
X116761107Y-120578860D01*
X116673790Y-120696262D01*
X116578040Y-120825114D01*
X116475774Y-120962843D01*
X116419533Y-121039060D01*
X116354458Y-121128458D01*
X116298572Y-121206589D01*
X116254700Y-121269450D01*
X116225666Y-121313037D01*
X116214298Y-121333349D01*
X116214166Y-121336067D01*
X115972575Y-121336067D01*
X115957749Y-121315586D01*
X115888951Y-121203755D01*
X115786027Y-121008925D01*
X115697312Y-120805870D01*
X115626946Y-120604441D01*
X115579068Y-120414490D01*
X115556387Y-120298081D01*
X115504328Y-120307279D01*
X115485037Y-120310490D01*
X115427495Y-120319082D01*
X115364819Y-120327520D01*
X115277369Y-120338563D01*
X115114287Y-120338563D01*
X115108602Y-120312563D01*
X115021012Y-120272420D01*
X115739177Y-120272420D01*
X115739553Y-120287636D01*
X115747604Y-120329427D01*
X115761974Y-120390461D01*
X115780817Y-120463608D01*
X115802291Y-120541737D01*
X115824550Y-120617719D01*
X115845750Y-120684424D01*
X115850929Y-120699652D01*
X115903978Y-120837403D01*
X115970127Y-120977909D01*
X116054523Y-121132208D01*
X116058050Y-121138286D01*
X116088925Y-121189169D01*
X116113147Y-121225167D01*
X116125736Y-121238823D01*
X116126380Y-121238595D01*
X116142056Y-121222093D01*
X116174748Y-121182056D01*
X116221775Y-121122089D01*
X116280454Y-121045797D01*
X116348102Y-120956788D01*
X116422038Y-120858666D01*
X116499579Y-120755038D01*
X116578043Y-120649510D01*
X116654748Y-120545688D01*
X116727011Y-120447178D01*
X116792151Y-120357586D01*
X116847484Y-120280518D01*
X116890328Y-120219580D01*
X116918002Y-120178377D01*
X116919419Y-120175800D01*
X117145342Y-120175800D01*
X117216041Y-120204088D01*
X117265959Y-120220705D01*
X117370089Y-120232452D01*
X117467252Y-120211488D01*
X117556010Y-120158534D01*
X117601054Y-120110463D01*
X117796496Y-120110463D01*
X117799366Y-120126438D01*
X117809681Y-120148516D01*
X117829175Y-120179262D01*
X117859585Y-120221241D01*
X117902646Y-120277020D01*
X117960096Y-120349163D01*
X118033669Y-120440235D01*
X118125101Y-120552803D01*
X118236128Y-120689431D01*
X118318695Y-120790847D01*
X118401705Y-120892229D01*
X118475835Y-120982168D01*
X118538574Y-121057642D01*
X118587412Y-121115634D01*
X118619836Y-121153122D01*
X118633337Y-121167088D01*
X118641932Y-121163834D01*
X118663894Y-121135716D01*
X118693619Y-121083811D01*
X118728879Y-121013341D01*
X118767450Y-120929529D01*
X118807103Y-120837599D01*
X118845614Y-120742773D01*
X118880756Y-120650274D01*
X118910302Y-120565325D01*
X118932026Y-120493149D01*
X118943702Y-120438969D01*
X118944154Y-120433846D01*
X118942126Y-120422370D01*
X118933281Y-120410278D01*
X118914522Y-120396033D01*
X118882754Y-120378101D01*
X118834882Y-120354944D01*
X118767810Y-120325028D01*
X118678442Y-120286817D01*
X118563682Y-120238775D01*
X118420435Y-120179365D01*
X118330473Y-120142254D01*
X118210215Y-120093041D01*
X118102270Y-120049322D01*
X118010471Y-120012627D01*
X117938654Y-119984485D01*
X117890652Y-119966426D01*
X117870301Y-119959978D01*
X117858950Y-119964293D01*
X117848888Y-119989293D01*
X117848822Y-119991240D01*
X117838885Y-120027081D01*
X117817210Y-120070321D01*
X117815192Y-120073499D01*
X117806145Y-120086559D01*
X117799335Y-120098025D01*
X117796496Y-120110463D01*
X117601054Y-120110463D01*
X117634924Y-120074316D01*
X117702555Y-119959555D01*
X117723740Y-119912906D01*
X117740556Y-119866084D01*
X117749864Y-119818793D01*
X117753719Y-119759827D01*
X117753767Y-119751248D01*
X117900410Y-119751248D01*
X117900667Y-119848561D01*
X118160551Y-119954557D01*
X118187389Y-119965512D01*
X118307238Y-120014573D01*
X118440485Y-120069299D01*
X118572727Y-120123766D01*
X118689557Y-120172052D01*
X118759737Y-120200924D01*
X118841153Y-120233851D01*
X118907492Y-120260030D01*
X118953292Y-120277313D01*
X118973091Y-120283551D01*
X118975913Y-120282122D01*
X118985789Y-120257204D01*
X118995694Y-120205793D01*
X119005243Y-120133788D01*
X119014050Y-120047086D01*
X119021732Y-119951586D01*
X119027904Y-119853186D01*
X119032179Y-119757785D01*
X119034175Y-119671281D01*
X119033506Y-119599572D01*
X119029787Y-119548557D01*
X119022633Y-119524133D01*
X119022348Y-119523959D01*
X119001447Y-119523902D01*
X118951947Y-119527529D01*
X118878718Y-119534287D01*
X118786632Y-119543625D01*
X118680560Y-119554991D01*
X118565372Y-119567834D01*
X118445939Y-119581601D01*
X118327134Y-119595742D01*
X118213825Y-119609703D01*
X118110885Y-119622934D01*
X118023184Y-119634883D01*
X117955593Y-119644997D01*
X117951385Y-119645679D01*
X117921923Y-119652439D01*
X117906727Y-119666279D01*
X117904534Y-119677977D01*
X117901116Y-119696212D01*
X117900410Y-119751248D01*
X117753767Y-119751248D01*
X117754176Y-119677977D01*
X117752742Y-119606729D01*
X117746812Y-119531034D01*
X117734753Y-119469338D01*
X117714877Y-119410132D01*
X117690148Y-119361505D01*
X117856413Y-119361505D01*
X117858641Y-119369466D01*
X117869362Y-119409359D01*
X117882737Y-119460482D01*
X117888752Y-119480538D01*
X117905787Y-119517403D01*
X117922134Y-119531201D01*
X117927903Y-119530585D01*
X117963196Y-119526306D01*
X118023067Y-119518776D01*
X118100917Y-119508829D01*
X118190146Y-119497301D01*
X118222141Y-119493165D01*
X118339117Y-119478252D01*
X118471520Y-119461617D01*
X118605383Y-119445008D01*
X118726741Y-119430171D01*
X118803131Y-119420813D01*
X118888510Y-119410050D01*
X118956737Y-119401098D01*
X119002236Y-119394694D01*
X119019432Y-119391573D01*
X119020647Y-119382853D01*
X119017415Y-119345975D01*
X119008851Y-119287052D01*
X118996228Y-119213057D01*
X118980822Y-119130958D01*
X118963905Y-119047727D01*
X118946753Y-118970333D01*
X118930638Y-118905748D01*
X118910668Y-118834801D01*
X118885340Y-118751077D01*
X118861639Y-118678890D01*
X118841936Y-118625389D01*
X118828596Y-118597720D01*
X118827641Y-118597319D01*
X118815904Y-118602399D01*
X118790021Y-118619046D01*
X118748174Y-118648609D01*
X118688544Y-118692438D01*
X118609311Y-118751882D01*
X118508656Y-118828290D01*
X118384761Y-118923011D01*
X118235806Y-119037395D01*
X118141462Y-119110432D01*
X118034012Y-119195355D01*
X117952766Y-119262083D01*
X117896740Y-119311457D01*
X117864950Y-119344318D01*
X117856413Y-119361505D01*
X117690148Y-119361505D01*
X117666872Y-119315737D01*
X117599174Y-119227073D01*
X117521037Y-119157703D01*
X117439308Y-119114960D01*
X117400656Y-119102814D01*
X117385775Y-119099725D01*
X117700370Y-119099725D01*
X117710825Y-119126998D01*
X117740239Y-119164485D01*
X117754577Y-119180908D01*
X117785972Y-119211310D01*
X117806332Y-119223282D01*
X117818634Y-119217122D01*
X117854667Y-119193036D01*
X117909028Y-119153951D01*
X117976953Y-119103308D01*
X118053679Y-119044551D01*
X118083738Y-119021266D01*
X118184420Y-118943502D01*
X118291168Y-118861332D01*
X118392986Y-118783210D01*
X118478880Y-118717591D01*
X118499064Y-118702195D01*
X118573023Y-118645320D01*
X118639655Y-118593415D01*
X118692326Y-118551676D01*
X118724402Y-118525298D01*
X118775012Y-118481417D01*
X118700271Y-118337655D01*
X118660314Y-118265875D01*
X118591678Y-118157009D01*
X118515947Y-118049842D01*
X118440164Y-117954175D01*
X118371367Y-117879807D01*
X118310745Y-117821597D01*
X118028794Y-118390705D01*
X117964007Y-118521915D01*
X117902548Y-118647224D01*
X117846804Y-118761716D01*
X117798678Y-118861448D01*
X117788057Y-118883739D01*
X117760070Y-118942478D01*
X117732885Y-119000862D01*
X117719024Y-119032659D01*
X117706366Y-119067084D01*
X117700370Y-119099725D01*
X117385775Y-119099725D01*
X117346084Y-119091486D01*
X117314577Y-119098267D01*
X117301063Y-119125348D01*
X117300471Y-119174920D01*
X117308334Y-119225817D01*
X117329752Y-119270472D01*
X117371807Y-119319750D01*
X117393999Y-119343889D01*
X117461821Y-119443508D01*
X117501128Y-119555787D01*
X117514162Y-119686506D01*
X117511850Y-119746520D01*
X117486513Y-119872447D01*
X117433526Y-119978725D01*
X117353220Y-120064806D01*
X117245927Y-120130141D01*
X117179010Y-120160517D01*
X117145342Y-120175800D01*
X116919419Y-120175800D01*
X116927823Y-120160517D01*
X116927681Y-120159503D01*
X116911739Y-120143024D01*
X116877420Y-120121896D01*
X116860235Y-120111253D01*
X116815130Y-120073693D01*
X116772215Y-120027636D01*
X116751290Y-120003976D01*
X116714520Y-119971982D01*
X116686810Y-119959441D01*
X116675801Y-119958395D01*
X116634240Y-119951286D01*
X116573642Y-119939166D01*
X116503288Y-119924057D01*
X116432461Y-119907979D01*
X116370442Y-119892953D01*
X116326513Y-119880999D01*
X116319591Y-119879266D01*
X116304968Y-119883217D01*
X116298623Y-119905530D01*
X116298266Y-119906784D01*
X116296661Y-119957181D01*
X116296594Y-119967393D01*
X116288223Y-120053283D01*
X116264343Y-120113999D01*
X116222820Y-120155266D01*
X116220884Y-120156446D01*
X116185735Y-120170401D01*
X116125712Y-120187909D01*
X116048710Y-120206850D01*
X115962626Y-120225106D01*
X115946307Y-120228307D01*
X115866579Y-120244253D01*
X115801232Y-120257820D01*
X115756639Y-120267659D01*
X115739177Y-120272420D01*
X115021012Y-120272420D01*
X114853975Y-120195866D01*
X114818493Y-120179385D01*
X114725261Y-120133799D01*
X114647440Y-120092356D01*
X114590403Y-120058016D01*
X114559526Y-120033738D01*
X114552988Y-120026109D01*
X114537692Y-120004201D01*
X114528393Y-119978345D01*
X114523985Y-119941006D01*
X114523360Y-119884652D01*
X114525132Y-119812942D01*
X114659098Y-119812942D01*
X114662026Y-119868404D01*
X114669262Y-119913684D01*
X114680375Y-119936903D01*
X114683058Y-119938477D01*
X114711931Y-119953284D01*
X114763869Y-119978647D01*
X114832457Y-120011460D01*
X114911276Y-120048618D01*
X114997154Y-120088895D01*
X115075436Y-120124745D01*
X115129955Y-120146696D01*
X115164761Y-120154728D01*
X115183905Y-120148819D01*
X115191436Y-120128952D01*
X115191405Y-120095105D01*
X115187863Y-120047260D01*
X115180720Y-119948029D01*
X115307272Y-119948029D01*
X115307272Y-120064615D01*
X115307275Y-120067321D01*
X115309120Y-120124547D01*
X115309622Y-120128952D01*
X115313702Y-120164790D01*
X115320066Y-120179487D01*
X115321871Y-120179213D01*
X115349393Y-120173847D01*
X115392564Y-120164623D01*
X115393828Y-120164348D01*
X115430928Y-120157147D01*
X115494939Y-120145548D01*
X115579509Y-120130671D01*
X115678283Y-120113632D01*
X115784908Y-120095551D01*
X115798777Y-120093209D01*
X115900916Y-120075329D01*
X115991261Y-120058442D01*
X116064340Y-120043649D01*
X116114678Y-120032051D01*
X116136803Y-120024750D01*
X116144769Y-120009474D01*
X116152049Y-119966065D01*
X116153861Y-119905530D01*
X116150291Y-119845748D01*
X116137788Y-119797691D01*
X116113198Y-119779776D01*
X116073095Y-119790071D01*
X116014049Y-119826641D01*
X115977907Y-119850522D01*
X115914668Y-119887084D01*
X115860538Y-119912753D01*
X115836720Y-119921192D01*
X115737433Y-119945941D01*
X115623883Y-119962301D01*
X115511043Y-119968585D01*
X115413887Y-119963106D01*
X115307272Y-119948029D01*
X115180720Y-119948029D01*
X115179334Y-119928773D01*
X115033804Y-119854000D01*
X115005538Y-119839188D01*
X114932651Y-119798673D01*
X114867660Y-119759578D01*
X114821960Y-119728646D01*
X114810637Y-119720382D01*
X114752690Y-119690506D01*
X114704794Y-119686689D01*
X114672107Y-119709587D01*
X114667897Y-119718996D01*
X114660911Y-119759179D01*
X114659098Y-119812942D01*
X114525132Y-119812942D01*
X114525409Y-119801750D01*
X114525808Y-119788932D01*
X114529019Y-119709677D01*
X114533585Y-119656580D01*
X114540938Y-119622614D01*
X114552507Y-119600750D01*
X114569723Y-119583961D01*
X114600756Y-119561179D01*
X114626681Y-119546613D01*
X114630996Y-119539345D01*
X114624098Y-119507877D01*
X114600788Y-119457288D01*
X114575945Y-119404014D01*
X114546417Y-119328335D01*
X114521828Y-119253093D01*
X114521392Y-119251576D01*
X114482892Y-119128014D01*
X114443889Y-119028746D01*
X114399428Y-118944353D01*
X114344555Y-118865415D01*
X114274313Y-118782511D01*
X114236943Y-118739941D01*
X114142158Y-118615093D01*
X114077579Y-118497454D01*
X114041915Y-118383355D01*
X114034405Y-118276653D01*
X114198641Y-118276653D01*
X114200768Y-118324109D01*
X114217776Y-118410432D01*
X114254468Y-118494812D01*
X114314044Y-118583729D01*
X114399706Y-118683665D01*
X114457487Y-118748001D01*
X114513897Y-118819517D01*
X114556134Y-118888576D01*
X114590779Y-118966315D01*
X114624416Y-119063873D01*
X114644010Y-119124912D01*
X114677651Y-119224985D01*
X114706558Y-119302270D01*
X114733568Y-119363502D01*
X114761517Y-119415415D01*
X114793242Y-119464746D01*
X114870521Y-119554129D01*
X114974438Y-119638638D01*
X115094707Y-119710125D01*
X115222353Y-119762367D01*
X115361922Y-119797682D01*
X115519365Y-119815175D01*
X115665090Y-119806885D01*
X115796202Y-119773596D01*
X115909805Y-119716095D01*
X115998408Y-119639157D01*
X116204885Y-119639157D01*
X116210507Y-119659144D01*
X116233483Y-119682298D01*
X116245919Y-119691089D01*
X116295472Y-119713402D01*
X116371023Y-119738145D01*
X116467245Y-119763470D01*
X116491022Y-119769035D01*
X116634361Y-119797557D01*
X116759416Y-119813565D01*
X116862878Y-119816922D01*
X116941440Y-119807490D01*
X116991792Y-119785133D01*
X116997017Y-119778571D01*
X117008525Y-119743018D01*
X117013115Y-119693340D01*
X117013113Y-119692457D01*
X117003733Y-119630906D01*
X116974650Y-119591819D01*
X116923818Y-119574490D01*
X116849187Y-119578213D01*
X116748709Y-119602284D01*
X116745978Y-119603049D01*
X116710228Y-119606943D01*
X116657266Y-119603050D01*
X116581924Y-119590738D01*
X116479035Y-119569378D01*
X116260536Y-119521216D01*
X116228214Y-119584572D01*
X116215904Y-119609078D01*
X116204885Y-119639157D01*
X115998408Y-119639157D01*
X116003002Y-119635168D01*
X116072898Y-119531599D01*
X116102133Y-119466437D01*
X116120826Y-119399073D01*
X116126076Y-119326950D01*
X116125646Y-119286113D01*
X116121042Y-119227900D01*
X116108745Y-119194155D01*
X116085513Y-119178549D01*
X116048105Y-119174753D01*
X116010087Y-119179888D01*
X115971274Y-119201262D01*
X115925140Y-119245188D01*
X115912675Y-119258315D01*
X115870615Y-119295613D01*
X115829358Y-119314845D01*
X115773823Y-119323850D01*
X115694166Y-119321220D01*
X115615689Y-119292872D01*
X115543517Y-119236111D01*
X115475294Y-119149039D01*
X115408662Y-119029756D01*
X115388616Y-118984515D01*
X115350861Y-118877299D01*
X115315357Y-118749877D01*
X115284270Y-118611351D01*
X115259764Y-118470826D01*
X115244004Y-118337403D01*
X115242826Y-118323136D01*
X115239817Y-118266597D01*
X115244112Y-118229679D01*
X115258699Y-118200412D01*
X115286562Y-118166830D01*
X115303218Y-118149301D01*
X115332744Y-118124307D01*
X115349158Y-118119214D01*
X115351245Y-118123650D01*
X115359606Y-118155495D01*
X115371621Y-118212182D01*
X115386013Y-118287461D01*
X115401503Y-118375078D01*
X115403081Y-118384319D01*
X115428849Y-118527208D01*
X115454250Y-118654002D01*
X115478575Y-118762186D01*
X115501118Y-118849245D01*
X115521171Y-118912665D01*
X115538026Y-118949929D01*
X115550975Y-118958524D01*
X115559311Y-118935935D01*
X115566631Y-118894591D01*
X115574169Y-118862472D01*
X115665017Y-118862472D01*
X115665338Y-118916890D01*
X115667798Y-119013945D01*
X115673782Y-119083405D01*
X115684652Y-119129729D01*
X115701767Y-119157378D01*
X115726487Y-119170813D01*
X115760173Y-119174492D01*
X115782815Y-119173046D01*
X115814280Y-119157126D01*
X115816895Y-119123368D01*
X115790764Y-119071424D01*
X115783116Y-119059357D01*
X115744485Y-118965614D01*
X115739250Y-118876915D01*
X115873486Y-118876915D01*
X115878382Y-118929608D01*
X115912644Y-118983759D01*
X115918416Y-118990352D01*
X115956010Y-119024535D01*
X115989407Y-119043175D01*
X116016235Y-119045003D01*
X116021320Y-119030848D01*
X115998138Y-119004169D01*
X115991202Y-118997668D01*
X115972119Y-118957628D01*
X115978246Y-118915145D01*
X116005379Y-118881431D01*
X116049313Y-118867701D01*
X116083793Y-118874166D01*
X116115505Y-118906163D01*
X116126076Y-118964934D01*
X116128207Y-118995237D01*
X116139877Y-119018173D01*
X116160143Y-119008878D01*
X116187213Y-118967282D01*
X116199350Y-118940708D01*
X116206234Y-118899520D01*
X116195681Y-118848490D01*
X116166446Y-118787667D01*
X116115044Y-118745380D01*
X116044396Y-118731234D01*
X115993477Y-118736060D01*
X115936820Y-118762699D01*
X115895964Y-118816185D01*
X115873486Y-118876915D01*
X115739250Y-118876915D01*
X115738796Y-118869218D01*
X115765695Y-118774199D01*
X115824829Y-118684584D01*
X115833136Y-118675422D01*
X115911683Y-118613064D01*
X115997867Y-118582502D01*
X116087377Y-118583762D01*
X116175898Y-118616874D01*
X116259117Y-118681862D01*
X116277995Y-118703008D01*
X116326690Y-118787770D01*
X116345539Y-118881722D01*
X116343407Y-118899520D01*
X116333985Y-118978169D01*
X116291470Y-119070417D01*
X116290975Y-119071167D01*
X116264390Y-119117455D01*
X116256426Y-119155423D01*
X116263415Y-119202308D01*
X116264460Y-119206947D01*
X116274743Y-119269701D01*
X116279195Y-119328957D01*
X116279602Y-119389339D01*
X116448852Y-119418537D01*
X116496074Y-119426884D01*
X116564429Y-119439735D01*
X116616256Y-119450438D01*
X116642991Y-119457285D01*
X116665693Y-119451942D01*
X116686347Y-119413862D01*
X116686826Y-119412507D01*
X116710757Y-119360260D01*
X116741928Y-119308765D01*
X116753098Y-119292214D01*
X116763414Y-119271425D01*
X116769969Y-119245313D01*
X116773196Y-119208128D01*
X116773529Y-119154117D01*
X116771400Y-119077530D01*
X116767243Y-118972616D01*
X116755445Y-118688588D01*
X116591224Y-118398595D01*
X116541204Y-118310673D01*
X116483709Y-118210496D01*
X116429851Y-118117517D01*
X116383986Y-118039252D01*
X116350471Y-117983218D01*
X116273940Y-117857835D01*
X116218438Y-117923513D01*
X116178170Y-117975667D01*
X116120924Y-118059348D01*
X116059472Y-118157006D01*
X115999406Y-118259381D01*
X115946317Y-118357213D01*
X115905797Y-118441241D01*
X115877313Y-118501274D01*
X115837272Y-118565224D01*
X115797100Y-118603296D01*
X115750910Y-118646875D01*
X115707519Y-118714264D01*
X115676672Y-118790479D01*
X115665017Y-118862472D01*
X115574169Y-118862472D01*
X115589797Y-118795878D01*
X115622009Y-118682520D01*
X115660054Y-118565433D01*
X115700716Y-118455537D01*
X115758283Y-118321130D01*
X115885246Y-118079884D01*
X116031564Y-117866103D01*
X116109509Y-117778457D01*
X116364894Y-117778457D01*
X116366234Y-117782683D01*
X116380434Y-117812051D01*
X116408182Y-117864691D01*
X116447034Y-117936089D01*
X116494546Y-118021732D01*
X116548273Y-118117106D01*
X116571199Y-118157400D01*
X116623186Y-118247892D01*
X116668616Y-118325760D01*
X116704949Y-118386722D01*
X116729650Y-118426500D01*
X116740180Y-118440812D01*
X116741351Y-118433937D01*
X116742121Y-118398625D01*
X116741782Y-118338061D01*
X116740494Y-118257600D01*
X116738418Y-118162599D01*
X116735714Y-118058412D01*
X116732543Y-117950395D01*
X116729064Y-117843904D01*
X116725438Y-117744293D01*
X116721826Y-117656918D01*
X116718386Y-117587135D01*
X116715281Y-117540298D01*
X116712670Y-117521764D01*
X116706683Y-117521256D01*
X116678233Y-117534286D01*
X116633055Y-117562116D01*
X116577473Y-117600078D01*
X116517812Y-117643503D01*
X116460399Y-117687723D01*
X116411558Y-117728067D01*
X116377614Y-117759868D01*
X116364894Y-117778457D01*
X116109509Y-117778457D01*
X116196948Y-117680135D01*
X116381110Y-117522329D01*
X116583758Y-117393033D01*
X116711138Y-117323914D01*
X116707585Y-117136677D01*
X116705960Y-117072405D01*
X116703302Y-117007069D01*
X116700241Y-116961379D01*
X116697162Y-116942570D01*
X116681681Y-116944092D01*
X116642015Y-116959292D01*
X116585021Y-116985695D01*
X116517113Y-117020040D01*
X116444707Y-117059072D01*
X116374216Y-117099532D01*
X116312055Y-117138163D01*
X116287664Y-117154952D01*
X116208369Y-117216805D01*
X116118266Y-117295162D01*
X116025011Y-117382676D01*
X115936261Y-117472002D01*
X115859671Y-117555792D01*
X115802900Y-117626701D01*
X115776716Y-117661945D01*
X115749529Y-117694919D01*
X115735105Y-117707597D01*
X115730118Y-117704178D01*
X115711118Y-117679437D01*
X115685910Y-117638663D01*
X115646616Y-117569861D01*
X115733054Y-117461234D01*
X115803880Y-117377542D01*
X115966926Y-117214157D01*
X116149727Y-117063679D01*
X116343531Y-116932971D01*
X116539586Y-116828893D01*
X116688690Y-116760985D01*
X116688847Y-116647986D01*
X116697118Y-116559203D01*
X116841615Y-116559203D01*
X116860559Y-117078025D01*
X116863614Y-117162195D01*
X116868894Y-117309267D01*
X116874960Y-117479671D01*
X116881587Y-117667025D01*
X116888549Y-117864947D01*
X116895621Y-118067055D01*
X116902580Y-118266966D01*
X116907135Y-118398625D01*
X116909199Y-118458299D01*
X116933185Y-119154117D01*
X116938895Y-119319750D01*
X116899242Y-119363329D01*
X116876199Y-119390105D01*
X116862786Y-119416059D01*
X116877951Y-119427865D01*
X116923558Y-119430693D01*
X116927030Y-119430723D01*
X117008865Y-119448121D01*
X117077912Y-119495717D01*
X117130195Y-119570816D01*
X117133063Y-119576827D01*
X117160931Y-119658560D01*
X117160983Y-119693340D01*
X117161044Y-119734453D01*
X117133578Y-119817379D01*
X117102502Y-119871230D01*
X117044240Y-119924081D01*
X116964216Y-119953015D01*
X116908572Y-119964144D01*
X116956579Y-119995797D01*
X116970419Y-120003667D01*
X117036161Y-120022666D01*
X117112328Y-120024616D01*
X117183348Y-120008637D01*
X117254164Y-119965014D01*
X117311277Y-119893302D01*
X117346970Y-119799279D01*
X117359300Y-119686506D01*
X117352121Y-119593263D01*
X117324331Y-119505046D01*
X117271603Y-119426561D01*
X117189716Y-119349417D01*
X117185895Y-119346223D01*
X117177157Y-119336968D01*
X117169940Y-119323688D01*
X117163970Y-119303043D01*
X117158971Y-119271689D01*
X117154670Y-119226284D01*
X117150790Y-119163488D01*
X117147058Y-119079956D01*
X117143200Y-118972347D01*
X117138939Y-118837319D01*
X117134002Y-118671529D01*
X117131350Y-118581332D01*
X117122594Y-118281145D01*
X117114899Y-118012819D01*
X117108232Y-117774604D01*
X117107912Y-117762764D01*
X117270889Y-117762764D01*
X117273650Y-117823324D01*
X117275048Y-117833621D01*
X117277724Y-117833339D01*
X117279554Y-117804349D01*
X117280202Y-117750374D01*
X117280017Y-117722206D01*
X117278713Y-117681600D01*
X117276442Y-117668758D01*
X117273537Y-117686856D01*
X117272766Y-117696533D01*
X117270889Y-117762764D01*
X117107912Y-117762764D01*
X117102562Y-117564754D01*
X117097911Y-117383618D01*
X117251933Y-117383618D01*
X117251933Y-117467904D01*
X117252938Y-117496969D01*
X117259094Y-117540871D01*
X117268991Y-117562732D01*
X117271320Y-117563723D01*
X117282009Y-117551377D01*
X117286050Y-117512563D01*
X117286198Y-117503883D01*
X117291028Y-117466873D01*
X117300553Y-117451852D01*
X117300592Y-117451853D01*
X117304841Y-117468487D01*
X117309445Y-117514774D01*
X117314153Y-117586300D01*
X117318716Y-117678651D01*
X117321465Y-117750374D01*
X117322884Y-117787410D01*
X117326406Y-117908165D01*
X117328423Y-117987371D01*
X117332381Y-118134657D01*
X117336631Y-118284195D01*
X117340903Y-118426894D01*
X117344930Y-118553666D01*
X117348443Y-118655420D01*
X117359131Y-118946362D01*
X117429206Y-118964063D01*
X117443199Y-118967700D01*
X117493815Y-118982367D01*
X117529132Y-118994792D01*
X117530481Y-118995400D01*
X117537987Y-118999028D01*
X117544243Y-119000578D01*
X117549283Y-118997380D01*
X117553139Y-118986767D01*
X117555846Y-118966068D01*
X117557436Y-118932615D01*
X117557942Y-118883739D01*
X117557399Y-118816771D01*
X117555840Y-118729041D01*
X117553297Y-118617881D01*
X117549805Y-118480622D01*
X117545397Y-118314595D01*
X117540105Y-118117131D01*
X117534780Y-117930232D01*
X117529298Y-117765517D01*
X117523886Y-117632661D01*
X117518482Y-117530506D01*
X117513025Y-117457895D01*
X117510031Y-117434137D01*
X117675870Y-117434137D01*
X117687889Y-118001658D01*
X117689668Y-118081815D01*
X117693113Y-118219948D01*
X117696791Y-118348891D01*
X117700534Y-118463660D01*
X117704174Y-118559271D01*
X117707543Y-118630738D01*
X117710474Y-118673078D01*
X117721039Y-118776978D01*
X117968387Y-118277138D01*
X118005662Y-118201654D01*
X118062648Y-118085616D01*
X118113548Y-117981189D01*
X118156537Y-117892158D01*
X118189792Y-117822310D01*
X118211488Y-117775431D01*
X118219803Y-117755307D01*
X118219565Y-117750119D01*
X118200961Y-117722779D01*
X118158710Y-117685460D01*
X118098466Y-117641824D01*
X118025881Y-117595531D01*
X117946607Y-117550242D01*
X117866298Y-117509619D01*
X117790605Y-117477323D01*
X117675870Y-117434137D01*
X117510031Y-117434137D01*
X117507452Y-117413670D01*
X117501703Y-117396673D01*
X117477103Y-117390471D01*
X117428470Y-117385772D01*
X117367077Y-117383879D01*
X117251933Y-117383618D01*
X117097911Y-117383618D01*
X117097857Y-117381520D01*
X117094085Y-117223154D01*
X117091215Y-117087908D01*
X117089214Y-116974033D01*
X117088052Y-116879782D01*
X117087695Y-116803406D01*
X117088114Y-116743158D01*
X117089275Y-116697289D01*
X117091147Y-116664052D01*
X117093698Y-116641697D01*
X117096897Y-116628477D01*
X117103297Y-116614450D01*
X117139387Y-116576337D01*
X117199424Y-116554635D01*
X117287160Y-116547755D01*
X117317940Y-116549463D01*
X117381314Y-116566426D01*
X117423960Y-116598423D01*
X117439575Y-116641576D01*
X117442352Y-116651936D01*
X117464855Y-116663694D01*
X117514943Y-116667164D01*
X117533365Y-116667453D01*
X117584031Y-116671076D01*
X117617294Y-116677518D01*
X117618563Y-116677990D01*
X117634620Y-116677595D01*
X117642305Y-116656769D01*
X117644277Y-116608737D01*
X117635621Y-116524603D01*
X117600862Y-116439333D01*
X117539591Y-116375442D01*
X117516809Y-116360225D01*
X117491808Y-116348443D01*
X117460660Y-116341391D01*
X117416379Y-116338174D01*
X117351975Y-116337895D01*
X117260462Y-116339659D01*
X117237925Y-116340228D01*
X117128466Y-116345262D01*
X117046450Y-116354880D01*
X116986259Y-116371172D01*
X116942275Y-116396226D01*
X116908879Y-116432133D01*
X116880454Y-116480980D01*
X116841615Y-116559203D01*
X116697118Y-116559203D01*
X116701254Y-116514804D01*
X116738671Y-116403686D01*
X116801709Y-116313971D01*
X116890985Y-116244431D01*
X116970469Y-116198057D01*
X116970933Y-115671576D01*
X116971398Y-115145094D01*
X116942126Y-115293813D01*
X116927178Y-115360181D01*
X116887996Y-115482645D01*
X116832162Y-115604068D01*
X116756132Y-115731627D01*
X116656363Y-115872496D01*
X116648471Y-115883016D01*
X116593637Y-115957884D01*
X116544240Y-116028176D01*
X116505425Y-116086420D01*
X116482337Y-116125148D01*
X116469778Y-116148913D01*
X116421461Y-116232440D01*
X116356426Y-116336833D01*
X116277685Y-116457532D01*
X116188248Y-116589977D01*
X116091125Y-116729609D01*
X115989329Y-116871865D01*
X115975032Y-116891597D01*
X115872468Y-117035529D01*
X115779514Y-117170160D01*
X115699072Y-117291135D01*
X115634044Y-117394102D01*
X115587335Y-117474708D01*
X115533722Y-117574326D01*
X115615251Y-117655856D01*
X115645210Y-117688720D01*
X115705590Y-117786141D01*
X115733457Y-117891564D01*
X115728296Y-118001815D01*
X115689592Y-118113719D01*
X115673861Y-118143194D01*
X115622473Y-118214835D01*
X115568106Y-118256920D01*
X115513340Y-118267203D01*
X115513304Y-118267199D01*
X115484227Y-118257121D01*
X115461553Y-118229675D01*
X115438650Y-118176835D01*
X115435258Y-118167829D01*
X115382916Y-118062056D01*
X115318647Y-117987709D01*
X115241451Y-117943930D01*
X115150329Y-117929862D01*
X115091118Y-117936110D01*
X115006980Y-117963687D01*
X114912119Y-118015147D01*
X114802143Y-118092543D01*
X114776707Y-118111727D01*
X114724217Y-118149453D01*
X114684298Y-118175591D01*
X114664054Y-118185364D01*
X114644488Y-118176202D01*
X114615544Y-118150296D01*
X114597504Y-118121892D01*
X114587483Y-118077536D01*
X114585507Y-118009563D01*
X114585650Y-118000678D01*
X114588427Y-117831460D01*
X114591058Y-117693829D01*
X114593952Y-117585371D01*
X114597519Y-117503676D01*
X114602169Y-117446333D01*
X114608312Y-117410930D01*
X114616358Y-117395056D01*
X114626717Y-117396299D01*
X114639799Y-117412248D01*
X114656013Y-117440492D01*
X114675771Y-117478618D01*
X114688342Y-117504071D01*
X114702175Y-117538680D01*
X114710778Y-117575782D01*
X114715193Y-117623278D01*
X114716460Y-117689070D01*
X114715621Y-117781061D01*
X114712487Y-117999650D01*
X114781474Y-117937324D01*
X114784707Y-117934421D01*
X114894999Y-117855257D01*
X115013270Y-117808594D01*
X115142639Y-117793187D01*
X115172797Y-117793754D01*
X115256247Y-117802552D01*
X115317657Y-117820632D01*
X115352841Y-117842065D01*
X115413757Y-117898798D01*
X115465318Y-117969401D01*
X115497380Y-118041412D01*
X115507135Y-118071820D01*
X115520445Y-118089701D01*
X115537810Y-118082807D01*
X115553758Y-118064816D01*
X115578512Y-118010137D01*
X115591414Y-117940689D01*
X115589483Y-117868818D01*
X115571936Y-117809278D01*
X115533262Y-117748530D01*
X115482036Y-117706421D01*
X115425369Y-117690670D01*
X115390332Y-117688817D01*
X115375506Y-117684285D01*
X115382334Y-117656065D01*
X115402183Y-117603137D01*
X115432309Y-117532542D01*
X115469958Y-117450724D01*
X115512374Y-117364127D01*
X115520367Y-117348368D01*
X115541991Y-117306584D01*
X115564137Y-117265615D01*
X115588660Y-117222550D01*
X115617414Y-117174481D01*
X115652256Y-117118497D01*
X115695041Y-117051687D01*
X115747625Y-116971143D01*
X115811862Y-116873953D01*
X115889609Y-116757208D01*
X115982720Y-116617997D01*
X116093052Y-116453411D01*
X116126135Y-116403961D01*
X116195321Y-116299763D01*
X116260959Y-116199931D01*
X116319155Y-116110436D01*
X116366015Y-116037251D01*
X116397644Y-115986346D01*
X116405696Y-115973191D01*
X116449848Y-115907183D01*
X116494751Y-115848229D01*
X116531823Y-115807755D01*
X116570788Y-115767618D01*
X116619225Y-115710501D01*
X116665474Y-115649907D01*
X116710916Y-115583609D01*
X116750603Y-115517213D01*
X116782696Y-115450203D01*
X116807983Y-115378393D01*
X116827252Y-115297600D01*
X116841290Y-115203639D01*
X116850888Y-115092324D01*
X116856832Y-114959471D01*
X116859912Y-114800895D01*
X116860915Y-114612411D01*
X116860522Y-114472038D01*
X116858119Y-114272435D01*
X116853716Y-114080061D01*
X116847506Y-113899397D01*
X116845662Y-113860639D01*
X116982581Y-113860639D01*
X116990308Y-113880789D01*
X117013115Y-113895170D01*
X117030570Y-113904522D01*
X117042554Y-113937816D01*
X117043774Y-113959517D01*
X117046220Y-114012503D01*
X117049704Y-114092748D01*
X117054085Y-114196711D01*
X117059222Y-114320849D01*
X117064976Y-114461622D01*
X117071206Y-114615486D01*
X117077772Y-114778900D01*
X117084533Y-114948322D01*
X117091348Y-115120211D01*
X117098078Y-115291025D01*
X117104582Y-115457221D01*
X117110720Y-115615257D01*
X117116350Y-115761593D01*
X117121333Y-115892686D01*
X117125529Y-116004995D01*
X117128797Y-116094976D01*
X117130996Y-116159090D01*
X117131986Y-116193793D01*
X117132000Y-116194395D01*
X117138817Y-116212458D01*
X117163307Y-116220628D01*
X117213551Y-116221666D01*
X117281510Y-116219096D01*
X117322644Y-116211151D01*
X117342518Y-116191373D01*
X117347587Y-116153282D01*
X117344304Y-116090399D01*
X117342859Y-116064703D01*
X117340025Y-116002174D01*
X117336394Y-115912520D01*
X117332114Y-115799820D01*
X117327337Y-115668153D01*
X117322213Y-115521598D01*
X117316892Y-115364234D01*
X117311523Y-115200139D01*
X117308687Y-115112281D01*
X117303040Y-114939225D01*
X117297403Y-114768704D01*
X117291954Y-114605979D01*
X117286871Y-114456311D01*
X117282332Y-114324959D01*
X117278514Y-114217186D01*
X117275597Y-114138252D01*
X117270023Y-113993010D01*
X117425958Y-113993010D01*
X117433522Y-114157320D01*
X117434231Y-114173364D01*
X117436753Y-114234870D01*
X117440284Y-114325026D01*
X117444679Y-114439969D01*
X117449793Y-114575837D01*
X117455481Y-114728767D01*
X117461599Y-114894899D01*
X117468001Y-115070368D01*
X117474544Y-115251315D01*
X117480681Y-115416813D01*
X117488482Y-115611956D01*
X117495929Y-115780920D01*
X117502952Y-115922386D01*
X117509479Y-116035030D01*
X117515438Y-116117531D01*
X117520757Y-116168568D01*
X117525364Y-116186818D01*
X117539205Y-116193776D01*
X117575689Y-116215847D01*
X117622639Y-116246523D01*
X117660027Y-116275035D01*
X117728619Y-116354965D01*
X117772779Y-116456100D01*
X117793775Y-116580920D01*
X117795694Y-116606810D01*
X117795901Y-116608737D01*
X117801326Y-116659308D01*
X117810347Y-116689482D01*
X117826556Y-116705979D01*
X117853751Y-116717447D01*
X117897111Y-116730519D01*
X117932089Y-116729941D01*
X117955084Y-116706035D01*
X117975691Y-116653792D01*
X117986630Y-116626545D01*
X118017335Y-116565454D01*
X118058725Y-116493462D01*
X118105001Y-116421010D01*
X118148190Y-116354740D01*
X118185146Y-116286060D01*
X118203769Y-116224932D01*
X118205362Y-116161593D01*
X118191230Y-116086283D01*
X118162675Y-115989240D01*
X118160888Y-115983570D01*
X118133381Y-115872401D01*
X118128180Y-115781840D01*
X118145640Y-115706607D01*
X118186118Y-115641420D01*
X118237014Y-115593799D01*
X118320280Y-115553472D01*
X118415046Y-115543708D01*
X118517671Y-115565342D01*
X118538152Y-115573365D01*
X118555435Y-115579285D01*
X118568728Y-115578492D01*
X118579396Y-115567137D01*
X118588805Y-115541371D01*
X118598318Y-115497344D01*
X118609303Y-115431205D01*
X118623124Y-115339106D01*
X118641146Y-115217198D01*
X118658115Y-115111984D01*
X118695295Y-114931826D01*
X118740731Y-114774503D01*
X118797083Y-114632765D01*
X118867014Y-114499365D01*
X118953181Y-114367053D01*
X118962053Y-114354309D01*
X118993986Y-114303451D01*
X119012965Y-114264614D01*
X119015139Y-114245363D01*
X119009092Y-114240812D01*
X118974741Y-114219811D01*
X118916321Y-114186798D01*
X118838360Y-114144187D01*
X118745386Y-114094390D01*
X118641927Y-114039822D01*
X118532512Y-113982895D01*
X118421669Y-113926024D01*
X118313926Y-113871622D01*
X118036832Y-113733019D01*
X117954843Y-113791922D01*
X117918623Y-113815643D01*
X117828088Y-113864051D01*
X117722788Y-113910160D01*
X117615263Y-113948729D01*
X117518051Y-113974515D01*
X117425958Y-113993010D01*
X117270023Y-113993010D01*
X117264631Y-113852523D01*
X117313722Y-113852271D01*
X117334531Y-113851306D01*
X117411629Y-113839556D01*
X117506222Y-113816539D01*
X117608466Y-113784876D01*
X117708517Y-113747186D01*
X117739916Y-113733989D01*
X117789324Y-113711728D01*
X117812757Y-113697167D01*
X117814289Y-113687187D01*
X117797991Y-113678670D01*
X117779730Y-113673655D01*
X117719593Y-113666389D01*
X117641857Y-113664383D01*
X117557615Y-113667386D01*
X117477961Y-113675144D01*
X117413988Y-113687405D01*
X117384386Y-113695899D01*
X117317075Y-113716292D01*
X117236136Y-113741692D01*
X117153165Y-113768492D01*
X117085380Y-113791302D01*
X117030465Y-113812089D01*
X116998564Y-113828664D01*
X116984370Y-113843892D01*
X116982581Y-113860639D01*
X116845662Y-113860639D01*
X116839680Y-113734920D01*
X116830429Y-113591112D01*
X116819944Y-113472451D01*
X116808418Y-113383417D01*
X116803738Y-113355333D01*
X116801033Y-113337133D01*
X116946290Y-113337133D01*
X116946933Y-113393016D01*
X116952725Y-113471726D01*
X116963316Y-113568275D01*
X116978357Y-113677675D01*
X116979446Y-113679459D01*
X116987441Y-113679699D01*
X117007448Y-113674611D01*
X117044485Y-113662627D01*
X117103571Y-113642182D01*
X117189725Y-113611710D01*
X117291024Y-113577827D01*
X117435190Y-113539443D01*
X117563284Y-113519807D01*
X117682329Y-113518015D01*
X117799347Y-113533163D01*
X117853605Y-113543250D01*
X117908250Y-113550587D01*
X117939981Y-113549589D01*
X117954739Y-113540538D01*
X117966110Y-113502508D01*
X117964387Y-113441237D01*
X117949282Y-113371686D01*
X117923309Y-113304886D01*
X117888981Y-113251873D01*
X117824166Y-113201515D01*
X117733268Y-113165365D01*
X117623496Y-113145774D01*
X117500933Y-113143816D01*
X117371665Y-113160566D01*
X117363225Y-113162324D01*
X117289381Y-113180666D01*
X117206457Y-113205285D01*
X117122877Y-113233228D01*
X117047068Y-113261545D01*
X116987453Y-113287281D01*
X116952458Y-113307483D01*
X116951144Y-113309064D01*
X116946290Y-113337133D01*
X116801033Y-113337133D01*
X116794609Y-113293914D01*
X116794478Y-113251064D01*
X116807658Y-113220039D01*
X116838463Y-113194093D01*
X116891207Y-113166482D01*
X116970204Y-113130461D01*
X117062611Y-113090295D01*
X117206854Y-113037070D01*
X117336881Y-113003326D01*
X117460107Y-112987337D01*
X117583945Y-112987371D01*
X117589262Y-112987694D01*
X117730412Y-113004501D01*
X117844427Y-113036976D01*
X117935437Y-113087384D01*
X118007573Y-113157990D01*
X118064965Y-113251058D01*
X118074340Y-113270744D01*
X118097936Y-113331994D01*
X118109095Y-113392627D01*
X118111470Y-113469815D01*
X118111183Y-113502508D01*
X118110402Y-113591339D01*
X118302830Y-113687187D01*
X118410415Y-113740775D01*
X118486477Y-113779039D01*
X118607928Y-113841327D01*
X118731228Y-113905757D01*
X118845532Y-113966646D01*
X118939994Y-114018311D01*
X119169560Y-114146410D01*
X119336602Y-114134567D01*
X119367229Y-114132549D01*
X119443982Y-114129716D01*
X119488971Y-114132484D01*
X119503645Y-114140908D01*
X119498573Y-114152352D01*
X119469090Y-114179307D01*
X119419923Y-114211297D01*
X119358710Y-114243587D01*
X119354526Y-114245363D01*
X119293087Y-114271443D01*
X119276058Y-114278510D01*
X119197026Y-114331271D01*
X119117096Y-114416575D01*
X119037284Y-114533183D01*
X118958603Y-114679857D01*
X118940948Y-114716975D01*
X118903453Y-114801509D01*
X118873572Y-114880810D01*
X118849144Y-114962719D01*
X118828008Y-115055075D01*
X118808003Y-115165719D01*
X118786968Y-115302490D01*
X118782982Y-115329377D01*
X118760230Y-115470446D01*
X118735524Y-115605634D01*
X118709832Y-115730957D01*
X118684123Y-115842429D01*
X118659365Y-115936067D01*
X118636526Y-116007884D01*
X118616573Y-116053896D01*
X118600475Y-116070119D01*
X118595329Y-116066878D01*
X118578933Y-116040970D01*
X118560118Y-115997621D01*
X118555600Y-115984950D01*
X118541881Y-115918734D01*
X118548528Y-115848360D01*
X118552972Y-115825815D01*
X118561120Y-115781697D01*
X118564689Y-115757932D01*
X118556312Y-115744231D01*
X118523528Y-115725921D01*
X118476090Y-115710332D01*
X118424948Y-115700863D01*
X118381050Y-115700913D01*
X118342581Y-115710502D01*
X118299886Y-115738338D01*
X118280711Y-115784050D01*
X118284143Y-115850700D01*
X118309268Y-115941347D01*
X118312244Y-115950168D01*
X118339042Y-116051522D01*
X118354021Y-116152874D01*
X118356210Y-116243967D01*
X118344636Y-116314545D01*
X118337784Y-116331750D01*
X118311818Y-116383142D01*
X118274574Y-116447661D01*
X118231661Y-116515338D01*
X118196850Y-116569847D01*
X118149989Y-116653308D01*
X118119585Y-116722412D01*
X118107297Y-116773097D01*
X118114784Y-116801302D01*
X118115048Y-116801526D01*
X118138566Y-116814933D01*
X118183843Y-116836510D01*
X118241322Y-116861694D01*
X118343623Y-116911037D01*
X118495616Y-117003600D01*
X118651831Y-117118675D01*
X118806533Y-117251247D01*
X118953983Y-117396297D01*
X119088446Y-117548809D01*
X119204185Y-117703765D01*
X119322608Y-117878915D01*
X119460037Y-117922845D01*
X119550136Y-117947072D01*
X119682205Y-117969503D01*
X119814692Y-117978914D01*
X119937213Y-117974704D01*
X120039387Y-117956274D01*
X120067431Y-117947482D01*
X120196540Y-117887795D01*
X120303823Y-117804174D01*
X120386538Y-117699209D01*
X120441946Y-117575493D01*
X120448946Y-117551986D01*
X120470895Y-117449344D01*
X120473396Y-117353339D01*
X120457250Y-117246805D01*
X120444928Y-117199026D01*
X120430616Y-117171968D01*
X120413208Y-117169203D01*
X120389625Y-117175032D01*
X120346220Y-117178917D01*
X120313080Y-117187589D01*
X120287486Y-117223791D01*
X120260324Y-117279897D01*
X120193405Y-117359527D01*
X120103639Y-117415431D01*
X119993953Y-117445400D01*
X119958014Y-117448355D01*
X119850565Y-117434838D01*
X119742775Y-117389143D01*
X119637135Y-117312567D01*
X119536132Y-117206411D01*
X119509673Y-117171170D01*
X119466402Y-117105996D01*
X119419857Y-117029274D01*
X119373672Y-116947704D01*
X119331480Y-116867983D01*
X119296915Y-116796812D01*
X119273611Y-116740890D01*
X119265202Y-116706916D01*
X119273872Y-116662385D01*
X119303761Y-116595234D01*
X119349997Y-116522598D01*
X119407386Y-116453726D01*
X119422391Y-116438133D01*
X119460543Y-116401267D01*
X119489503Y-116383048D01*
X119520015Y-116378584D01*
X119562827Y-116382983D01*
X119640309Y-116393604D01*
X119613874Y-116329947D01*
X119590664Y-116283908D01*
X119537152Y-116223045D01*
X119471267Y-116193617D01*
X119394932Y-116196246D01*
X119310069Y-116231555D01*
X119279403Y-116248015D01*
X119233829Y-116266907D01*
X119204419Y-116271898D01*
X119198492Y-116262871D01*
X119205953Y-116226415D01*
X119231862Y-116162899D01*
X119275845Y-116073041D01*
X119337526Y-115957557D01*
X119416532Y-115817168D01*
X119512488Y-115652591D01*
X119625021Y-115464545D01*
X119693095Y-115351721D01*
X119819085Y-115140894D01*
X119928026Y-114955161D01*
X120020994Y-114792186D01*
X120099066Y-114649635D01*
X120163318Y-114525174D01*
X120214824Y-114416469D01*
X120254663Y-114321184D01*
X120283909Y-114236985D01*
X120303639Y-114161538D01*
X120314928Y-114092509D01*
X120318852Y-114027563D01*
X120316488Y-113964365D01*
X120308042Y-113894719D01*
X120289958Y-113819273D01*
X120260277Y-113747024D01*
X120215992Y-113673070D01*
X120154095Y-113592506D01*
X120071580Y-113500428D01*
X119965439Y-113391932D01*
X119799650Y-113231963D01*
X119590600Y-113044212D01*
X119366828Y-112858487D01*
X119119831Y-112667503D01*
X119057251Y-112620971D01*
X118936003Y-112532903D01*
X118817009Y-112448990D01*
X118703840Y-112371573D01*
X118600067Y-112302988D01*
X118509262Y-112245574D01*
X118434996Y-112201669D01*
X118380841Y-112173611D01*
X118350367Y-112163739D01*
X118313187Y-112158456D01*
X118252589Y-112143128D01*
X118180944Y-112121191D01*
X118108808Y-112096112D01*
X118046737Y-112071357D01*
X118005288Y-112050395D01*
X117976838Y-112034138D01*
X117961905Y-112030173D01*
X117960844Y-112032855D01*
X117952488Y-112059867D01*
X117938220Y-112109028D01*
X117920397Y-112172268D01*
X117891776Y-112261456D01*
X117848013Y-112370684D01*
X117796496Y-112478912D01*
X117740344Y-112580922D01*
X117682677Y-112671496D01*
X117626613Y-112745416D01*
X117575272Y-112797463D01*
X117531772Y-112822421D01*
X117502311Y-112826565D01*
X117474011Y-112817060D01*
X117455010Y-112786633D01*
X117442921Y-112730907D01*
X117435362Y-112645508D01*
X117434026Y-112626591D01*
X117423520Y-112532392D01*
X117407304Y-112429087D01*
X117388292Y-112335845D01*
X117350153Y-112175312D01*
X117275498Y-112318787D01*
X117186793Y-112470753D01*
X117063788Y-112640837D01*
X116929482Y-112789415D01*
X116890008Y-112826684D01*
X116848456Y-112859802D01*
X116815883Y-112874937D01*
X116784596Y-112876724D01*
X116771008Y-112875147D01*
X116752556Y-112869475D01*
X116739443Y-112854885D01*
X116728946Y-112825190D01*
X116718342Y-112774205D01*
X116704905Y-112695745D01*
X116695347Y-112640836D01*
X116682960Y-112576197D01*
X116672760Y-112530306D01*
X116666307Y-112510641D01*
X116666042Y-112510432D01*
X116653895Y-112521041D01*
X116631886Y-112555083D01*
X116604584Y-112605532D01*
X116603930Y-112606825D01*
X116576000Y-112658580D01*
X116552873Y-112695298D01*
X116539498Y-112709104D01*
X116538825Y-112708894D01*
X116524294Y-112691820D01*
X116496956Y-112651352D01*
X116460464Y-112593117D01*
X116418474Y-112522744D01*
X116309998Y-112336889D01*
X116145539Y-112449286D01*
X116087425Y-112489177D01*
X116018497Y-112536921D01*
X115960858Y-112577305D01*
X115922978Y-112604428D01*
X115864876Y-112647172D01*
X115823870Y-112597363D01*
X115820984Y-112593824D01*
X115792602Y-112557783D01*
X115749940Y-112502396D01*
X115698273Y-112434547D01*
X115642874Y-112361119D01*
X115628111Y-112341581D01*
X115577161Y-112276084D01*
X115533701Y-112223101D01*
X115501945Y-112187641D01*
X115486106Y-112174716D01*
X115484398Y-112175217D01*
X115467455Y-112194669D01*
X115440185Y-112237868D01*
X115405805Y-112298621D01*
X115367531Y-112370736D01*
X115328580Y-112448019D01*
X115292167Y-112524278D01*
X115261509Y-112593320D01*
X115239822Y-112648952D01*
X115230058Y-112677865D01*
X115214657Y-112731110D01*
X115207984Y-112777506D01*
X115212003Y-112821698D01*
X115228681Y-112868328D01*
X115259984Y-112922040D01*
X115307878Y-112987478D01*
X115374329Y-113069284D01*
X115461301Y-113172104D01*
X115557421Y-113284901D01*
X115631718Y-113120929D01*
X115665735Y-113047478D01*
X115710332Y-112955253D01*
X115754278Y-112868259D01*
X115794834Y-112791641D01*
X115829263Y-112730544D01*
X115854826Y-112690112D01*
X115868784Y-112675492D01*
X115869167Y-112675577D01*
X115884185Y-112690645D01*
X115915722Y-112728722D01*
X115960454Y-112785587D01*
X116015056Y-112857019D01*
X116076203Y-112938797D01*
X116081131Y-112945452D01*
X116141849Y-113026648D01*
X116195690Y-113097262D01*
X116239341Y-113153052D01*
X116269489Y-113189779D01*
X116282819Y-113203203D01*
X116286777Y-113199659D01*
X116304361Y-113172171D01*
X116332434Y-113121883D01*
X116368103Y-113054071D01*
X116408473Y-112974014D01*
X116428975Y-112933082D01*
X116467934Y-112858223D01*
X116501160Y-112798162D01*
X116525649Y-112758222D01*
X116538399Y-112743726D01*
X116546268Y-112748306D01*
X116566746Y-112778454D01*
X116592457Y-112831112D01*
X116620562Y-112899633D01*
X116648219Y-112977371D01*
X116672587Y-113057682D01*
X116683036Y-113100452D01*
X116700011Y-113185545D01*
X116715963Y-113281952D01*
X116728480Y-113375935D01*
X116732769Y-113414342D01*
X116740129Y-113489660D01*
X116742541Y-113544290D01*
X116739629Y-113587595D01*
X116731014Y-113628936D01*
X116716320Y-113677675D01*
X116697788Y-113730296D01*
X116680791Y-113769361D01*
X116669720Y-113784290D01*
X116657918Y-113773681D01*
X116634123Y-113740421D01*
X116604810Y-113692387D01*
X116604558Y-113691948D01*
X116573715Y-113641573D01*
X116528884Y-113572693D01*
X116476039Y-113494317D01*
X116421156Y-113415453D01*
X116290083Y-113230421D01*
X116157523Y-113502885D01*
X116119049Y-113580947D01*
X116079373Y-113659135D01*
X116046474Y-113721468D01*
X116022988Y-113762966D01*
X116011551Y-113778649D01*
X115998208Y-113771372D01*
X115969027Y-113743734D01*
X115932195Y-113702093D01*
X115896992Y-113660288D01*
X115840422Y-113595392D01*
X115779285Y-113527254D01*
X115718084Y-113460693D01*
X115661324Y-113400532D01*
X115613510Y-113351591D01*
X115579144Y-113318692D01*
X115562733Y-113306654D01*
X115554145Y-113319202D01*
X115537356Y-113358411D01*
X115515021Y-113417910D01*
X115489316Y-113491171D01*
X115462416Y-113571666D01*
X115436499Y-113652871D01*
X115413741Y-113728256D01*
X115396318Y-113791297D01*
X115386406Y-113835465D01*
X115384399Y-113877761D01*
X115405828Y-113957752D01*
X115405868Y-113957837D01*
X115427266Y-113993017D01*
X115463963Y-114043115D01*
X115511415Y-114102911D01*
X115565077Y-114167187D01*
X115620404Y-114230721D01*
X115672850Y-114288294D01*
X115717870Y-114334686D01*
X115750920Y-114364678D01*
X115767453Y-114373050D01*
X115775741Y-114362080D01*
X115792865Y-114325641D01*
X115811669Y-114274519D01*
X115823130Y-114241562D01*
X115847619Y-114176661D01*
X115877666Y-114101162D01*
X115910287Y-114022131D01*
X115942499Y-113946637D01*
X115971320Y-113881746D01*
X115993765Y-113834527D01*
X116006854Y-113812048D01*
X116015626Y-113810891D01*
X116042452Y-113827075D01*
X116077315Y-113861196D01*
X116110376Y-113900472D01*
X116160216Y-113962761D01*
X116216419Y-114035234D01*
X116273431Y-114110542D01*
X116325698Y-114181334D01*
X116367666Y-114240262D01*
X116393780Y-114279974D01*
X116396698Y-114284829D01*
X116419134Y-114316999D01*
X116434084Y-114330159D01*
X116436761Y-114328410D01*
X116446855Y-114312443D01*
X116463964Y-114277697D01*
X116489229Y-114221598D01*
X116523795Y-114141571D01*
X116568806Y-114035042D01*
X116625405Y-113899434D01*
X116638829Y-113869630D01*
X116659458Y-113832794D01*
X116673759Y-113818407D01*
X116685143Y-113827697D01*
X116708172Y-113860188D01*
X116735628Y-113907963D01*
X116740010Y-113916296D01*
X116754113Y-113944497D01*
X116764805Y-113971426D01*
X116772638Y-114002140D01*
X116778166Y-114041691D01*
X116781941Y-114095136D01*
X116784516Y-114167530D01*
X116786445Y-114263928D01*
X116788279Y-114389384D01*
X116789549Y-114502999D01*
X116789805Y-114633143D01*
X116788177Y-114733731D01*
X116784518Y-114807392D01*
X116778678Y-114856752D01*
X116770510Y-114884442D01*
X116759864Y-114893088D01*
X116752012Y-114886944D01*
X116732190Y-114857546D01*
X116708164Y-114812060D01*
X116684483Y-114765708D01*
X116650546Y-114703461D01*
X116610519Y-114632574D01*
X116568166Y-114559464D01*
X116527249Y-114490551D01*
X116491533Y-114432250D01*
X116464782Y-114390981D01*
X116450759Y-114373159D01*
X116448651Y-114373621D01*
X116433009Y-114393268D01*
X116406489Y-114436711D01*
X116372197Y-114498651D01*
X116333236Y-114573791D01*
X116326573Y-114587003D01*
X116284848Y-114668740D01*
X116246087Y-114743127D01*
X116214360Y-114802428D01*
X116193736Y-114838908D01*
X116159162Y-114895609D01*
X116037847Y-114736912D01*
X116035761Y-114734185D01*
X115944589Y-114616881D01*
X115872131Y-114527843D01*
X115818244Y-114466911D01*
X115782787Y-114433922D01*
X115765617Y-114428717D01*
X115763186Y-114432521D01*
X115750508Y-114462566D01*
X115732142Y-114513983D01*
X115711173Y-114578293D01*
X115668253Y-114715546D01*
X115709522Y-114874436D01*
X115718532Y-114910449D01*
X115735075Y-114984646D01*
X115746517Y-115047415D01*
X115750791Y-115088049D01*
X115752630Y-115113837D01*
X115762607Y-115172618D01*
X115778353Y-115235425D01*
X115805915Y-115328077D01*
X115890065Y-115234256D01*
X115891634Y-115232503D01*
X115945696Y-115169606D01*
X116006443Y-115095297D01*
X116061020Y-115025290D01*
X116076024Y-115005696D01*
X116115719Y-114956887D01*
X116146859Y-114922900D01*
X116163726Y-114910146D01*
X116173619Y-114919381D01*
X116195358Y-114954383D01*
X116224510Y-115009401D01*
X116258019Y-115077952D01*
X116292833Y-115153551D01*
X116325896Y-115229714D01*
X116354156Y-115299956D01*
X116374558Y-115357793D01*
X116375463Y-115360688D01*
X116392741Y-115412853D01*
X116405455Y-115437843D01*
X116418321Y-115441028D01*
X116436060Y-115427775D01*
X116457577Y-115403802D01*
X116494860Y-115355152D01*
X116540461Y-115291313D01*
X116589284Y-115219773D01*
X116636234Y-115148019D01*
X116676217Y-115083539D01*
X116704136Y-115033820D01*
X116716754Y-115010519D01*
X116740113Y-114975219D01*
X116756086Y-114961321D01*
X116765886Y-114968866D01*
X116777483Y-115002419D01*
X116784913Y-115054491D01*
X116787040Y-115115882D01*
X116782730Y-115177392D01*
X116771807Y-115239254D01*
X116741860Y-115350621D01*
X116701930Y-115456968D01*
X116657008Y-115543746D01*
X116621334Y-115596011D01*
X116579225Y-115651077D01*
X116538429Y-115699124D01*
X116504941Y-115733115D01*
X116484756Y-115746009D01*
X116475971Y-115732818D01*
X116463749Y-115694326D01*
X116451434Y-115639394D01*
X116441347Y-115588035D01*
X116430138Y-115534878D01*
X116422401Y-115502687D01*
X116418463Y-115497288D01*
X116403716Y-115499541D01*
X116376202Y-115517352D01*
X116333133Y-115552916D01*
X116271721Y-115608422D01*
X116189179Y-115686065D01*
X116121389Y-115749993D01*
X116056731Y-115809823D01*
X116004227Y-115857176D01*
X115968018Y-115888324D01*
X115952244Y-115899535D01*
X115951938Y-115899530D01*
X115946381Y-115896958D01*
X115940362Y-115886740D01*
X115932711Y-115864603D01*
X115922257Y-115826272D01*
X115907830Y-115767476D01*
X115888261Y-115683940D01*
X115862378Y-115571392D01*
X115862336Y-115571212D01*
X115843242Y-115492734D01*
X115825139Y-115426949D01*
X115810068Y-115380748D01*
X115800070Y-115361022D01*
X115789422Y-115360585D01*
X115766748Y-115372315D01*
X115730758Y-115399495D01*
X115678787Y-115444328D01*
X115608169Y-115509020D01*
X115516238Y-115595776D01*
X115471222Y-115639318D01*
X115429858Y-115682955D01*
X115406029Y-115715881D01*
X115395102Y-115744866D01*
X115392445Y-115776679D01*
X115393875Y-115808248D01*
X115399416Y-115868338D01*
X115408076Y-115943029D01*
X115418730Y-116024234D01*
X115430249Y-116103865D01*
X115441509Y-116173836D01*
X115451380Y-116226060D01*
X115458738Y-116252448D01*
X115461128Y-116254130D01*
X115485510Y-116245814D01*
X115533776Y-116215906D01*
X115604663Y-116165242D01*
X115696910Y-116094657D01*
X115755322Y-116049252D01*
X115824533Y-115996407D01*
X115881027Y-115954374D01*
X115920132Y-115926616D01*
X115937178Y-115916593D01*
X115937550Y-115916719D01*
X115944079Y-115935087D01*
X115953940Y-115979836D01*
X115966033Y-116044122D01*
X115979259Y-116121101D01*
X115992520Y-116203929D01*
X116004716Y-116285764D01*
X116014749Y-116359761D01*
X116021520Y-116419078D01*
X116023931Y-116456869D01*
X116023816Y-116459746D01*
X116016309Y-116483047D01*
X115994994Y-116512098D01*
X115956960Y-116549541D01*
X115899296Y-116598018D01*
X115819091Y-116660171D01*
X115713433Y-116738642D01*
X115578873Y-116837300D01*
X115543363Y-116863336D01*
X115553417Y-117004867D01*
X115563470Y-117146399D01*
X115433384Y-117374468D01*
X115429841Y-117380669D01*
X115359559Y-117498793D01*
X115299764Y-117588376D01*
X115248126Y-117652320D01*
X115202316Y-117693525D01*
X115160006Y-117714892D01*
X115159671Y-117714992D01*
X115143959Y-117718369D01*
X115131917Y-117714761D01*
X115122332Y-117699677D01*
X115113988Y-117668629D01*
X115105671Y-117617125D01*
X115096169Y-117540677D01*
X115084266Y-117434793D01*
X115077664Y-117377395D01*
X115069547Y-117313055D01*
X115062984Y-117268028D01*
X115058973Y-117249623D01*
X115047670Y-117251616D01*
X115017403Y-117271641D01*
X114975551Y-117305667D01*
X114928776Y-117347661D01*
X114883740Y-117391586D01*
X114847104Y-117431409D01*
X114825531Y-117461095D01*
X114800569Y-117504092D01*
X114778505Y-117524364D01*
X114759510Y-117513542D01*
X114739121Y-117472199D01*
X114728348Y-117442257D01*
X114721885Y-117405547D01*
X114725169Y-117362411D01*
X114738124Y-117299693D01*
X114749530Y-117246433D01*
X114756701Y-117204408D01*
X114757308Y-117186195D01*
X114754267Y-117184632D01*
X114727096Y-117177627D01*
X114682674Y-117169459D01*
X114643293Y-117165373D01*
X114603779Y-117173290D01*
X114563905Y-117201443D01*
X114514055Y-117244447D01*
X114519281Y-117455390D01*
X114520111Y-117527124D01*
X114518302Y-117611377D01*
X114513517Y-117676353D01*
X114506130Y-117714668D01*
X114503730Y-117720241D01*
X114479926Y-117759834D01*
X114441362Y-117812530D01*
X114395129Y-117868503D01*
X114311570Y-117972824D01*
X114247357Y-118078406D01*
X114210399Y-118178260D01*
X114198641Y-118276653D01*
X114034405Y-118276653D01*
X114033876Y-118269131D01*
X114052172Y-118151113D01*
X114078266Y-118066957D01*
X114118619Y-117979200D01*
X114175588Y-117890450D01*
X114254590Y-117791073D01*
X114293306Y-117745771D01*
X114337425Y-117692767D01*
X114365108Y-117652974D01*
X114379194Y-117618149D01*
X114382524Y-117580051D01*
X114377936Y-117530435D01*
X114368269Y-117461058D01*
X114360319Y-117393168D01*
X114357127Y-117299664D01*
X114368109Y-117225460D01*
X114394845Y-117162546D01*
X114438914Y-117102913D01*
X114443683Y-117097597D01*
X114514350Y-117041883D01*
X114599675Y-117014707D01*
X114703313Y-117014852D01*
X114794167Y-117025530D01*
X114810996Y-116961492D01*
X114815023Y-116945574D01*
X114827740Y-116892796D01*
X114845284Y-116818086D01*
X114865890Y-116728988D01*
X114882346Y-116656910D01*
X115029419Y-116656910D01*
X115039090Y-116908545D01*
X115040719Y-116946958D01*
X115045595Y-117034080D01*
X115051321Y-117107406D01*
X115057312Y-117160168D01*
X115062984Y-117185595D01*
X115079765Y-117186175D01*
X115117498Y-117168698D01*
X115170649Y-117136653D01*
X115233916Y-117094003D01*
X115301997Y-117044711D01*
X115369590Y-116992738D01*
X115431392Y-116942048D01*
X115482101Y-116896604D01*
X115516415Y-116860367D01*
X115529031Y-116837300D01*
X115528755Y-116831467D01*
X115525172Y-116795954D01*
X115518205Y-116738108D01*
X115508813Y-116664952D01*
X115497956Y-116583507D01*
X115486594Y-116500797D01*
X115475686Y-116423842D01*
X115466193Y-116359667D01*
X115459074Y-116315293D01*
X115455288Y-116297742D01*
X115448549Y-116302115D01*
X115419902Y-116324867D01*
X115372814Y-116363796D01*
X115311644Y-116415287D01*
X115240751Y-116475723D01*
X115029419Y-116656910D01*
X114882346Y-116656910D01*
X114887794Y-116633047D01*
X114893148Y-116609567D01*
X114946183Y-116391780D01*
X114999695Y-116202427D01*
X115056018Y-116036402D01*
X115117487Y-115888597D01*
X115186434Y-115753903D01*
X115265193Y-115627213D01*
X115356099Y-115503419D01*
X115461485Y-115377413D01*
X115492824Y-115341303D01*
X115544581Y-115276069D01*
X115576375Y-115222070D01*
X115591313Y-115170731D01*
X115592497Y-115113479D01*
X115583034Y-115041738D01*
X115581766Y-115034342D01*
X115569323Y-114972728D01*
X115551459Y-114900887D01*
X115527056Y-114815210D01*
X115494996Y-114712086D01*
X115454163Y-114587904D01*
X115403439Y-114439054D01*
X115341706Y-114261926D01*
X115317813Y-114193355D01*
X115233064Y-113938195D01*
X115164370Y-113707942D01*
X115111341Y-113498656D01*
X115073587Y-113306399D01*
X115050715Y-113127230D01*
X115042335Y-112957212D01*
X115048056Y-112792404D01*
X115067486Y-112628869D01*
X115100236Y-112462666D01*
X115145912Y-112289856D01*
X115146717Y-112287034D01*
X115148540Y-112268625D01*
X115136737Y-112257499D01*
X115104495Y-112250625D01*
X115044999Y-112244973D01*
X114971852Y-112235227D01*
X114889822Y-112209463D01*
X114837490Y-112170509D01*
X114815984Y-112118984D01*
X114816270Y-112089575D01*
X114817518Y-112086976D01*
X115053486Y-112086976D01*
X115124939Y-112092469D01*
X115161480Y-112093504D01*
X115274880Y-112080030D01*
X115402530Y-112044552D01*
X115538108Y-111989497D01*
X115675295Y-111917289D01*
X115807771Y-111830356D01*
X115843277Y-111805125D01*
X115895711Y-111770732D01*
X115933991Y-111749337D01*
X115951635Y-111744793D01*
X115954995Y-111763659D01*
X115957789Y-111811319D01*
X115959753Y-111882108D01*
X115960736Y-111970453D01*
X115960584Y-112070781D01*
X115960596Y-112169308D01*
X115962036Y-112255918D01*
X115964703Y-112324363D01*
X115968389Y-112369329D01*
X115972887Y-112385499D01*
X115987909Y-112380560D01*
X116028086Y-112355994D01*
X116085007Y-112314332D01*
X116153919Y-112259503D01*
X116230074Y-112195435D01*
X116308720Y-112126059D01*
X116385109Y-112055305D01*
X116454489Y-111987101D01*
X116490568Y-111950605D01*
X116550025Y-111892026D01*
X116598642Y-111846132D01*
X116632155Y-111816898D01*
X116646302Y-111808299D01*
X116649005Y-111813518D01*
X116659837Y-111846518D01*
X116676096Y-111904148D01*
X116696299Y-111980445D01*
X116718965Y-112069448D01*
X116742611Y-112165194D01*
X116765755Y-112261722D01*
X116786915Y-112353071D01*
X116804609Y-112433277D01*
X116817355Y-112496378D01*
X116824019Y-112531662D01*
X116836237Y-112593385D01*
X116845652Y-112637049D01*
X116850636Y-112654896D01*
X116858411Y-112651755D01*
X116882251Y-112626236D01*
X116917799Y-112580815D01*
X116961379Y-112520830D01*
X117009315Y-112451622D01*
X117057933Y-112378528D01*
X117103557Y-112306888D01*
X117142511Y-112242041D01*
X117171121Y-112189327D01*
X117206754Y-112115825D01*
X117249678Y-112018956D01*
X117278281Y-111938414D01*
X117294684Y-111866377D01*
X117301009Y-111795023D01*
X117299378Y-111716530D01*
X117298540Y-111702683D01*
X117293222Y-111643317D01*
X117283746Y-111593319D01*
X117266996Y-111542897D01*
X117239860Y-111482261D01*
X117199222Y-111401618D01*
X117163493Y-111333866D01*
X117129323Y-111272138D01*
X117102808Y-111227532D01*
X117087770Y-111206734D01*
X117066452Y-111206150D01*
X117038638Y-111238021D01*
X117029904Y-111251636D01*
X116987939Y-111314479D01*
X116937349Y-111387223D01*
X116881659Y-111465137D01*
X116824393Y-111543489D01*
X116769075Y-111617548D01*
X116719228Y-111682583D01*
X116678376Y-111733864D01*
X116650044Y-111766659D01*
X116637754Y-111776236D01*
X116627023Y-111755348D01*
X116608985Y-111711420D01*
X116587837Y-111654437D01*
X116568903Y-111602353D01*
X116535608Y-111515515D01*
X116501275Y-111430724D01*
X116468492Y-111353965D01*
X116439842Y-111291226D01*
X116417912Y-111248491D01*
X116405287Y-111231748D01*
X116390261Y-111241661D01*
X116358109Y-111273134D01*
X116313923Y-111321203D01*
X116262544Y-111380812D01*
X116221977Y-111428412D01*
X116155258Y-111504055D01*
X116090782Y-111574453D01*
X116038165Y-111628973D01*
X115941725Y-111724424D01*
X115922680Y-111624236D01*
X115914776Y-111584856D01*
X115899375Y-111514279D01*
X115881451Y-111436950D01*
X115862967Y-111360885D01*
X115845886Y-111294099D01*
X115832171Y-111244610D01*
X115823786Y-111220433D01*
X115818078Y-111215396D01*
X115806730Y-111218235D01*
X115788439Y-111233248D01*
X115761013Y-111263003D01*
X115722262Y-111310065D01*
X115669994Y-111377002D01*
X115602017Y-111466379D01*
X115516141Y-111580764D01*
X115446265Y-111673132D01*
X115354979Y-111789508D01*
X115278434Y-111880982D01*
X115214593Y-111949956D01*
X115161418Y-111998831D01*
X115053486Y-112086976D01*
X114817518Y-112086976D01*
X114827997Y-112065153D01*
X114857177Y-112038441D01*
X114909805Y-112001963D01*
X114992347Y-111939893D01*
X115104147Y-111835438D01*
X115218666Y-111707335D01*
X115331270Y-111560437D01*
X115336545Y-111553039D01*
X115391907Y-111476398D01*
X115459058Y-111384761D01*
X115530001Y-111288988D01*
X115596738Y-111199938D01*
X115666691Y-111105229D01*
X115671916Y-111097587D01*
X115885519Y-111097587D01*
X115937900Y-111037883D01*
X115943866Y-111030908D01*
X115981161Y-110983147D01*
X116026352Y-110920552D01*
X116070972Y-110854776D01*
X116086464Y-110831373D01*
X116121897Y-110780158D01*
X116148792Y-110744533D01*
X116162271Y-110731102D01*
X116166246Y-110734990D01*
X116184064Y-110762935D01*
X116212763Y-110813411D01*
X116249408Y-110881176D01*
X116291061Y-110960989D01*
X116409244Y-111191147D01*
X116512522Y-111050546D01*
X116532360Y-111023340D01*
X116589475Y-110943347D01*
X116645521Y-110862850D01*
X116690783Y-110795734D01*
X116700884Y-110780509D01*
X116736115Y-110729930D01*
X116763577Y-110694315D01*
X116778022Y-110680590D01*
X116783432Y-110684510D01*
X116799110Y-110705061D01*
X116825368Y-110745037D01*
X116863468Y-110806480D01*
X116914671Y-110891436D01*
X116980237Y-111001949D01*
X117061428Y-111140063D01*
X117068690Y-111143732D01*
X117092136Y-111127086D01*
X117128006Y-111082437D01*
X117175014Y-111011644D01*
X117231874Y-110916567D01*
X117297299Y-110799065D01*
X117324611Y-110747523D01*
X117344992Y-110703186D01*
X117358299Y-110661153D01*
X117366659Y-110612325D01*
X117372198Y-110547605D01*
X117377042Y-110457896D01*
X117387589Y-110244666D01*
X117320503Y-110213763D01*
X117253600Y-110166440D01*
X117201157Y-110094915D01*
X117172539Y-110010000D01*
X117172681Y-110000807D01*
X117303672Y-110000807D01*
X117329663Y-110061757D01*
X117343358Y-110079765D01*
X117366421Y-110097412D01*
X117379036Y-110082826D01*
X117381817Y-110035700D01*
X117382860Y-109996808D01*
X117393985Y-109974471D01*
X117421561Y-109965846D01*
X117464901Y-109973400D01*
X117492747Y-110004416D01*
X117495486Y-110049287D01*
X117494177Y-110077193D01*
X117508981Y-110078788D01*
X117535238Y-110052758D01*
X117557768Y-110006808D01*
X117557853Y-109953081D01*
X117534321Y-109906117D01*
X117492665Y-109872280D01*
X117438381Y-109857934D01*
X117376962Y-109869440D01*
X117339214Y-109893252D01*
X117307511Y-109941970D01*
X117303672Y-110000807D01*
X117172681Y-110000807D01*
X117173363Y-109956491D01*
X117195895Y-109880875D01*
X117238671Y-109805470D01*
X117240638Y-109802689D01*
X117251478Y-109773241D01*
X117237556Y-109739398D01*
X117229542Y-109726015D01*
X117205132Y-109684203D01*
X117168213Y-109620389D01*
X117121424Y-109539153D01*
X117067408Y-109445073D01*
X117008804Y-109342730D01*
X116967030Y-109269728D01*
X116913558Y-109176428D01*
X116867535Y-109096293D01*
X116831328Y-109033440D01*
X116807305Y-108991983D01*
X116797834Y-108976037D01*
X116796003Y-108976371D01*
X116775024Y-108990840D01*
X116734674Y-109022733D01*
X116679734Y-109068198D01*
X116614984Y-109123382D01*
X116541262Y-109186257D01*
X116448516Y-109263844D01*
X116357343Y-109338768D01*
X116279752Y-109401080D01*
X116232085Y-109438881D01*
X116180806Y-109481230D01*
X116149398Y-109511450D01*
X116133585Y-109534750D01*
X116129089Y-109556336D01*
X116131631Y-109581419D01*
X116134670Y-109612567D01*
X116132547Y-109628657D01*
X116123195Y-109699515D01*
X116085877Y-109778577D01*
X116027550Y-109841657D01*
X115953045Y-109880658D01*
X115929397Y-109888548D01*
X115897901Y-109906632D01*
X115893748Y-109927877D01*
X115901694Y-109952389D01*
X115925075Y-110029198D01*
X115948856Y-110112924D01*
X115970966Y-110195657D01*
X115989334Y-110269488D01*
X116001889Y-110326507D01*
X116006561Y-110358803D01*
X116010965Y-110391970D01*
X116023726Y-110415250D01*
X116025209Y-110415999D01*
X116036250Y-110405941D01*
X116040016Y-110369346D01*
X116041864Y-110355528D01*
X116055251Y-110312040D01*
X116078817Y-110251992D01*
X116109278Y-110182266D01*
X116143347Y-110109745D01*
X116177740Y-110041313D01*
X116209173Y-109983850D01*
X116234359Y-109944241D01*
X116250014Y-109929367D01*
X116254080Y-109931488D01*
X116275736Y-109953634D01*
X116309557Y-109994755D01*
X116350196Y-110048494D01*
X116367193Y-110071624D01*
X116404333Y-110120899D01*
X116431472Y-110155098D01*
X116443663Y-110167903D01*
X116444407Y-110167248D01*
X116456456Y-110146938D01*
X116480790Y-110101580D01*
X116515030Y-110035736D01*
X116556798Y-109953972D01*
X116603712Y-109860851D01*
X116613785Y-109840756D01*
X116659824Y-109749623D01*
X116700217Y-109670797D01*
X116732588Y-109608841D01*
X116754556Y-109568321D01*
X116763743Y-109553799D01*
X116763956Y-109553883D01*
X116776254Y-109569376D01*
X116804156Y-109608618D01*
X116844650Y-109667250D01*
X116894726Y-109740916D01*
X116951371Y-109825259D01*
X117132674Y-110096719D01*
X117050331Y-110238926D01*
X117045427Y-110247385D01*
X116982794Y-110353676D01*
X116924186Y-110450078D01*
X116872152Y-110532627D01*
X116829244Y-110597359D01*
X116798011Y-110640311D01*
X116781003Y-110657519D01*
X116777268Y-110657567D01*
X116756149Y-110641540D01*
X116730885Y-110606785D01*
X116703532Y-110562632D01*
X116664101Y-110502288D01*
X116618738Y-110435073D01*
X116571569Y-110366875D01*
X116526717Y-110303583D01*
X116488308Y-110251084D01*
X116460468Y-110215267D01*
X116447320Y-110202020D01*
X116439827Y-110210605D01*
X116418439Y-110244933D01*
X116386488Y-110300874D01*
X116346787Y-110373474D01*
X116302147Y-110457780D01*
X116267535Y-110523576D01*
X116226904Y-110599273D01*
X116193639Y-110659473D01*
X116170487Y-110699229D01*
X116160193Y-110713593D01*
X116159065Y-110713041D01*
X116145291Y-110694043D01*
X116121454Y-110653410D01*
X116091960Y-110598565D01*
X116032255Y-110483484D01*
X116019927Y-110643872D01*
X116016254Y-110687872D01*
X116005024Y-110780978D01*
X115988492Y-110857639D01*
X115963455Y-110930522D01*
X115926706Y-111012295D01*
X115885519Y-111097587D01*
X115671916Y-111097587D01*
X115732136Y-111009505D01*
X115780546Y-110927286D01*
X115815206Y-110852226D01*
X115839401Y-110777975D01*
X115856415Y-110698188D01*
X115865700Y-110611085D01*
X115862324Y-110483826D01*
X115840861Y-110337503D01*
X115800826Y-110167498D01*
X115764745Y-110033783D01*
X115715593Y-110089766D01*
X115704542Y-110102109D01*
X115635075Y-110173257D01*
X115545542Y-110257286D01*
X115441514Y-110349620D01*
X115328562Y-110445679D01*
X115212256Y-110540888D01*
X115098169Y-110630667D01*
X114991870Y-110710438D01*
X114898931Y-110775625D01*
X114824923Y-110821649D01*
X114793292Y-110838649D01*
X114621208Y-110914136D01*
X114418602Y-110978179D01*
X114186933Y-111030438D01*
X113927662Y-111070572D01*
X113642247Y-111098238D01*
X113486894Y-111109353D01*
X113486894Y-111199864D01*
X113479182Y-111273808D01*
X113448467Y-111352320D01*
X113397625Y-111408878D01*
X113330187Y-111439882D01*
X113249686Y-111441728D01*
X113212477Y-111438355D01*
X113179553Y-111448940D01*
X113146101Y-111482188D01*
X113123322Y-111506173D01*
X113085498Y-111527244D01*
X113031802Y-111532577D01*
X112992757Y-111530188D01*
X112949782Y-111514455D01*
X112907289Y-111477137D01*
X112897807Y-111466756D01*
X112857313Y-111415267D01*
X112826742Y-111366257D01*
X112822537Y-111358127D01*
X112802215Y-111324470D01*
X112788736Y-111310818D01*
X112777017Y-111316250D01*
X112744119Y-111337155D01*
X112699618Y-111368380D01*
X112674975Y-111385910D01*
X112584323Y-111442201D01*
X112486005Y-111488843D01*
X112366875Y-111532310D01*
X112328958Y-111546477D01*
X112251936Y-111580898D01*
X112166589Y-111624148D01*
X112085411Y-111670109D01*
X112033238Y-111700521D01*
X111892625Y-111771627D01*
X111756867Y-111825249D01*
X111629228Y-111861044D01*
X111512975Y-111878667D01*
X111411375Y-111877774D01*
X111327693Y-111858020D01*
X111265196Y-111819063D01*
X111227150Y-111760557D01*
X111213268Y-111728803D01*
X111192163Y-111712831D01*
X111154127Y-111714901D01*
X111132850Y-111716829D01*
X111059496Y-111704546D01*
X110991090Y-111668425D01*
X110940751Y-111614631D01*
X110937580Y-111609364D01*
X110911734Y-111552526D01*
X110910344Y-111500856D01*
X110932717Y-111439201D01*
X110942769Y-111416961D01*
X110949696Y-111387665D01*
X110940875Y-111359144D01*
X110914147Y-111317214D01*
X110894409Y-111285556D01*
X110877077Y-111237917D01*
X110877532Y-111199645D01*
X111029799Y-111199645D01*
X111035087Y-111227065D01*
X111050091Y-111236768D01*
X111085437Y-111242584D01*
X111124918Y-111237199D01*
X111190778Y-111220855D01*
X111273387Y-111195969D01*
X111365130Y-111164989D01*
X111458390Y-111130367D01*
X111545553Y-111094553D01*
X111681686Y-111035154D01*
X111720317Y-111083429D01*
X111725529Y-111090031D01*
X111749320Y-111122987D01*
X111759034Y-111141551D01*
X111758395Y-111142822D01*
X111737931Y-111156494D01*
X111692584Y-111180690D01*
X111627682Y-111212868D01*
X111548549Y-111250487D01*
X111460510Y-111291007D01*
X111368890Y-111331886D01*
X111279015Y-111370585D01*
X111243864Y-111386001D01*
X111163744Y-111426893D01*
X111105888Y-111465280D01*
X111072102Y-111498945D01*
X111064193Y-111525673D01*
X111083966Y-111543247D01*
X111133228Y-111549451D01*
X111149168Y-111548611D01*
X111217641Y-111535925D01*
X111307842Y-111509778D01*
X111413564Y-111472469D01*
X111528599Y-111426299D01*
X111646739Y-111373567D01*
X111761777Y-111316573D01*
X111799486Y-111297008D01*
X111844765Y-111275764D01*
X111875010Y-111267797D01*
X111899646Y-111271283D01*
X111928097Y-111284399D01*
X111933763Y-111287418D01*
X111967217Y-111309722D01*
X111980878Y-111327102D01*
X111973737Y-111337582D01*
X111942286Y-111363036D01*
X111891778Y-111397264D01*
X111828812Y-111436225D01*
X111759990Y-111475880D01*
X111691913Y-111512190D01*
X111631181Y-111541114D01*
X111549596Y-111576894D01*
X111477536Y-111609507D01*
X111428423Y-111633577D01*
X111397606Y-111651584D01*
X111380436Y-111666012D01*
X111372265Y-111679343D01*
X111370269Y-111695255D01*
X111385612Y-111721680D01*
X111418481Y-111733719D01*
X111486400Y-111735419D01*
X111574655Y-111719984D01*
X111678746Y-111688832D01*
X111794171Y-111643382D01*
X111916430Y-111585050D01*
X112041021Y-111515254D01*
X112066530Y-111500272D01*
X112148636Y-111456214D01*
X112231388Y-111416827D01*
X112300236Y-111389188D01*
X112361292Y-111366879D01*
X112438216Y-111335505D01*
X112501160Y-111306478D01*
X112524857Y-111293247D01*
X112584083Y-111253719D01*
X112649876Y-111203481D01*
X112715283Y-111148519D01*
X112773352Y-111094815D01*
X112817132Y-111048354D01*
X112839670Y-111015119D01*
X112845400Y-110983994D01*
X112847617Y-110928765D01*
X112845033Y-110864300D01*
X112830328Y-110771976D01*
X112797946Y-110673446D01*
X112752406Y-110587339D01*
X112697330Y-110519073D01*
X112636342Y-110474064D01*
X112573065Y-110457730D01*
X112542622Y-110453791D01*
X112485092Y-110437531D01*
X112424397Y-110412992D01*
X112364204Y-110389404D01*
X112237946Y-110363422D01*
X112086577Y-110358012D01*
X111908979Y-110373089D01*
X111808380Y-110382706D01*
X111633568Y-110378969D01*
X111460596Y-110347013D01*
X111437956Y-110344861D01*
X111400892Y-110354896D01*
X111387783Y-110365747D01*
X111385155Y-110384505D01*
X111401375Y-110418782D01*
X111417763Y-110441001D01*
X111472205Y-110484640D01*
X111549419Y-110524551D01*
X111641879Y-110557192D01*
X111742060Y-110579024D01*
X111787482Y-110586553D01*
X111846959Y-110601329D01*
X111890962Y-110622119D01*
X111931348Y-110653593D01*
X111946995Y-110666674D01*
X112008683Y-110707958D01*
X112072080Y-110739266D01*
X112099873Y-110750819D01*
X112136940Y-110770305D01*
X112151463Y-110784324D01*
X112143312Y-110794261D01*
X112110504Y-110799200D01*
X112060832Y-110795076D01*
X112003258Y-110782807D01*
X111946742Y-110763313D01*
X111863635Y-110727562D01*
X111755937Y-110803921D01*
X111686330Y-110850987D01*
X111586320Y-110909819D01*
X111474928Y-110964520D01*
X111341187Y-111020824D01*
X111265798Y-111051564D01*
X111164184Y-111097068D01*
X111092327Y-111136008D01*
X111048206Y-111169747D01*
X111029799Y-111199645D01*
X110877532Y-111199645D01*
X110877700Y-111185467D01*
X110878242Y-111181580D01*
X110893568Y-111127468D01*
X110924890Y-111078249D01*
X110975630Y-111031296D01*
X111049211Y-110983983D01*
X111149055Y-110933682D01*
X111278583Y-110877767D01*
X111348427Y-110848679D01*
X111430432Y-110813414D01*
X111500978Y-110781922D01*
X111549950Y-110758642D01*
X111630849Y-110717529D01*
X111540189Y-110690606D01*
X111447779Y-110654241D01*
X111359927Y-110598615D01*
X111292653Y-110531644D01*
X111249217Y-110457609D01*
X111232880Y-110380795D01*
X111246905Y-110305484D01*
X111275101Y-110256319D01*
X111320605Y-110218931D01*
X111384388Y-110200071D01*
X111470543Y-110198617D01*
X111583165Y-110213449D01*
X111616158Y-110219196D01*
X111678793Y-110228533D01*
X111732266Y-110232541D01*
X111787285Y-110231181D01*
X111854562Y-110224419D01*
X111944803Y-110212218D01*
X112076503Y-110197741D01*
X112198350Y-110195667D01*
X112303623Y-110208470D01*
X112399908Y-110236554D01*
X112400958Y-110236953D01*
X112427262Y-110244467D01*
X112434560Y-110233641D01*
X112428109Y-110197123D01*
X112423679Y-110170623D01*
X112418064Y-110110073D01*
X112416644Y-110067706D01*
X112562589Y-110067706D01*
X112571625Y-110130788D01*
X112595075Y-110219390D01*
X112595918Y-110222217D01*
X112615368Y-110282395D01*
X112632285Y-110317574D01*
X112651997Y-110335613D01*
X112679834Y-110344370D01*
X112703388Y-110352253D01*
X112758910Y-110388097D01*
X112816880Y-110443738D01*
X112869797Y-110511393D01*
X112910157Y-110583280D01*
X112917311Y-110599877D01*
X112963091Y-110740358D01*
X112981266Y-110875297D01*
X112977139Y-110928765D01*
X112971629Y-111000152D01*
X112933975Y-111110380D01*
X112899515Y-111177927D01*
X112947685Y-111273553D01*
X112972245Y-111318428D01*
X112998263Y-111357745D01*
X113016023Y-111375152D01*
X113023223Y-111375502D01*
X113046121Y-111358388D01*
X113064858Y-111322701D01*
X113072618Y-111279911D01*
X113075085Y-111255446D01*
X113094630Y-111226051D01*
X113132006Y-111224463D01*
X113185233Y-111251189D01*
X113203759Y-111262739D01*
X113249946Y-111284086D01*
X113284345Y-111290228D01*
X113293785Y-111287810D01*
X113320836Y-111261348D01*
X113332148Y-111212394D01*
X113327936Y-111147036D01*
X113308415Y-111071359D01*
X113273800Y-110991449D01*
X113235906Y-110919427D01*
X113280461Y-110872040D01*
X113296092Y-110854721D01*
X113348575Y-110783967D01*
X113383772Y-110715093D01*
X113396664Y-110657371D01*
X113389301Y-110622574D01*
X113353052Y-110570949D01*
X113290798Y-110523473D01*
X113207306Y-110484501D01*
X113120605Y-110453323D01*
X113134993Y-110374582D01*
X113140967Y-110335083D01*
X113297455Y-110335083D01*
X113298297Y-110358819D01*
X113316219Y-110372604D01*
X113342040Y-110380158D01*
X113387164Y-110406937D01*
X113437629Y-110445983D01*
X113483949Y-110489806D01*
X113516638Y-110530910D01*
X113536535Y-110576748D01*
X113547249Y-110657371D01*
X113547385Y-110658395D01*
X113536577Y-110744367D01*
X113506034Y-110823173D01*
X113457679Y-110883322D01*
X113442540Y-110898515D01*
X113430845Y-110920562D01*
X113445768Y-110926499D01*
X113487694Y-110930516D01*
X113549387Y-110932330D01*
X113623594Y-110931873D01*
X113703063Y-110929077D01*
X113780543Y-110923872D01*
X113826931Y-110919249D01*
X113959401Y-110901513D01*
X114105165Y-110876850D01*
X114250517Y-110847705D01*
X114381750Y-110816526D01*
X114411618Y-110808475D01*
X114523599Y-110773758D01*
X114630364Y-110732180D01*
X114735400Y-110681414D01*
X114842196Y-110619131D01*
X114954236Y-110543003D01*
X115075010Y-110450703D01*
X115208004Y-110339901D01*
X115356704Y-110208269D01*
X115524599Y-110053480D01*
X115733397Y-109858135D01*
X115686654Y-109796852D01*
X115674944Y-109780842D01*
X115652869Y-109740549D01*
X115642497Y-109694548D01*
X115639911Y-109628746D01*
X115640039Y-109621686D01*
X115764813Y-109621686D01*
X115765022Y-109674295D01*
X115790188Y-109719916D01*
X115797181Y-109726247D01*
X115822428Y-109737634D01*
X115833677Y-109727845D01*
X115821745Y-109702073D01*
X115813042Y-109683932D01*
X115820272Y-109653162D01*
X115848019Y-109630279D01*
X115888214Y-109624678D01*
X115904143Y-109628264D01*
X115927015Y-109647417D01*
X115938434Y-109690267D01*
X115946963Y-109749971D01*
X115976815Y-109707794D01*
X115996949Y-109669616D01*
X116006667Y-109628657D01*
X115992678Y-109580471D01*
X115954577Y-109536583D01*
X115902453Y-109510634D01*
X115866968Y-109509462D01*
X115820481Y-109530516D01*
X115784864Y-109570842D01*
X115764813Y-109621686D01*
X115640039Y-109621686D01*
X115640764Y-109581667D01*
X115646821Y-109535957D01*
X115662239Y-109502402D01*
X115691086Y-109468230D01*
X115699918Y-109459406D01*
X115749212Y-109419410D01*
X115797702Y-109391218D01*
X115806408Y-109387514D01*
X115832966Y-109373264D01*
X115846891Y-109353739D01*
X115852259Y-109319326D01*
X115853145Y-109260412D01*
X115853415Y-109245183D01*
X115858000Y-109177376D01*
X115867258Y-109091408D01*
X115879887Y-108995968D01*
X115894585Y-108899746D01*
X115910051Y-108811429D01*
X115924985Y-108739707D01*
X115938084Y-108693268D01*
X115945875Y-108672085D01*
X115953741Y-108639770D01*
X115946957Y-108618923D01*
X115920667Y-108606219D01*
X115870018Y-108598334D01*
X115790155Y-108591941D01*
X115624818Y-108580319D01*
X115534583Y-108642466D01*
X115513935Y-108657294D01*
X115422482Y-108734623D01*
X115322498Y-108835398D01*
X115219339Y-108953928D01*
X115118362Y-109084526D01*
X115103886Y-109104383D01*
X114961965Y-109295990D01*
X114835835Y-109460118D01*
X114724029Y-109598471D01*
X114625078Y-109712750D01*
X114537512Y-109804659D01*
X114459863Y-109875901D01*
X114390662Y-109928179D01*
X114387853Y-109929966D01*
X114345408Y-109951092D01*
X114275494Y-109980076D01*
X114182834Y-110015285D01*
X114072154Y-110055086D01*
X113948177Y-110097846D01*
X113815627Y-110141933D01*
X113679230Y-110185713D01*
X113543708Y-110227553D01*
X113413786Y-110265822D01*
X113382555Y-110275144D01*
X113333127Y-110293717D01*
X113307108Y-110312298D01*
X113297455Y-110335083D01*
X113140967Y-110335083D01*
X113141329Y-110332687D01*
X113147544Y-110244065D01*
X113145225Y-110159220D01*
X113134899Y-110088030D01*
X113117095Y-110040366D01*
X113114949Y-110037165D01*
X113077721Y-110002361D01*
X113033612Y-109998314D01*
X112980881Y-110025406D01*
X112917792Y-110084017D01*
X112837668Y-110170716D01*
X112783331Y-110103101D01*
X112782329Y-110101857D01*
X112726501Y-110043239D01*
X112671620Y-110003994D01*
X112623451Y-109987275D01*
X112587761Y-109996233D01*
X112587062Y-109996820D01*
X112567792Y-110024823D01*
X112562589Y-110067706D01*
X112416644Y-110067706D01*
X112415868Y-110044541D01*
X112416335Y-110011546D01*
X112421913Y-109963727D01*
X112437729Y-109929165D01*
X112468636Y-109894015D01*
X112488005Y-109876549D01*
X112560855Y-109837709D01*
X112641295Y-109831258D01*
X112725378Y-109857754D01*
X112741937Y-109866631D01*
X112786923Y-109894965D01*
X112815589Y-109919167D01*
X112815725Y-109919331D01*
X112833226Y-109934189D01*
X112853532Y-109929844D01*
X112887476Y-109904011D01*
X112956863Y-109859545D01*
X113038189Y-109838487D01*
X113116837Y-109848151D01*
X113188345Y-109886975D01*
X113248255Y-109953396D01*
X113292107Y-110045850D01*
X113319965Y-110130996D01*
X113797601Y-109976731D01*
X113829676Y-109966362D01*
X113963497Y-109922762D01*
X114069716Y-109887296D01*
X114152449Y-109858324D01*
X114215809Y-109834205D01*
X114263911Y-109813302D01*
X114300870Y-109793973D01*
X114330799Y-109774579D01*
X114357814Y-109753481D01*
X114406671Y-109709098D01*
X114487398Y-109625607D01*
X114580928Y-109519492D01*
X114684187Y-109394397D01*
X114794101Y-109253966D01*
X114907596Y-109101841D01*
X114954151Y-109039072D01*
X115027503Y-108943710D01*
X115100534Y-108852391D01*
X115166831Y-108773085D01*
X115219978Y-108713761D01*
X115345915Y-108581469D01*
X115211449Y-108582087D01*
X115076983Y-108582705D01*
X115042866Y-108653698D01*
X115024921Y-108687129D01*
X114974144Y-108747724D01*
X114907202Y-108783443D01*
X114817071Y-108798800D01*
X114759409Y-108800044D01*
X114707971Y-108791761D01*
X114663160Y-108770208D01*
X114621994Y-108738367D01*
X114569537Y-108668984D01*
X114541948Y-108588386D01*
X114539612Y-108520585D01*
X114675165Y-108520585D01*
X114680718Y-108581590D01*
X114710227Y-108632644D01*
X114717765Y-108639850D01*
X114751923Y-108663548D01*
X114773250Y-108665903D01*
X114775697Y-108649261D01*
X114753218Y-108615967D01*
X114743101Y-108603706D01*
X114737321Y-108581236D01*
X114754185Y-108550655D01*
X114776037Y-108528008D01*
X114815181Y-108514598D01*
X114850765Y-108526191D01*
X114873442Y-108558400D01*
X114873862Y-108606835D01*
X114870895Y-108635714D01*
X114879886Y-108649703D01*
X114886588Y-108648449D01*
X114909102Y-108625371D01*
X114925588Y-108580666D01*
X114931986Y-108524124D01*
X114930188Y-108504135D01*
X114905972Y-108449206D01*
X114860806Y-108409260D01*
X114804048Y-108393826D01*
X114803883Y-108393827D01*
X114763857Y-108404262D01*
X114721057Y-108429181D01*
X114692870Y-108462711D01*
X114675165Y-108520585D01*
X114539612Y-108520585D01*
X114539030Y-108503689D01*
X114560585Y-108422009D01*
X114606416Y-108350463D01*
X114676325Y-108296166D01*
X114750239Y-108266112D01*
X114827022Y-108260163D01*
X114908573Y-108282756D01*
X114942092Y-108295505D01*
X114969328Y-108297599D01*
X114997856Y-108283999D01*
X115040228Y-108251746D01*
X115083245Y-108219566D01*
X115159153Y-108168737D01*
X115245037Y-108116305D01*
X115334513Y-108065705D01*
X115421194Y-108020370D01*
X115498697Y-107983736D01*
X115560637Y-107959237D01*
X115600627Y-107950307D01*
X115619801Y-107949205D01*
X115634422Y-107942047D01*
X115623301Y-107931017D01*
X115591195Y-107919394D01*
X115542859Y-107910458D01*
X115485450Y-107899291D01*
X115410962Y-107875005D01*
X115341104Y-107843285D01*
X115285524Y-107808636D01*
X115253869Y-107775560D01*
X115249129Y-107763595D01*
X115242214Y-107711705D01*
X115245154Y-107640597D01*
X115255531Y-107541310D01*
X115191164Y-107508472D01*
X115098786Y-107446555D01*
X115008196Y-107352012D01*
X114933962Y-107235841D01*
X114890645Y-107128578D01*
X115051395Y-107128578D01*
X115056511Y-107142269D01*
X115076259Y-107177971D01*
X115105772Y-107224805D01*
X115135047Y-107263313D01*
X115204983Y-107330578D01*
X115284363Y-107383530D01*
X115361680Y-107413677D01*
X115412408Y-107424819D01*
X115400496Y-107567820D01*
X115388584Y-107710821D01*
X115437114Y-107729271D01*
X115451661Y-107733705D01*
X115506295Y-107742116D01*
X115566751Y-107743417D01*
X115605083Y-107742891D01*
X115651143Y-107751623D01*
X115686743Y-107775643D01*
X115702696Y-107788652D01*
X115751214Y-107819706D01*
X115807123Y-107848222D01*
X115820907Y-107854221D01*
X115870021Y-107871715D01*
X115908489Y-107874471D01*
X115951907Y-107864213D01*
X115957505Y-107862392D01*
X116011258Y-107841392D01*
X116055058Y-107819105D01*
X116083282Y-107803443D01*
X116097967Y-107799683D01*
X116099614Y-107801947D01*
X116117363Y-107823734D01*
X116150095Y-107862909D01*
X116192425Y-107913012D01*
X116283835Y-108020714D01*
X116180013Y-108008968D01*
X116159340Y-108007122D01*
X116048943Y-108008862D01*
X115919742Y-108025880D01*
X115780195Y-108056094D01*
X115638757Y-108097418D01*
X115503885Y-108147772D01*
X115384035Y-108205070D01*
X115341065Y-108229834D01*
X115279502Y-108267903D01*
X115214630Y-108310100D01*
X115152915Y-108352015D01*
X115100827Y-108389236D01*
X115064831Y-108417353D01*
X115051395Y-108431954D01*
X115054001Y-108433757D01*
X115081843Y-108436924D01*
X115135334Y-108438063D01*
X115208448Y-108437121D01*
X115295157Y-108434047D01*
X115316076Y-108433197D01*
X115416416Y-108431301D01*
X115526968Y-108432119D01*
X115642192Y-108435307D01*
X115756547Y-108440523D01*
X115864491Y-108447426D01*
X115960483Y-108455674D01*
X116038982Y-108464923D01*
X116094446Y-108474832D01*
X116121335Y-108485060D01*
X116129018Y-108498618D01*
X116129902Y-108524124D01*
X116130020Y-108527513D01*
X116121300Y-108576060D01*
X116104904Y-108639770D01*
X116102130Y-108650548D01*
X116085349Y-108717576D01*
X116062316Y-108823931D01*
X116038654Y-108946204D01*
X116016181Y-109074419D01*
X115996718Y-109198598D01*
X115982084Y-109308766D01*
X115981216Y-109316415D01*
X115977951Y-109367102D01*
X115983662Y-109394372D01*
X115999972Y-109407146D01*
X116020263Y-109409480D01*
X116055740Y-109396391D01*
X116074647Y-109381302D01*
X116122028Y-109342467D01*
X116186736Y-109288760D01*
X116263520Y-109224592D01*
X116347130Y-109154377D01*
X116432315Y-109082529D01*
X116513823Y-109013460D01*
X116586403Y-108951585D01*
X116644805Y-108901315D01*
X116703914Y-108851822D01*
X116759432Y-108808877D01*
X116801962Y-108779804D01*
X116825348Y-108769112D01*
X116832766Y-108773693D01*
X116857658Y-108803915D01*
X116896022Y-108860104D01*
X116946248Y-108939574D01*
X117006725Y-109039641D01*
X117075844Y-109157621D01*
X117151995Y-109290827D01*
X117233566Y-109436575D01*
X117318948Y-109592181D01*
X117333711Y-109618542D01*
X117367258Y-109672736D01*
X117395167Y-109710320D01*
X117412544Y-109724384D01*
X117430320Y-109708648D01*
X117451383Y-109664056D01*
X117474384Y-109595656D01*
X117498155Y-109508496D01*
X117521529Y-109407624D01*
X117543334Y-109298090D01*
X117562404Y-109184940D01*
X117577568Y-109073224D01*
X117587659Y-108967990D01*
X117590627Y-108930708D01*
X117598882Y-108863392D01*
X117609544Y-108823822D01*
X117623617Y-108807506D01*
X117623859Y-108807418D01*
X117651045Y-108810551D01*
X117697444Y-108827511D01*
X117753155Y-108854692D01*
X117771014Y-108864703D01*
X117828234Y-108898318D01*
X117904203Y-108944217D01*
X117992072Y-108998138D01*
X118084997Y-109055819D01*
X118176131Y-109112997D01*
X118258628Y-109165411D01*
X118325641Y-109208800D01*
X118370324Y-109238900D01*
X118374582Y-109241838D01*
X118405679Y-109254689D01*
X118434149Y-109242439D01*
X118434864Y-109241903D01*
X118446713Y-109229664D01*
X118450800Y-109211786D01*
X118446140Y-109181666D01*
X118431747Y-109132705D01*
X118406634Y-109058299D01*
X118362549Y-108942343D01*
X118263443Y-108742526D01*
X118136523Y-108552647D01*
X118096650Y-108498095D01*
X118072859Y-108459131D01*
X118066150Y-108434908D01*
X118073816Y-108419690D01*
X118077579Y-108416590D01*
X118089624Y-108409374D01*
X118109555Y-108400960D01*
X118140961Y-108390293D01*
X118187434Y-108376316D01*
X118252563Y-108357974D01*
X118339938Y-108334211D01*
X118453151Y-108303971D01*
X118595792Y-108266198D01*
X118605644Y-108263588D01*
X118684341Y-108242201D01*
X118685471Y-108241878D01*
X118940717Y-108241878D01*
X118940781Y-108243822D01*
X118953792Y-108279645D01*
X118982588Y-108317839D01*
X118988336Y-108323466D01*
X119026406Y-108353642D01*
X119050681Y-108361183D01*
X119056794Y-108346640D01*
X119040376Y-108310562D01*
X119029698Y-108281718D01*
X119037411Y-108239821D01*
X119070587Y-108211611D01*
X119102907Y-108209098D01*
X119140045Y-108231259D01*
X119163753Y-108276032D01*
X119174334Y-108317063D01*
X119195850Y-108272086D01*
X119200886Y-108259414D01*
X119202982Y-108203012D01*
X119176900Y-108148733D01*
X119126436Y-108105678D01*
X119090235Y-108093160D01*
X119035906Y-108098933D01*
X118987950Y-108129257D01*
X118953757Y-108178712D01*
X118948946Y-108202017D01*
X118940717Y-108241878D01*
X118685471Y-108241878D01*
X118749693Y-108223524D01*
X118795136Y-108209486D01*
X118814102Y-108202017D01*
X118814090Y-108200011D01*
X118794970Y-108187983D01*
X118751852Y-108169299D01*
X118691347Y-108146381D01*
X118620064Y-108121654D01*
X118544616Y-108097540D01*
X118471610Y-108076463D01*
X118424784Y-108066684D01*
X118339568Y-108055267D01*
X118234499Y-108046139D01*
X118117648Y-108040129D01*
X118075476Y-108038539D01*
X117992761Y-108034633D01*
X117926320Y-108030417D01*
X117882098Y-108026302D01*
X117866036Y-108022701D01*
X117866438Y-108021237D01*
X117877555Y-107998149D01*
X117901624Y-107952370D01*
X117935565Y-107889676D01*
X117976300Y-107815846D01*
X118019041Y-107737497D01*
X118092982Y-107590999D01*
X118149041Y-107461161D01*
X118189867Y-107341518D01*
X118218109Y-107225603D01*
X118245212Y-107087662D01*
X118317425Y-107057795D01*
X118331359Y-107051523D01*
X118389985Y-107016866D01*
X118438080Y-106977364D01*
X118486523Y-106926801D01*
X118441761Y-106879891D01*
X118420821Y-106854154D01*
X118385178Y-106799484D01*
X118352989Y-106739159D01*
X118308980Y-106645337D01*
X118355810Y-106611221D01*
X118402133Y-106573842D01*
X118493814Y-106471032D01*
X118558684Y-106351745D01*
X118593284Y-106221654D01*
X118604214Y-106141905D01*
X118542725Y-106167597D01*
X118477300Y-106185489D01*
X118397724Y-106192349D01*
X118321083Y-106186955D01*
X118261797Y-106169224D01*
X118242601Y-106158266D01*
X118176760Y-106102578D01*
X118120067Y-106021554D01*
X118069290Y-105910856D01*
X118061621Y-105891184D01*
X117986818Y-105723946D01*
X117905228Y-105586601D01*
X117813902Y-105475496D01*
X117709891Y-105386977D01*
X117590247Y-105317391D01*
X117558915Y-105302941D01*
X117456583Y-105264111D01*
X117351193Y-105238834D01*
X117232687Y-105225170D01*
X117091009Y-105221183D01*
X117067535Y-105221396D01*
X116852491Y-105239421D01*
X116637005Y-105284724D01*
X116427282Y-105354872D01*
X116229528Y-105447433D01*
X116049949Y-105559975D01*
X115894749Y-105690065D01*
X115864481Y-105720164D01*
X115790778Y-105800048D01*
X115734502Y-105875258D01*
X115687911Y-105957085D01*
X115643262Y-106056822D01*
X115624796Y-106103486D01*
X115600284Y-106175681D01*
X115581876Y-106248934D01*
X115567989Y-106331511D01*
X115557044Y-106431676D01*
X115547459Y-106557692D01*
X115544753Y-106595965D01*
X115534111Y-106705836D01*
X115519603Y-106791222D01*
X115499181Y-106859539D01*
X115470801Y-106918202D01*
X115432414Y-106974630D01*
X115388439Y-107018733D01*
X115310446Y-107067789D01*
X115220909Y-107101592D01*
X115132423Y-107114278D01*
X115105626Y-107115132D01*
X115066698Y-107120305D01*
X115051395Y-107128578D01*
X114890645Y-107128578D01*
X114880786Y-107104166D01*
X114875861Y-107086577D01*
X114868732Y-107036004D01*
X114878877Y-106998649D01*
X114881521Y-106993953D01*
X114895912Y-106977697D01*
X114920070Y-106968684D01*
X114962095Y-106965122D01*
X115030085Y-106965221D01*
X115037520Y-106965307D01*
X115107957Y-106963242D01*
X115169493Y-106956839D01*
X115209544Y-106947350D01*
X115256813Y-106927373D01*
X115194736Y-106804104D01*
X115137940Y-106706026D01*
X115032803Y-106575319D01*
X114908249Y-106470279D01*
X114767090Y-106393119D01*
X114612141Y-106346048D01*
X114519958Y-106335239D01*
X114387033Y-106345593D01*
X114263508Y-106385875D01*
X114152148Y-106453772D01*
X114055718Y-106546970D01*
X113976985Y-106663158D01*
X113918715Y-106800022D01*
X113883673Y-106955248D01*
X113871814Y-107041474D01*
X113946926Y-107085493D01*
X113972655Y-107101868D01*
X114052445Y-107176522D01*
X114104266Y-107270296D01*
X114127046Y-107381427D01*
X114128249Y-107410573D01*
X114128690Y-107421268D01*
X114120477Y-107515571D01*
X114090694Y-107595818D01*
X114035734Y-107673549D01*
X114020467Y-107690403D01*
X113937526Y-107754215D01*
X113838915Y-107788412D01*
X113722969Y-107793633D01*
X113693159Y-107790499D01*
X113589918Y-107760677D01*
X113504677Y-107702061D01*
X113436052Y-107613785D01*
X113419381Y-107583770D01*
X113399790Y-107535683D01*
X113390530Y-107482616D01*
X113388291Y-107412967D01*
X113533511Y-107412967D01*
X113534179Y-107430814D01*
X113554447Y-107509577D01*
X113598652Y-107575344D01*
X113660959Y-107618694D01*
X113701248Y-107633360D01*
X113750218Y-107643069D01*
X113778977Y-107637339D01*
X113782368Y-107616273D01*
X113777320Y-107602208D01*
X113772013Y-107582156D01*
X113769524Y-107579039D01*
X113747393Y-107575022D01*
X113735740Y-107572033D01*
X113706162Y-107548272D01*
X113680571Y-107511957D01*
X113669663Y-107476629D01*
X113681894Y-107447801D01*
X113711886Y-107412500D01*
X113747822Y-107382801D01*
X113777877Y-107370321D01*
X113790859Y-107371552D01*
X113834898Y-107394689D01*
X113867510Y-107440008D01*
X113881149Y-107498168D01*
X113881775Y-107510087D01*
X113889250Y-107550467D01*
X113901841Y-107569951D01*
X113909649Y-107570640D01*
X113934487Y-107553585D01*
X113957999Y-107515075D01*
X113975523Y-107464331D01*
X113982401Y-107410573D01*
X113982035Y-107397421D01*
X113962911Y-107318248D01*
X113919471Y-107254264D01*
X113858290Y-107209038D01*
X113785943Y-107186135D01*
X113709006Y-107189124D01*
X113634052Y-107221571D01*
X113583491Y-107264458D01*
X113545481Y-107329464D01*
X113533511Y-107412967D01*
X113388291Y-107412967D01*
X113388199Y-107410094D01*
X113389791Y-107342608D01*
X113397035Y-107295221D01*
X113413571Y-107255448D01*
X113443042Y-107210005D01*
X113497885Y-107132199D01*
X113439584Y-106954222D01*
X113419959Y-106891529D01*
X113362630Y-106651312D01*
X113337317Y-106422394D01*
X113338262Y-106391842D01*
X113491088Y-106391842D01*
X113509762Y-106598848D01*
X113559070Y-106815261D01*
X113580385Y-106887447D01*
X113604426Y-106962381D01*
X113623907Y-107011559D01*
X113640993Y-107039254D01*
X113657848Y-107049735D01*
X113676636Y-107047274D01*
X113692481Y-107035703D01*
X113708264Y-107006646D01*
X113723884Y-106955138D01*
X113741493Y-106875473D01*
X113783218Y-106720686D01*
X113853062Y-106562939D01*
X113945214Y-106429571D01*
X114058895Y-106321675D01*
X114193329Y-106240344D01*
X114254066Y-106214036D01*
X114313748Y-106195489D01*
X114379241Y-106184937D01*
X114464680Y-106179197D01*
X114507873Y-106178102D01*
X114663790Y-106189978D01*
X114807553Y-106229019D01*
X114945227Y-106297365D01*
X115082872Y-106397152D01*
X115114793Y-106426327D01*
X115168032Y-106483212D01*
X115222964Y-106549542D01*
X115274555Y-106618475D01*
X115317774Y-106683171D01*
X115347589Y-106736789D01*
X115358966Y-106772486D01*
X115359077Y-106775775D01*
X115363930Y-106786120D01*
X115378421Y-106766243D01*
X115380626Y-106761069D01*
X115388592Y-106723988D01*
X115396721Y-106662182D01*
X115404172Y-106582880D01*
X115410106Y-106493309D01*
X115417422Y-106376701D01*
X115427615Y-106273417D01*
X115441912Y-106187475D01*
X115462207Y-106110100D01*
X115490398Y-106032514D01*
X115528381Y-105945942D01*
X115584429Y-105840104D01*
X115700022Y-105678671D01*
X115844184Y-105531476D01*
X116014759Y-105400094D01*
X116209592Y-105286099D01*
X116426530Y-105191065D01*
X116663417Y-105116568D01*
X116675242Y-105113541D01*
X116743321Y-105097988D01*
X116808799Y-105087378D01*
X116880848Y-105080831D01*
X116968641Y-105077465D01*
X117081348Y-105076398D01*
X117186949Y-105077411D01*
X117303650Y-105083337D01*
X117401617Y-105096046D01*
X117489499Y-105117235D01*
X117575947Y-105148603D01*
X117669609Y-105191845D01*
X117746987Y-105238824D01*
X117836305Y-105309144D01*
X117922355Y-105391080D01*
X117995973Y-105475844D01*
X118047992Y-105554648D01*
X118096013Y-105646366D01*
X118125234Y-105480573D01*
X118152433Y-105362818D01*
X118208584Y-105207785D01*
X118283324Y-105065940D01*
X118373324Y-104942413D01*
X118475257Y-104842333D01*
X118585792Y-104770829D01*
X118608906Y-104759968D01*
X118750873Y-104712188D01*
X118890867Y-104698363D01*
X119030090Y-104718496D01*
X119169741Y-104772591D01*
X119202587Y-104791452D01*
X119282603Y-104851404D01*
X119363232Y-104927639D01*
X119434532Y-105010218D01*
X119486558Y-105089206D01*
X119508171Y-105126408D01*
X119537613Y-105159884D01*
X119567585Y-105169783D01*
X119580716Y-105169096D01*
X119597316Y-105160415D01*
X119604465Y-105134835D01*
X119605996Y-105083772D01*
X119598226Y-104979394D01*
X119575506Y-104853737D01*
X119540451Y-104721657D01*
X119495683Y-104594783D01*
X119432341Y-104459135D01*
X119323477Y-104287465D01*
X119193650Y-104139359D01*
X119045375Y-104016491D01*
X118881167Y-103920534D01*
X118703539Y-103853163D01*
X118515007Y-103816052D01*
X118318084Y-103810873D01*
X118282307Y-103813336D01*
X118193007Y-103822538D01*
X118109183Y-103834871D01*
X118045150Y-103848367D01*
X118031127Y-103852293D01*
X117875714Y-103909192D01*
X117716564Y-103989319D01*
X117563139Y-104086725D01*
X117424903Y-104195464D01*
X117311317Y-104309590D01*
X117228700Y-104406294D01*
X117250324Y-104502310D01*
X117260186Y-104548386D01*
X117275293Y-104633925D01*
X117282625Y-104700975D01*
X117281771Y-104744728D01*
X117272323Y-104760381D01*
X117264854Y-104758750D01*
X117244731Y-104742646D01*
X117218059Y-104706955D01*
X117183025Y-104648775D01*
X117137818Y-104565201D01*
X117080623Y-104453329D01*
X117007328Y-104310914D01*
X116899066Y-104115291D01*
X116792667Y-103942759D01*
X116684095Y-103787292D01*
X116569314Y-103642863D01*
X116444286Y-103503448D01*
X116353052Y-103412627D01*
X116164033Y-103253480D01*
X115960808Y-103116433D01*
X115749518Y-103005405D01*
X115536308Y-102924313D01*
X115489209Y-102910405D01*
X115431449Y-102895904D01*
X115375424Y-102886353D01*
X115312175Y-102880712D01*
X115232740Y-102877944D01*
X115128158Y-102877010D01*
X115104633Y-102876950D01*
X115009925Y-102877272D01*
X114939720Y-102879336D01*
X114886067Y-102884136D01*
X114841012Y-102892664D01*
X114796602Y-102905914D01*
X114744883Y-102924879D01*
X114675402Y-102953751D01*
X114503814Y-103048829D01*
X114355483Y-103168677D01*
X114230776Y-103312820D01*
X114130060Y-103480784D01*
X114053700Y-103672095D01*
X114002064Y-103886277D01*
X113999253Y-103902618D01*
X113989576Y-103961733D01*
X113983492Y-104003700D01*
X113982219Y-104020303D01*
X113990561Y-104023681D01*
X114019396Y-104033086D01*
X114044080Y-104033201D01*
X114069283Y-104013242D01*
X114101569Y-103967635D01*
X114106587Y-103959901D01*
X114168413Y-103882023D01*
X114248087Y-103803064D01*
X114334202Y-103733363D01*
X114415352Y-103683256D01*
X114449112Y-103668083D01*
X114499872Y-103652730D01*
X114560083Y-103645111D01*
X114641993Y-103643054D01*
X114645237Y-103643056D01*
X114722861Y-103644877D01*
X114780423Y-103651980D01*
X114831418Y-103667084D01*
X114889340Y-103692909D01*
X115007126Y-103766643D01*
X115120067Y-103873634D01*
X115219026Y-104007316D01*
X115302766Y-104164908D01*
X115370050Y-104343627D01*
X115419641Y-104540689D01*
X115450302Y-104753312D01*
X115460798Y-104978713D01*
X115460755Y-104993873D01*
X115458287Y-105097520D01*
X115452489Y-105194741D01*
X115444027Y-105279997D01*
X115433563Y-105347752D01*
X115421761Y-105392466D01*
X115409285Y-105408601D01*
X115404335Y-105405643D01*
X115392774Y-105380623D01*
X115378740Y-105328304D01*
X115361692Y-105246495D01*
X115341086Y-105133007D01*
X115334466Y-105097408D01*
X115321531Y-105047952D01*
X115306041Y-105020882D01*
X115284477Y-105008452D01*
X115268583Y-105004664D01*
X115208865Y-104996673D01*
X115127026Y-104990796D01*
X115031579Y-104987180D01*
X114931035Y-104985968D01*
X114833906Y-104987306D01*
X114748703Y-104991338D01*
X114683938Y-104998212D01*
X114613876Y-105011093D01*
X114402019Y-105070658D01*
X114206908Y-105157354D01*
X114030775Y-105269322D01*
X113875853Y-105404707D01*
X113744373Y-105561651D01*
X113638567Y-105738296D01*
X113560669Y-105932785D01*
X113545681Y-105983535D01*
X113503057Y-106188615D01*
X113491088Y-106391842D01*
X113338262Y-106391842D01*
X113344043Y-106204955D01*
X113364578Y-106062271D01*
X113418157Y-105849854D01*
X113498434Y-105655787D01*
X113607012Y-105476493D01*
X113745491Y-105308399D01*
X113854227Y-105204340D01*
X114031593Y-105073168D01*
X114227938Y-104968043D01*
X114439965Y-104890356D01*
X114664375Y-104841495D01*
X114897870Y-104822851D01*
X114981441Y-104822786D01*
X115071536Y-104824787D01*
X115149037Y-104828588D01*
X115203189Y-104833803D01*
X115295277Y-104847520D01*
X115285194Y-104722923D01*
X115270728Y-104609652D01*
X115236574Y-104457854D01*
X115187982Y-104309778D01*
X115127942Y-104173001D01*
X115059445Y-104055099D01*
X114985480Y-103963647D01*
X114965810Y-103944713D01*
X114858259Y-103864716D01*
X114745877Y-103817787D01*
X114631269Y-103803938D01*
X114517037Y-103823178D01*
X114405786Y-103875517D01*
X114300119Y-103960965D01*
X114263877Y-103998529D01*
X114222714Y-104049761D01*
X114205986Y-104089926D01*
X114211874Y-104124929D01*
X114238557Y-104160672D01*
X114251406Y-104174998D01*
X114303525Y-104261336D01*
X114330525Y-104361292D01*
X114330644Y-104395007D01*
X114330893Y-104465404D01*
G37*
%TD*%
M02*
