%TF.GenerationSoftware,KiCad,Pcbnew,10.0.1*%
%TF.CreationDate,2026-04-25T16:00:21-06:00*%
%TF.ProjectId,STM32Demo,53544d33-3244-4656-9d6f-2e6b69636164,rev?*%
%TF.SameCoordinates,Original*%
%TF.FileFunction,Legend,Bot*%
%TF.FilePolarity,Positive*%
%FSLAX46Y46*%
G04 Gerber Fmt 4.6, Leading zero omitted, Abs format (unit mm)*
G04 Created by KiCad (PCBNEW 10.0.1) date 2026-04-25 16:00:21*
%MOMM*%
%LPD*%
G01*
G04 APERTURE LIST*
%ADD10C,0.100000*%
G04 APERTURE END LIST*
D10*
X149600877Y-115175606D02*
X149600877Y-115708940D01*
X149791353Y-114870845D02*
X149981830Y-115442273D01*
X149981830Y-115442273D02*
X149486591Y-115442273D01*
X148610401Y-114870845D02*
X149296115Y-115899416D01*
X148381830Y-114985130D02*
X148343734Y-114947035D01*
X148343734Y-114947035D02*
X148267544Y-114908940D01*
X148267544Y-114908940D02*
X148077068Y-114908940D01*
X148077068Y-114908940D02*
X148000877Y-114947035D01*
X148000877Y-114947035D02*
X147962782Y-114985130D01*
X147962782Y-114985130D02*
X147924687Y-115061321D01*
X147924687Y-115061321D02*
X147924687Y-115137511D01*
X147924687Y-115137511D02*
X147962782Y-115251797D01*
X147962782Y-115251797D02*
X148419925Y-115708940D01*
X148419925Y-115708940D02*
X147924687Y-115708940D01*
X147238972Y-114908940D02*
X147391353Y-114908940D01*
X147391353Y-114908940D02*
X147467544Y-114947035D01*
X147467544Y-114947035D02*
X147505639Y-114985130D01*
X147505639Y-114985130D02*
X147581829Y-115099416D01*
X147581829Y-115099416D02*
X147619925Y-115251797D01*
X147619925Y-115251797D02*
X147619925Y-115556559D01*
X147619925Y-115556559D02*
X147581829Y-115632749D01*
X147581829Y-115632749D02*
X147543734Y-115670845D01*
X147543734Y-115670845D02*
X147467544Y-115708940D01*
X147467544Y-115708940D02*
X147315163Y-115708940D01*
X147315163Y-115708940D02*
X147238972Y-115670845D01*
X147238972Y-115670845D02*
X147200877Y-115632749D01*
X147200877Y-115632749D02*
X147162782Y-115556559D01*
X147162782Y-115556559D02*
X147162782Y-115366083D01*
X147162782Y-115366083D02*
X147200877Y-115289892D01*
X147200877Y-115289892D02*
X147238972Y-115251797D01*
X147238972Y-115251797D02*
X147315163Y-115213702D01*
X147315163Y-115213702D02*
X147467544Y-115213702D01*
X147467544Y-115213702D02*
X147543734Y-115251797D01*
X147543734Y-115251797D02*
X147581829Y-115289892D01*
X147581829Y-115289892D02*
X147619925Y-115366083D01*
X150058020Y-116196895D02*
X149791353Y-116996895D01*
X149791353Y-116996895D02*
X149524687Y-116196895D01*
X149105639Y-116196895D02*
X149029449Y-116196895D01*
X149029449Y-116196895D02*
X148953258Y-116234990D01*
X148953258Y-116234990D02*
X148915163Y-116273085D01*
X148915163Y-116273085D02*
X148877068Y-116349276D01*
X148877068Y-116349276D02*
X148838973Y-116501657D01*
X148838973Y-116501657D02*
X148838973Y-116692133D01*
X148838973Y-116692133D02*
X148877068Y-116844514D01*
X148877068Y-116844514D02*
X148915163Y-116920704D01*
X148915163Y-116920704D02*
X148953258Y-116958800D01*
X148953258Y-116958800D02*
X149029449Y-116996895D01*
X149029449Y-116996895D02*
X149105639Y-116996895D01*
X149105639Y-116996895D02*
X149181830Y-116958800D01*
X149181830Y-116958800D02*
X149219925Y-116920704D01*
X149219925Y-116920704D02*
X149258020Y-116844514D01*
X149258020Y-116844514D02*
X149296116Y-116692133D01*
X149296116Y-116692133D02*
X149296116Y-116501657D01*
X149296116Y-116501657D02*
X149258020Y-116349276D01*
X149258020Y-116349276D02*
X149219925Y-116273085D01*
X149219925Y-116273085D02*
X149181830Y-116234990D01*
X149181830Y-116234990D02*
X149105639Y-116196895D01*
X148496115Y-116920704D02*
X148458020Y-116958800D01*
X148458020Y-116958800D02*
X148496115Y-116996895D01*
X148496115Y-116996895D02*
X148534211Y-116958800D01*
X148534211Y-116958800D02*
X148496115Y-116920704D01*
X148496115Y-116920704D02*
X148496115Y-116996895D01*
X147696116Y-116996895D02*
X148153259Y-116996895D01*
X147924687Y-116996895D02*
X147924687Y-116196895D01*
X147924687Y-116196895D02*
X148000878Y-116311180D01*
X148000878Y-116311180D02*
X148077068Y-116387371D01*
X148077068Y-116387371D02*
X148153259Y-116425466D01*
M02*
