M48
; DRILL file KiCad 10.0.1 date 2026-04-25T15:45:38
; FORMAT={-:-/ absolute / metric / decimal}
; #@! TF.CreationDate,2026-04-25T15:45:38-06:00
; #@! TF.GenerationSoftware,Kicad,Pcbnew,10.0.1
; #@! TF.FileFunction,Plated,1,2,PTH
FMAT,2
METRIC
; #@! TA.AperFunction,Plated,PTH,ViaDrill
T1C0.300
; #@! TA.AperFunction,Plated,PTH,ComponentDrill
T2C0.550
; #@! TA.AperFunction,Plated,PTH,ComponentDrill
T3C0.850
; #@! TA.AperFunction,Plated,PTH,ComponentDrill
T4C1.000
%
G90
G05
T1
X115.2Y-119.85
X115.65Y-106.65
X118.0Y-114.7
X118.65Y-124.6
X119.0Y-120.4
X119.3Y-117.35
X120.8Y-112.6
X123.6Y-126.2
X123.95Y-118.2
X124.065Y-126.971
X124.5Y-114.7
X125.55Y-126.8
X127.799Y-124.4
X129.0Y-120.05
X129.25Y-124.4
X133.85Y-115.55
X138.45Y-118.55
X138.45Y-119.55
X138.75Y-123.05
X139.65Y-123.05
X143.25Y-123.75
X144.7Y-114.8
X147.45Y-122.7
T4
X121.158Y-102.362
X122.331Y-128.778
X123.698Y-102.362
X124.871Y-128.778
X126.238Y-102.362
X127.411Y-128.778
X128.778Y-102.362
X129.951Y-128.778
X134.44Y-102.362
X136.98Y-102.362
X139.52Y-102.362
X142.06Y-102.362
T2
G00X149.525Y-112.225
M15
G01X150.175Y-112.225
M16
G05
G00X149.525Y-119.975
M15
G01X150.175Y-119.975
M16
G05
T3
G00X145.775Y-112.375
M15
G01X146.325Y-112.375
M16
G05
G00X145.775Y-119.825
M15
G01X146.325Y-119.825
M16
G05
M30
